<svg width="128" height="128" viewBox="0 0 128 128" fill="none" xmlns="http://www.w3.org/2000/svg">
<path d="M70.0625 61.8138C72.5706 61.752 73.0603 62.4391 74.9876 63.8688C75.0692 63.9293 77.9226 65.6206 77.8388 65.6275C78.5217 65.572 79.3755 64.802 80.2405 64.8235C80.9526 64.8873 81.4 64.7598 82.0551 64.5068C82.4391 65.426 82.7581 66.1879 82.9593 67.1816C83.0252 67.5071 83.0292 68.291 83.0798 68.4778C84.12 69.3689 83.9896 69.597 85.2631 70.1515L85.9521 70.0211C86.5511 69.5245 86.9588 69.1803 87.623 68.7618C88.4048 69.8801 89.1673 69.349 90.5177 71.1073C91.0537 72.3731 92.4768 74.462 91.9723 75.6909L92.5135 76.1343C93.0015 75.6711 93.4913 75.2703 94.0077 74.8415C94.9053 75.0983 95.4756 75.5641 96.4411 75.6454L96.6648 75.3973C98.0038 75.5354 97.8155 77.079 98.2533 77.4493C98.4976 77.9708 98.6762 78.308 98.9732 78.8013C99.8543 78.8719 100.944 78.9204 101.75 79.2824C104.128 80.7798 105.106 81.9475 103.459 84.5699C102.124 86.6 101.205 88.0471 100.723 90.4784C100.556 91.2323 100.314 92.071 100.38 92.8308C99.9975 93.3338 98.8547 95.7344 98.9433 96.3154L99.2247 96.4295C98.5611 96.5462 97.4432 97.7305 97.1017 98.2194C97.0442 98.3009 96.9905 98.3853 96.941 98.4719C98.5161 101.087 99.509 101.476 99.1095 104.892C98.7213 108.21 97.532 111.818 94.6113 113.769C92.9101 114.855 90.6876 115.153 88.7371 115.602C88.0177 115.679 87.573 115.751 86.8668 115.897C85.1593 116.07 84.4762 116.526 82.9652 116.83C81.5636 117.113 79.0623 117.023 77.5626 117.01L75.5825 116.987C73.9226 117.002 71.0257 117.198 69.5108 116.648C69.2557 116.556 68.2831 115.742 67.926 115.512L67.858 115.47L67.66 116.214C66.1732 118.248 65.1098 118.728 62.8338 119.106C59.0026 119.741 57.5222 120.033 53.6426 119.154C51.983 118.778 51.4197 118.825 49.6395 118.167C47.2732 117.607 45.0535 116.569 44.8587 113.895C41.5721 114.12 35.6972 112.595 34.9105 108.858C34.8802 108.575 34.9332 108.183 34.9398 107.882C34.9772 106.206 33.5496 96.423 31.801 96.4524C31.5891 95.0514 32.3238 91.8801 30.5293 91.2911C30.7631 91.0415 30.6116 88.9211 30.659 88.1555L30.5545 87.4561C29.9223 85.7589 26.836 79.8455 27.7438 78.3615C28.2188 77.973 31.771 77.9443 32.7706 77.8741L33.5456 77.8224C33.9478 75.9936 34.3728 75.7103 35.7402 74.3858C35.8251 74.1221 35.9626 74.089 36.2181 73.8941C36.323 74.2313 36.3185 74.088 36.2241 74.439L36.5575 74.3451C36.861 74.6943 36.9628 75.1023 37.1136 75.5413C38.3008 76.0671 39.8697 76.7293 40.9593 77.3791C41.2191 76.9606 41.3713 76.8575 41.748 76.5458C42.3587 76.0661 43.2747 75.8129 44.0148 75.2975C44.4207 74.9966 44.7383 74.7161 45.1175 74.3811C44.9677 73.6608 45.0678 72.9484 45.1257 72.213C45.0643 72.0075 45.0741 71.5035 45.0698 71.2656L45.9602 71.6299C46.2908 71.6323 46.4241 71.6059 46.7503 71.5454C47.0462 71.2593 46.9718 71.4003 47.0532 71.0186C46.342 70.5696 46.1771 69.8158 45.8832 69.0253C45.7591 66.1311 48.2745 64.1968 50.5546 62.9035C51.823 63.5239 52.5725 63.6525 53.6125 64.6653C54.7902 66.0271 56.191 65.91 57.7238 67.2583C58.3651 67.0045 59.1725 66.6896 59.7772 66.3814C61.4617 65.5225 61.7421 64.7825 63.6568 64.5705C63.2393 64.1893 62.9962 63.9475 62.6251 63.5225C63.8517 63.5375 64.3263 64.8095 65.4647 64.9624C65.8215 64.9609 66.3285 64.9728 66.6725 64.9456C67.2175 64.5441 67.1582 64.3021 67.4906 64.0266C68.4345 63.2444 69.1953 62.7153 70.0625 61.8138Z" fill="url(#paint0_linear_1_327)"/>
<path d="M83.0799 68.4778C84.12 69.3689 83.9896 69.597 85.2631 70.1515L85.9521 70.0212C86.5511 69.5245 86.9589 69.1803 87.623 68.7618C88.4049 69.8802 89.1674 69.349 90.5177 71.1073C91.0537 72.3732 92.4769 74.462 91.9724 75.6909L92.5135 76.1343C93.0015 75.6712 93.4914 75.2703 94.0077 74.8415C94.9054 75.0983 95.4756 75.5642 96.4411 75.6454L96.6649 75.3973C98.0039 75.5354 97.8155 77.079 98.2534 77.4493C98.4976 77.9708 98.6762 78.308 98.9732 78.8013C99.8544 78.8719 100.944 78.9204 101.75 79.2824C104.128 80.7798 105.106 81.9475 103.459 84.5699C102.124 86.6 101.205 88.0472 100.723 90.4784C100.556 91.2323 100.314 92.071 100.38 92.8308C99.9975 93.3338 98.8547 95.7344 98.9434 96.3154L99.2247 96.4295C98.5611 96.5463 97.4432 97.7305 97.1017 98.2194C97.0442 98.3009 96.9905 98.3853 96.941 98.4719C98.5161 101.087 99.509 101.476 99.1095 104.892C98.7214 108.21 97.532 111.818 94.6114 113.769C92.9101 114.855 90.6876 115.153 88.7371 115.602C88.0177 115.679 87.573 115.751 86.8669 115.897C85.1594 116.07 84.4762 116.526 82.9652 116.83C81.5636 117.113 79.0624 117.023 77.5626 117.01L75.5825 116.987C73.9226 117.003 71.0257 117.198 69.5109 116.648C69.2557 116.556 68.2831 115.742 67.926 115.512L67.858 115.47C66.8336 114.278 66.2071 112.557 65.7142 111.088C65.8925 110.441 65.9522 110.259 65.9474 109.596C66.2694 109.131 66.4306 102.582 66.4084 101.572C66.431 99.9925 66.5299 97.0005 66.3782 95.4972C66.2915 95.2488 66.1831 94.7997 66.1101 94.5309C66.4631 94.4628 67.0499 94.5315 67.1824 94.4054C66.9392 94.2825 66.89 94.2514 66.6754 94.0838C66.6936 93.6764 66.6307 93.8369 66.9989 93.4842C67.0922 92.8007 66.1245 91.6239 66.0296 90.9128C65.8962 89.9135 66.5255 88.1213 66.3771 87.2097L66.8734 87.0199L67.5581 86.9594C67.3901 85.8795 67.3826 85.1727 67.3809 84.081C67.6909 82.4614 69.2705 80.6435 70.308 79.3375C72.4116 76.6894 74.4326 76.059 76.7075 78.6088L76.9654 78.3667C77.045 77.905 76.0182 76.4367 76.066 75.5745C76.2376 72.4709 80.7605 70.6182 83.0799 68.4778Z" fill="#7F541E"/>
<path d="M87.2417 91.4436C87.767 91.332 87.7835 91.1776 88.4767 91.1273L89.0284 91.3798C89.5017 91.9166 90.8911 93.3889 91.0972 93.9491C91.6092 94.742 91.9352 95.3465 92.3702 96.187C93.8339 96.7379 95.7321 98.7305 96.941 98.4719C98.5161 101.087 99.509 101.476 99.1095 104.892C98.7214 108.21 97.532 111.818 94.6114 113.769C92.9101 114.855 90.6876 115.153 88.7371 115.602C88.0177 115.679 87.573 115.751 86.8669 115.897C85.1594 116.07 84.4762 116.526 82.9652 116.83C81.5636 117.113 79.0624 117.023 77.5626 117.01L75.5825 116.987C73.9226 117.003 71.0257 117.198 69.5109 116.648C69.2557 116.556 68.2831 115.742 67.926 115.512L67.858 115.47C66.8336 114.278 66.2071 112.557 65.7142 111.088C65.8925 110.441 65.9522 110.259 65.9474 109.596C66.2694 109.131 66.4306 102.582 66.4084 101.572C66.431 99.9925 66.5299 97.0005 66.3782 95.4971C68.2922 95.3539 69.9406 94.7794 71.7489 94.5545C74.0837 94.264 75.7954 94.1416 78.1241 93.5416C79.426 93.5605 79.7339 92.7783 80.6735 92.4231C80.8074 93.1518 80.902 94.2499 81.0925 94.8964C81.4929 95.2195 82.5774 96.0288 82.7827 96.416C83.4527 96.751 83.5936 96.7664 84.2805 96.4619C84.7569 94.9048 86.1971 92.6814 87.2417 91.4436Z" fill="#1A651D"/>
<path d="M80.6735 92.4231C80.8074 93.1517 80.902 94.2498 81.0925 94.8963C81.4929 95.2195 82.5774 96.0287 82.7827 96.416L82.526 96.7733C81.8521 96.2675 80.9937 95.7143 80.2866 95.2327C79.3866 95.6598 79.208 95.8742 78.5789 96.6528C77.4394 98.2561 76.943 98.828 75.2501 99.909C74.7482 100.229 73.9389 100.79 73.5317 101.2C73.0777 101.535 72.9015 101.758 72.5285 102.188C72.4592 102.588 72.3514 104.527 72.3281 104.583C72.5891 105.167 72.6442 105.704 73.3782 105.616C74.753 106.489 77.2114 107.163 77.8021 107.656C77.7739 108.53 77.6912 109.904 77.7589 110.736L77.7431 110.838C77.6521 111.465 77.9074 111.739 77.8604 112.141C77.5997 114.373 78.0365 116.129 75.5825 116.987C73.9226 117.002 71.0257 117.198 69.5109 116.648C69.2557 116.555 68.2831 115.742 67.926 115.512L67.858 115.469C66.8336 114.278 66.2071 112.556 65.7142 111.088C65.8925 110.441 65.9522 110.259 65.9474 109.596C66.2694 109.131 66.4306 102.582 66.4084 101.572C66.431 99.9925 66.5299 97.0005 66.3782 95.4971C68.2922 95.3538 69.9406 94.7793 71.7489 94.5545C74.0837 94.264 75.7954 94.1416 78.1241 93.5416C79.426 93.5605 79.7339 92.7782 80.6735 92.4231Z" fill="#66480E"/>
<path d="M71.789 107.192C72.2366 106.599 72.7516 106.021 73.3782 105.616C74.753 106.489 77.2114 107.163 77.8021 107.656C77.7739 108.53 77.6912 109.904 77.7589 110.736L77.6186 110.856L73.6585 110.852C73.0435 110.785 71.8911 110.779 71.2346 110.755C71.4596 109.809 71.6511 108.179 71.789 107.192Z" fill="#C27B00"/>
<path d="M73.6585 110.852L77.6187 110.856C77.4094 111.445 76.6778 111.805 76.1487 112.124C75.2114 112.156 74.2237 112.192 73.2885 112.178C72.3824 112.165 71.2253 112.385 71.0764 111.251C71.5855 110.684 72.6633 110.92 73.6585 110.852Z" fill="#5F3C14"/>
<path d="M72.8082 100.936C75.4829 99.3843 76.525 97.9495 78.5789 96.6529C77.4394 98.2561 76.943 98.828 75.2501 99.909C74.7482 100.229 73.9389 100.791 73.5317 101.2C73.0777 101.535 72.9015 101.759 72.5285 102.188C72.4592 102.588 72.3514 104.527 72.3281 104.583C71.1654 103.206 72.1731 102.343 72.8082 100.936Z" fill="#0D2E1C"/>
<path d="M80.2866 95.2327C80.9937 95.7144 81.8521 96.2675 82.526 96.7734L82.7827 96.416C83.4527 96.751 83.5936 96.7664 84.2805 96.4619C84.2772 96.9807 84.1834 97.1804 84.475 97.5666L84.7187 98.3442C84.9371 98.583 85.1575 98.8197 85.3799 99.0547C84.8925 100.124 84.642 100.385 83.7381 101.213C83.0127 101.616 82.4472 101.628 81.8457 101.869C79.1195 102.957 77.5382 102.426 74.8399 102.582L74.7589 102.495C75.1635 102.445 75.3047 102.453 75.6334 102.191C75.9616 101.573 75.7877 100.76 75.3375 100.251C74.8601 100.327 74.2424 100.926 73.7954 101.272L73.5317 101.2C73.9389 100.79 74.7482 100.229 75.2501 99.909C76.943 98.828 77.4394 98.2561 78.5789 96.6529C79.208 95.8742 79.3866 95.6599 80.2866 95.2327Z" fill="#4D831E"/>
<path d="M82.7828 96.416C83.4528 96.751 83.5936 96.7664 84.2805 96.4619C84.2773 96.9808 84.1834 97.1804 84.475 97.5666L84.7188 98.3443C84.3469 98.2996 82.9384 97.0971 82.526 96.7734L82.7828 96.416Z" fill="#284916"/>
<path d="M87.2417 91.4436C87.767 91.332 87.7835 91.1776 88.4767 91.1273L89.0284 91.3798C89.5017 91.9166 90.8911 93.3889 91.0972 93.9491C91.0471 93.9816 90.5492 94.303 90.5492 94.303C90.0934 95.8579 88.8239 100.192 86.5315 99.6845C86.4324 99.6621 86.3337 99.6378 86.2355 99.6116C85.9551 99.5095 85.6301 99.239 85.3799 99.0548C85.1575 98.8198 84.9371 98.583 84.7187 98.3443L84.475 97.5666C84.1834 97.1804 84.2772 96.9808 84.2805 96.4619C84.7569 94.9048 86.1971 92.6814 87.2417 91.4436Z" fill="#4A9D23"/>
<path d="M87.2417 91.4436C87.767 91.332 87.7835 91.1776 88.4767 91.1273C87.2055 92.4715 84.7521 95.831 84.475 97.5666C84.1834 97.1804 84.2772 96.9808 84.2805 96.4619C84.7569 94.9048 86.1971 92.6814 87.2417 91.4436Z" fill="#3A5E10"/>
<path d="M89.6659 104.684C91.1806 103.986 92.8264 103.437 94.5231 103.957L94.6441 104.128C94.3237 104.494 94.1537 104.57 93.6571 104.684C92.7703 104.754 92.2269 104.801 91.3706 105.07C90.4766 106.027 90.2391 105.973 90.4791 107.291C90.3143 107.212 90.2082 107.058 90.0922 106.921C89.0803 107.43 87.7142 113.871 88.3217 115.18C88.3706 115.285 88.6381 115.52 88.7371 115.602C88.0177 115.679 87.5729 115.751 86.8668 115.897C86.8368 112.933 87.5059 110.579 87.7937 107.72C87.8158 107.501 87.0873 106.262 86.9676 105.623L86.9462 105.506L87.0497 104.445C87.9602 104.491 88.7689 104.512 89.6659 104.684Z" fill="#0D2E1C"/>
<path d="M91.3707 105.07C92.227 104.801 92.7704 104.754 93.6572 104.683C95.6307 106.183 92.9257 108.688 91.435 108.61C90.9215 108.158 90.8438 107.735 90.4792 107.291C90.2392 105.973 90.4767 106.026 91.3707 105.07Z" fill="#3D7315"/>
<path d="M85.7246 103.507L86.6605 103.714C87.0447 103.954 86.9575 103.966 87.0497 104.445L86.9462 105.506C86.9334 105.519 86.9221 105.534 86.9077 105.546C86.3787 105.978 76.6686 105.688 75.2354 105.681C76.262 105.123 85.6582 106.191 86.7252 105.209C86.367 105.017 86.3132 104.975 86.023 104.69L86.0327 104.452C86.4391 104.163 86.3206 104.247 86.8571 104.188C86.4064 103.671 85.9831 103.79 85.4317 103.781C84.2888 103.761 77.0921 104.053 76.4224 103.653C78.4407 103.585 84.0511 104.051 85.7246 103.507Z" fill="#4D831E"/>
<path d="M77.8021 107.656C78.1024 109.078 77.2454 110.294 78.595 110.992C78.8719 111.676 78.3993 112.008 78.0831 112.708C77.7439 113.459 77.7875 116.584 77.5626 117.01L75.5825 116.987C78.0365 116.129 77.5998 114.373 77.8604 112.141C77.9074 111.739 77.6521 111.465 77.7431 110.838L77.7589 110.737C77.6913 109.904 77.7739 108.53 77.8021 107.656Z" fill="#3A5E10"/>
<path d="M85.7246 103.507C85.6999 102.975 85.6509 103.185 85.916 102.715C86.5029 102.449 86.8799 102.517 87.0712 103.169C86.9001 103.626 87.0177 103.498 86.6605 103.714L85.7246 103.507Z" fill="#284916"/>
<path d="M83.0798 68.4778C84.1199 69.3689 83.9896 69.597 85.2631 70.1515L85.9521 70.0212C86.5511 69.5245 86.9588 69.1803 87.6229 68.7618C88.4048 69.8802 89.1673 69.349 90.5177 71.1073C91.0537 72.3732 92.4768 74.462 91.9723 75.6909L92.5134 76.1343C92.1212 76.488 91.7206 76.8783 91.2717 77.1512L90.7481 77.5603C90.3134 77.7633 89.8458 78.027 89.3744 78.0379C88.5121 78.441 85.6021 79.4207 85.3159 80.3484C85.0281 81.2818 85.1343 81.4664 84.5096 82.4123C83.7973 81.878 83.8561 81.4618 83.7227 80.5724C81.4764 79.0898 80.6472 79.0272 78.1862 80.1834C77.9018 80.0279 77.5944 79.7509 77.3383 79.5398C77.1298 79.2588 76.9053 78.9049 76.7074 78.6088L76.9653 78.3667C77.0449 77.905 76.0182 76.4367 76.0659 75.5745C76.2376 72.4709 80.7604 70.6182 83.0798 68.4778Z" fill="url(#paint1_linear_1_327)"/>
<path d="M87.623 68.7617C88.4049 69.8801 89.1674 69.349 90.5177 71.1072C91.0537 72.3731 92.4769 74.462 91.9724 75.6908L92.5135 76.1342C92.1212 76.488 91.7206 76.8782 91.2717 77.1511L90.7481 77.5602C90.3135 77.7632 89.8459 78.027 89.3745 78.0378L88.704 77.5815C87.8605 78.24 85.3314 78.1097 84.188 78.117L84.1906 76.6252C84.4359 76.179 84.8965 75.6053 85.2127 75.185C85.4876 75.1976 85.5289 75.1926 85.794 75.1187C86.5376 74.0356 85.4635 71.6717 85.9521 70.0211C86.5511 69.5245 86.9589 69.1802 87.623 68.7617Z" fill="#E5620E"/>
<path d="M88.704 77.5815C89.1952 77.0708 90.2597 77.4515 90.8399 76.9373L91.2717 77.1511L90.7481 77.5603C90.3135 77.7633 89.8458 78.027 89.3745 78.0379L88.704 77.5815Z" fill="#B94704"/>
<path d="M91.9723 75.6909L92.5135 76.1342C92.1212 76.488 91.7206 76.8782 91.2717 77.1511L90.8398 76.9372C91.2185 76.4271 91.5271 76.1329 91.9723 75.6909Z" fill="#983E0E"/>
<path d="M85.9521 70.0211C85.4635 71.6717 86.5376 74.0356 85.794 75.1187C85.5288 75.1926 85.4876 75.1976 85.2127 75.185C83.9187 75.5997 84.1356 77.1092 83.5655 77.754C83.032 77.521 82.8386 76.8282 82.6166 76.271C83.6723 74.0042 85.3567 72.7525 85.2631 70.1515L85.9521 70.0211Z" fill="#B94704"/>
<path d="M67.3809 84.081C67.6909 82.4614 69.2705 80.6435 70.308 79.3375C72.4116 76.6894 74.4326 76.059 76.7075 78.6087C76.9054 78.9049 77.1299 79.2587 77.3384 79.5397C77.5945 79.7509 77.9019 80.0279 78.1862 80.1834C77.9009 80.453 76.8889 81.4506 76.7287 81.773C77.1289 82.1862 77.1817 82.2346 77.0934 82.8737C77.3601 82.9899 77.6057 83.0429 77.6836 83.3756C77.9392 84.4699 77.8404 86.2141 77.5032 87.2341C77.2525 87.4652 77.1774 87.454 76.828 87.5279C73.7629 87.8879 72.2031 88.5131 68.9312 88.3175C68.4636 87.875 68.0057 87.4222 67.5581 86.9594C67.3901 85.8795 67.3826 85.1726 67.3809 84.081Z" fill="#ECC104"/>
<path d="M76.7287 81.773C77.1288 82.1863 77.1817 82.2346 77.0933 82.8738C76.7676 83.8235 75.1704 84.9126 74.1943 84.9681C74.0249 84.8803 73.8976 84.8256 73.7521 84.6989C74.2017 84.1879 74.6682 83.6919 75.1507 83.2116C75.5357 82.9096 76.3356 82.1324 76.7287 81.773Z" fill="#FEEF53"/>
<path d="M77.3384 79.5397C77.5945 79.7509 77.9019 80.0279 78.1863 80.1834C77.9009 80.453 76.8889 81.4506 76.7288 81.773C76.3357 82.1324 75.5358 82.9096 75.1508 83.2116L74.6812 82.7796C75.537 81.8837 76.6727 80.5602 77.3384 79.5397Z" fill="#CCA22F"/>
<path d="M74.6811 82.7796L75.1507 83.2116C74.6682 83.6919 74.2017 84.1879 73.7521 84.6989L73.1047 85.3295L72.5681 84.8777C73.1651 84.1596 73.9881 83.4127 74.6811 82.7796Z" fill="#7F541E"/>
<path d="M72.5681 84.8777L73.1047 85.3295C72.7517 85.6824 72.37 86.1308 71.9122 86.2945L71.7832 86.2057C71.8575 85.725 72.2657 85.2774 72.5681 84.8777Z" fill="#C27B00"/>
<path d="M94.0078 74.8415C94.9054 75.0982 95.4756 75.5641 96.4411 75.6454L96.6649 75.3972C98.0039 75.5354 97.8155 77.079 98.2534 77.4492C98.4976 77.9707 98.6763 78.308 98.9733 78.8012C99.8544 78.8719 100.944 78.9204 101.75 79.2824C100.971 79.8977 98.8079 80.9725 97.8296 80.9384C97.592 80.7904 97.5455 80.778 97.3845 80.557C97.3488 81.0291 97.3711 81.7074 97.0748 82.0366C96.7376 82.2009 96.5981 82.1887 96.2346 82.2056C95.7643 82.241 92.9471 83.7779 91.9783 83.9676C89.1833 84.5147 87.8386 83.9572 85.0511 85.0279C84.9919 84.4075 84.925 82.8107 84.5096 82.4122C85.1344 81.4664 85.0281 81.2817 85.316 80.3484C85.6021 79.4206 88.5121 78.441 89.3745 78.0379C89.8459 78.027 90.3135 77.7632 90.7481 77.5602L91.2718 77.1511C91.7206 76.8782 92.1213 76.488 92.5135 76.1342C93.0015 75.6711 93.4914 75.2702 94.0078 74.8415Z" fill="#E5620E"/>
<path d="M94.0078 74.8415C94.9054 75.0982 95.4757 75.5641 96.4412 75.6454L96.6649 75.3972C98.0039 75.5354 97.8155 77.079 98.2534 77.4492C98.4977 77.9707 98.6763 78.308 98.9733 78.8012C99.8544 78.8719 100.944 78.9204 101.75 79.2824C100.971 79.8977 98.8079 80.9725 97.8297 80.9384C97.592 80.7904 97.5455 80.778 97.3845 80.557C97.3488 81.0291 97.3712 81.7074 97.0748 82.0366C96.7377 82.2009 96.5982 82.1887 96.2347 82.2056C95.8243 81.6704 96.0643 81.2555 95.7885 80.4485C94.7674 79.4949 93.6162 81.1197 92.4534 80.9639C91.5808 80.5775 91.1445 78.5242 90.7482 77.5602L91.2718 77.1511C91.7207 76.8782 92.1213 76.488 92.5135 76.1342C93.0015 75.6711 93.4914 75.2702 94.0078 74.8415Z" fill="#EE7E08"/>
<path d="M96.4412 75.6453L96.6649 75.3972C98.0039 75.5353 97.8155 77.079 98.2534 77.4492C98.4977 77.9707 98.6763 78.308 98.9733 78.8012C99.8544 78.8718 100.944 78.9203 101.75 79.2823C100.971 79.8977 98.8079 80.9725 97.8297 80.9383C97.592 80.7903 97.5455 80.778 97.3845 80.557C98.0948 79.9273 98.0679 79.553 98.4908 78.7228C97.8564 77.3517 97.6585 76.5407 96.4412 75.6453Z" fill="#44260D"/>
<path d="M89.0283 91.3798C89.6326 91.0014 95.5367 91.1103 96.7259 90.9415C97.8992 90.7749 99.0717 90.0917 100.001 89.9205C100.4 90.0403 100.467 90.1639 100.723 90.4784C100.556 91.2323 100.314 92.071 100.38 92.8308C99.9974 93.3338 98.8547 95.7344 98.9433 96.3154L99.2247 96.4295C98.5611 96.5463 97.4432 97.7305 97.1017 98.2194C97.0442 98.3009 96.9904 98.3853 96.9409 98.4719C95.7321 98.7305 93.8338 96.7379 92.3702 96.187C91.9352 95.3465 91.6092 94.742 91.0972 93.9492C90.8911 93.3889 89.5017 91.9167 89.0283 91.3798Z" fill="#7F541E"/>
<path d="M78.1863 80.1834C80.6473 79.0271 81.4765 79.0898 83.7228 80.5724C83.8561 81.4618 83.7974 81.878 84.5096 82.4123C84.925 82.8108 84.9919 84.4075 85.0511 85.0279C84.73 87.486 78.7725 87.6214 76.828 87.5279C77.1774 87.454 77.2525 87.4653 77.5033 87.2341C77.8404 86.2141 77.9393 84.4699 77.6836 83.3756C77.6058 83.0429 77.3601 82.9899 77.0934 82.8738C77.1818 82.2346 77.1289 82.1863 76.7288 81.773C76.8889 81.4506 77.9009 80.453 78.1863 80.1834Z" fill="url(#paint2_linear_1_327)"/>
<path d="M87.2417 91.4436C87.5544 91.0894 87.9488 90.7123 88.3939 90.5348C89.7626 89.9893 91.2226 89.7154 92.6189 89.2519C93.8687 88.837 95.0741 88.3009 96.3098 87.8476C97.7013 87.3364 99.0329 86.8796 100.436 86.3461C101.48 85.9494 101.997 85.2181 102.875 84.5926C103.107 84.5836 103.302 84.576 103.459 84.5699C102.124 86.6 101.205 88.0471 100.723 90.4784C100.467 90.1639 100.4 90.0403 100.001 89.9205C99.0717 90.0916 97.8992 90.7749 96.7259 90.9415C95.5367 91.1103 89.6326 91.0014 89.0283 91.3798L88.4767 91.1273C87.7834 91.1776 87.7669 91.332 87.2417 91.4436Z" fill="#5F3C14"/>
<path d="M77.2077 92.9005C77.7929 92.8801 79.3566 92.5342 79.6072 92.6954C78.9415 93.2467 78.5309 93.2021 78.1241 93.5416C75.7954 94.1416 74.0837 94.264 71.7489 94.5545C69.9406 94.7794 68.2922 95.3539 66.3782 95.4971C66.2915 95.2487 66.1831 94.7996 66.1101 94.5309C68.2224 94.8082 75.0867 93.5384 77.2077 92.9005Z" fill="#44260D"/>
<path d="M77.2078 92.9005C78.2038 92.5186 79.0334 92.1562 79.7654 91.3529C80.0523 91.0381 80.367 90.6252 80.7789 90.5367C80.9725 90.8664 80.6704 91.6455 80.6724 92.3121L80.6735 92.4231C79.7339 92.7782 79.426 93.5605 78.1241 93.5416C78.5309 93.2021 78.9415 93.2467 79.6073 92.6954C79.3566 92.5342 77.7929 92.8801 77.2078 92.9005Z" fill="#5F3C14"/>
<path d="M70.0625 61.8138C72.5706 61.752 73.0603 62.4391 74.9876 63.8688C75.0692 63.9293 77.9226 65.6206 77.8388 65.6275C78.5217 65.572 79.3755 64.802 80.2405 64.8235C80.9526 64.8873 81.4 64.7598 82.0551 64.5068C82.4391 65.426 82.7581 66.1879 82.9593 67.1816C83.0252 67.5071 83.0292 68.291 83.0798 68.4778C80.7605 70.6181 76.2376 72.4709 76.066 75.5745C76.0182 76.4366 77.045 77.905 76.9653 78.3666L76.7075 78.6088C74.4326 76.059 72.4116 76.6894 70.308 79.3375C69.2705 80.6435 67.6908 82.4614 67.3808 84.081L67.1011 84.2469C66.8848 84.0154 66.7888 83.9585 66.4916 83.8496C66.1997 83.3801 66.0722 82.9623 65.8052 82.514C65.1541 81.4211 64.3992 80.4409 63.5776 79.4748L62.998 79.0009C62.4015 78.1433 62.3008 77.697 61.9806 76.7113C61.4071 74.8108 60.0226 73.1834 58.5202 71.9546C56.7436 70.8561 56.6183 70.6859 54.5446 70.8745C53.9586 70.7376 53.9518 70.7394 53.6555 70.3276C54.1985 69.8438 54.3042 69.6824 54.6742 69.0511L54.9116 68.3456C54.4923 66.6983 53.4806 65.9169 53.6125 64.6653C54.7902 66.0271 56.191 65.91 57.7238 67.2583C58.3651 67.0045 59.1725 66.6896 59.7772 66.3814C61.4617 65.5225 61.7421 64.7825 63.6568 64.5705C63.2393 64.1893 62.9962 63.9475 62.6251 63.5225C63.8517 63.5375 64.3263 64.8095 65.4647 64.9624C65.8215 64.9609 66.3285 64.9728 66.6725 64.9456C67.2175 64.5441 67.1582 64.3021 67.4906 64.0266C68.4345 63.2444 69.1953 62.7153 70.0625 61.8138Z" fill="#4D831E"/>
<path d="M70.0625 61.8138C72.5706 61.752 73.0603 62.4391 74.9876 63.8688C75.0692 63.9293 77.9226 65.6206 77.8388 65.6275C78.5217 65.572 79.3755 64.802 80.2405 64.8235C79.5798 65.1748 78.4581 65.8304 77.7767 65.9723C76.7365 65.2416 75.7496 64.6644 74.6392 63.9965C73.4138 63.2595 72.045 61.8655 70.4707 62.0346C70.0895 62.0756 69.2663 63.1304 68.9431 63.3741C68.2995 63.8146 68.0407 63.7561 67.4661 64.3881L67.435 64.57C68.8137 65.0689 75.367 60.2704 73.3148 67.4591C73.2002 67.8606 72.1531 69.6905 71.8081 69.7776C71.1919 69.933 69.8053 69.87 69.0876 69.9718C64.6103 69.8864 61.2927 73.1234 57.4138 68.8413C56.9186 68.2946 56.2072 67.6819 55.448 67.7218C54.9992 67.9975 55.1462 67.8394 54.9116 68.3456C54.4923 66.6983 53.4806 65.9169 53.6125 64.6653C54.7902 66.0271 56.191 65.91 57.7238 67.2583C58.3651 67.0045 59.1725 66.6896 59.7772 66.3814C61.4617 65.5225 61.7421 64.7825 63.6568 64.5705C63.2393 64.1893 62.9962 63.9475 62.6251 63.5225C63.8517 63.5375 64.3263 64.8095 65.4647 64.9624C65.8215 64.9609 66.3285 64.9728 66.6725 64.9456C67.2175 64.5441 67.1582 64.3021 67.4906 64.0266C68.4345 63.2444 69.1953 62.7153 70.0625 61.8138Z" fill="#698F17"/>
<path d="M65.4648 64.9624C65.8216 64.9609 66.3286 64.9727 66.6726 64.9456C66.7386 64.9785 66.8026 65.0596 66.8603 65.1191C66.5397 65.5214 66.1054 65.5532 65.6317 65.503C65.2869 65.2914 65.3566 65.4011 65.2164 65.0784L65.4648 64.9624Z" fill="#4D831E"/>
<path d="M54.9116 68.3456C55.1463 67.8394 54.9993 67.9975 55.448 67.7218C56.2073 67.6819 56.9186 68.2946 57.4139 68.8413C61.2928 73.1234 64.6104 69.8864 69.0876 69.9718C69.8526 69.9614 71.1019 69.8704 71.7623 70.131L71.8838 70.3393C71.0898 71.5903 67.1726 70 65.7654 71.2039C65.1211 71.755 63.2611 71.956 62.374 71.9393C62.6608 74.5114 63.3269 76.7034 63.5776 79.4748L62.998 79.0009C62.4015 78.1433 62.3009 77.697 61.9806 76.7113C61.4071 74.8108 60.0226 73.1834 58.5203 71.9546C56.7436 70.8561 56.6184 70.6859 54.5446 70.8745C53.9586 70.7376 53.9519 70.7394 53.6555 70.3276C54.1985 69.8438 54.3043 69.6824 54.6743 69.0511L54.9116 68.3456Z" fill="#3D7315"/>
<path d="M53.6555 70.3276C54.1985 69.8438 54.3043 69.6824 54.6743 69.0511C55.515 70.3983 56.9533 69.6224 57.9386 70.6836C57.6843 70.6835 57.6118 70.6728 57.3698 70.7405C58.0285 71.3788 58.0905 71.0789 58.5203 71.9547C56.7436 70.8562 56.6184 70.6859 54.5446 70.8745C53.9586 70.7376 53.9519 70.7394 53.6555 70.3276Z" fill="#66480E"/>
<path d="M50.5547 62.9035C51.823 63.5239 52.5725 63.6525 53.6125 64.6653C53.4807 65.9169 54.4924 66.6983 54.9117 68.3456L54.6743 69.0511C54.3043 69.6824 54.1985 69.8438 53.6555 70.3276C53.9519 70.7394 53.9587 70.7376 54.5447 70.8745C56.6184 70.6859 56.7437 70.8561 58.5203 71.9546C60.0227 73.1834 61.4072 74.8108 61.9807 76.7113C62.3009 77.697 62.4015 78.1433 62.998 79.0009C62.11 79.0125 61.2223 79.0369 60.3349 79.0741L60.0919 79.4693L59.5773 79.6196C59.4253 79.2795 59.4088 79.1776 58.9327 79.053C56.9402 78.5314 54.7587 77.5988 52.7598 78.609C51.8109 79.0884 50.4403 80.2491 50.1053 81.2778C49.9825 81.6549 49.8753 82.1326 49.692 82.4518L49.5533 82.3205C48.6389 83.9683 49.397 84.4888 48.5734 85.212C47.779 85.3735 46.8262 84.8698 46.2045 85.006L46.2315 85.1508C45.6935 85.068 44.9322 85.151 44.41 85.0271C43.0433 84.7026 41.7412 84.3245 40.3625 84.0308C39.4902 83.9014 38.5217 83.8516 37.8683 83.2526C38.2787 82.6093 38.8297 81.4384 39.1908 80.7233C39.4005 80.472 40.0377 79.1346 40.2772 78.7269C40.639 78.1991 40.7197 77.9804 40.9594 77.3791C41.2192 76.9606 41.3714 76.8575 41.748 76.5458C42.3588 76.0661 43.2748 75.8129 44.0149 75.2975C44.4208 74.9966 44.7384 74.7161 45.1175 74.3811C44.9678 73.6608 45.0679 72.9484 45.1258 72.213C45.0644 72.0075 45.0742 71.5035 45.0699 71.2656L45.9603 71.6299C46.2909 71.6323 46.4242 71.6059 46.7504 71.5454C47.0463 71.2593 46.9719 71.4003 47.0533 71.0186C46.342 70.5696 46.1772 69.8158 45.8833 69.0253C45.7592 66.1311 48.2745 64.1968 50.5547 62.9035Z" fill="#E5620E"/>
<path d="M40.9594 77.3792C41.2192 76.9607 41.3714 76.8575 41.748 76.5458L42.6234 77.1799C43.6094 77.096 44.467 77.111 45.4578 77.1211C45.9438 77.7075 47.6122 78.8274 48.2993 79.149C49.8018 79.7146 49.175 82.2249 48.2425 83.0999C47.5125 83.7848 46.223 84.1788 45.7264 84.7685L45.8104 84.917L46.2045 85.006L46.2315 85.1508C45.6935 85.068 44.9322 85.151 44.41 85.0271C43.0433 84.7026 41.7412 84.3245 40.3625 84.0308C39.4902 83.9014 38.5217 83.8516 37.8683 83.2526C38.2787 82.6093 38.8297 81.4384 39.1908 80.7233C39.4005 80.472 40.0377 79.1346 40.2772 78.7269C40.639 78.1991 40.7197 77.9804 40.9594 77.3792Z" fill="url(#paint3_linear_1_327)"/>
<path d="M48.2992 79.149C49.8017 79.7146 49.1749 82.2249 48.2424 83.0999C47.5124 83.7847 46.2229 84.1787 45.7263 84.7685L45.8103 84.917L46.2044 85.006L46.2314 85.1507C45.6934 85.068 44.9321 85.151 44.4099 85.0271C43.0432 84.7026 41.7411 84.3245 40.3624 84.0307L40.2678 83.6812L40.3167 83.7006C42.9771 84.7351 49.7182 82.3685 48.2992 79.149Z" fill="#E54E11"/>
<path d="M39.1908 80.7233C40.1837 81.4114 39.6915 81.9411 39.9832 82.913C40.0689 83.1761 40.1413 83.4359 40.2679 83.6813L40.3625 84.0308C39.4902 83.9014 38.5217 83.8516 37.8683 83.2526C38.2787 82.6093 38.8297 81.4384 39.1908 80.7233Z" fill="#B94704"/>
<path d="M40.9593 77.3792C41.2191 76.9607 41.3713 76.8575 41.748 76.5458L42.6233 77.1799C41.8585 77.9709 41.4288 78.5749 40.9138 79.5621L40.2771 78.7269C40.639 78.1991 40.7196 77.9804 40.9593 77.3792Z" fill="#E54E11"/>
<path d="M40.2772 78.7269L40.9139 79.5621C40.3072 81.0124 39.9735 81.3296 39.9832 82.913C39.6915 81.9411 40.1837 81.4114 39.1908 80.7232C39.4005 80.472 40.0377 79.1346 40.2772 78.7269Z" fill="#E54E11"/>
<path d="M50.5546 62.9035C51.823 63.5239 52.5724 63.6525 53.6124 64.6653C53.4806 65.9169 54.4923 66.6983 54.9116 68.3456L54.6742 69.0511C54.3042 69.6824 54.1984 69.8438 53.6554 70.3276C51.7888 71.4275 50.4051 70.9266 48.3016 70.9936C47.9646 71.0044 47.3657 70.9399 47.0532 71.0186C46.3419 70.5696 46.1771 69.8158 45.8832 69.0253C45.7591 66.1311 48.2745 64.1968 50.5546 62.9035Z" fill="url(#paint4_linear_1_327)"/>
<path d="M47.0532 71.0186C47.3657 70.9399 47.9646 71.0044 48.3016 70.9936C50.4051 70.9266 51.7888 71.4275 53.6555 70.3276C53.9518 70.7394 53.9586 70.7376 54.5446 70.8745C54.302 70.8675 53.5695 70.7893 53.4207 71.0363C52.733 72.1778 46.7442 72.0723 45.9602 71.6299C46.2908 71.6323 46.4241 71.6059 46.7503 71.5454C47.0462 71.2593 46.9718 71.4003 47.0532 71.0186Z" fill="#983E0E"/>
<path d="M61.9806 76.7112C62.3008 77.697 62.4014 78.1432 62.9979 79.0009C62.1099 79.0125 61.2222 79.0369 60.3348 79.0741C59.9856 78.9535 59.9472 78.9951 59.8723 78.6364C60.1732 78.3354 61.2797 78.0715 61.7848 77.8966C62.0277 77.5866 61.9621 77.1656 61.9806 76.7112Z" fill="#B94704"/>
<path d="M45.1257 72.213C45.6422 72.3321 45.4651 72.2231 45.8012 72.6116C46.0092 73.2794 45.7483 73.8673 45.4895 74.4944L45.1175 74.3811C44.9677 73.6608 45.0678 72.9484 45.1257 72.213Z" fill="#983E0E"/>
<path d="M44.0149 75.2975C44.4208 74.9966 44.7384 74.7161 45.1175 74.3811L45.4895 74.4944C45.3209 74.8365 44.9373 75.7529 44.6511 75.8809C44.3075 75.7367 44.2316 75.5896 44.0149 75.2975Z" fill="#C76B22"/>
<path d="M59.7531 106.237C60.0449 106.616 60.1521 106.84 60.6061 106.95C61.5351 106.765 62.1481 106.685 62.8981 107.374C64.6866 107.836 64.8396 108.061 65.9474 109.596C65.9523 110.259 65.8925 110.441 65.7143 111.088C66.2071 112.557 66.8336 114.278 67.858 115.469L67.66 116.214C66.1733 118.248 65.1099 118.728 62.8339 119.105C59.0026 119.74 57.5223 120.033 53.6426 119.154C51.983 118.778 51.4198 118.825 49.6395 118.167C47.2733 117.607 45.0535 116.569 44.8588 113.895C44.9518 112.941 44.9909 112.074 45.028 111.116C45.0281 110.39 45.0315 110.094 44.8841 109.366L45.0006 108.933C45.5856 108.824 47.1091 107.315 47.5023 106.794C48.3701 106.74 49.5291 106.626 50.3736 106.739C51.041 106.828 51.1243 107.11 51.4688 107.602L52.1203 108.055C52.2973 108.501 52.3244 108.557 52.715 108.842L53.1318 108.718C53.9728 108.481 54.5934 108.872 55.5265 108.418C55.8351 108.702 55.9901 108.88 56.3859 109.023C56.7785 108.99 56.8986 108.954 57.1351 108.568L57.17 108.79L57.6488 109.122C58.1813 108.86 58.9878 108.269 59.5008 107.917C59.2473 107.684 59.0248 107.415 58.7978 107.155L59.7531 106.237Z" fill="#B94704"/>
<path d="M47.5023 106.794C48.3701 106.74 49.5291 106.626 50.3736 106.739C51.041 106.828 51.1243 107.109 51.4688 107.602L52.1203 108.055C52.2973 108.501 52.3244 108.557 52.715 108.842L53.1318 108.718C53.9728 108.481 54.5934 108.872 55.5265 108.418C55.8351 108.702 55.9901 108.88 56.3859 109.023C56.7785 108.99 56.8986 108.954 57.1351 108.568L57.17 108.79C56.9986 109.242 56.5214 109.499 56.1519 109.841C56.1701 110.228 56.2758 111.189 56.0728 111.467C55.9511 112.599 55.8236 113.644 54.526 113.984L55.2159 114.296C53.8391 115.439 51.7671 116.295 50.1574 117.063C49.601 117.328 49.5771 117.247 49.0691 117.693C49.5205 118.16 49.6009 117.65 49.6395 118.167C47.2733 117.607 45.0535 116.569 44.8588 113.895C44.9518 112.941 44.9909 112.074 45.028 111.116C45.0281 110.39 45.0315 110.094 44.8841 109.366L45.0006 108.933C45.5856 108.824 47.1091 107.315 47.5023 106.794Z" fill="#FCA221"/>
<path d="M45.028 111.116C45.6605 110.53 48.8656 112.487 49.9211 111.058C50.0461 111.603 50.1496 111.838 50.6688 112.133C49.2445 114.294 51.5741 114.558 53.2299 114.311C53.5696 114.261 54.2 113.917 54.526 113.984L55.2159 114.296C53.8391 115.439 51.7671 116.295 50.1574 117.063C49.601 117.328 49.5771 117.247 49.0691 117.693C49.5205 118.16 49.6009 117.65 49.6395 118.167C47.2733 117.607 45.0535 116.569 44.8588 113.895C44.9518 112.941 44.9909 112.074 45.028 111.116Z" fill="#EE7E08"/>
<path d="M55.5265 108.418C55.8351 108.702 55.9901 108.88 56.3858 109.023C56.7785 108.99 56.8986 108.954 57.1351 108.568L57.17 108.79C56.9986 109.242 56.5213 109.499 56.1518 109.841C56.1701 110.228 56.2757 111.189 56.0727 111.467C56.0242 111.235 56.0153 110.347 56.0071 110.059L54.7802 108.778L53.1317 108.718C53.9727 108.481 54.5933 108.872 55.5265 108.418Z" fill="#E5620E"/>
<path d="M52.1203 108.055C52.2973 108.501 52.3244 108.557 52.715 108.842C51.8463 109.222 52.1163 109.961 51.3469 110.044L50.9894 109.719C51.3135 108.964 51.8544 108.83 52.1203 108.055Z" fill="#EE7E08"/>
<path d="M50.5669 110.355C51.0254 110.713 50.955 110.559 51.1391 111.058C51.1133 111.514 50.9284 111.755 50.6688 112.133C50.1496 111.838 50.0461 111.603 49.9211 111.058L50.5669 110.355Z" fill="#EE7E08"/>
<path d="M59.7531 106.237C60.0448 106.616 60.1521 106.84 60.6061 106.95C61.5351 106.765 62.1481 106.685 62.8981 107.374C63.0808 107.767 63.1013 107.822 63.1542 108.26C64.6098 109.496 65.679 110.294 64.4403 112.155C62.3168 114.146 61.7112 114.104 58.7846 114.178C58.4111 114.07 57.7055 113.968 57.2997 113.897C57.2918 113.228 57.2893 112.558 57.2921 111.889C57.2978 111.154 57.206 109.558 57.6487 109.122C58.1812 108.86 58.9877 108.269 59.5007 107.917C59.2472 107.684 59.0247 107.415 58.7977 107.155L59.7531 106.237Z" fill="#E5620E"/>
<path d="M59.7531 106.237C60.0449 106.616 60.1521 106.84 60.6061 106.95C61.5351 106.765 62.1481 106.685 62.8981 107.374C63.0809 107.767 63.1014 107.822 63.1542 108.26C62.3195 107.633 61.1582 107.658 60.1517 107.682L59.5007 107.917C59.2472 107.684 59.0247 107.415 58.7977 107.155L59.7531 106.237Z" fill="#983E0E"/>
<path d="M57.17 108.79L57.6488 109.122C57.206 109.558 57.2979 111.154 57.2921 111.889C57.2894 112.558 57.2919 113.228 57.2998 113.897C57.7055 113.968 58.4111 114.07 58.7846 114.178C58.5715 114.227 57.4431 114.206 57.4189 114.234C56.8639 114.864 56.2999 115.797 55.5798 116.24C55.5726 115.338 56.6996 114.963 56.9141 114.29C56.6776 114.026 56.6209 114.01 56.2895 113.877C55.8141 114.415 55.864 114.363 55.2159 114.296L54.526 113.984C55.8236 113.644 55.9511 112.599 56.0728 111.467C56.2758 111.189 56.1701 110.228 56.1519 109.841C56.5214 109.499 56.9986 109.242 57.17 108.79Z" fill="url(#paint5_linear_1_327)"/>
<path d="M62.8981 107.375C64.6866 107.836 64.8396 108.061 65.9473 109.596C65.9522 110.259 65.8924 110.441 65.7142 111.088C66.2071 112.557 66.8336 114.278 67.8579 115.47L67.66 116.214C67.6228 115.944 67.5893 115.818 67.5116 115.556C66.7263 114.934 66.6618 115.518 65.8903 115.559C66.1268 115.165 66.4606 115.161 66.9327 114.826C66.4022 113.77 65.9868 112.793 65.5021 111.732C65.455 111.628 65.3929 111.656 65.2154 111.615C64.8822 111.877 64.7813 112.001 64.5079 112.318L64.4403 112.155C65.6789 110.294 64.6098 109.496 63.1542 108.26C63.1013 107.822 63.0808 107.767 62.8981 107.375Z" fill="#78300E"/>
<path d="M51.4688 107.602C52.3299 106.935 51.3414 106.663 51.1914 106.009C51.2447 105.954 51.5574 105.531 51.5598 105.495C51.6538 104.341 51.5009 101.774 52.1477 100.795C53.0948 99.3615 51.8415 98.1743 52.8468 97.1703C52.9934 97.3576 53.0783 97.6186 53.1682 97.8435C53.5414 97.8577 53.8204 96.9888 54.196 96.8353C54.4824 96.7183 55.7237 96.5326 55.927 96.663C57.6677 97.778 59.6728 100.822 61.3862 101.596C62.457 102.08 65.008 102.719 66.0823 102.14C66.299 102.023 66.3018 101.848 66.4084 101.572C66.4307 102.582 66.2694 109.131 65.9474 109.596C64.8397 108.061 64.6867 107.836 62.8982 107.374C62.1482 106.685 61.5352 106.765 60.6062 106.95C60.1522 106.84 60.0449 106.616 59.7532 106.237L58.7978 107.155C59.0248 107.415 59.2473 107.684 59.5008 107.917C58.9878 108.269 58.1813 108.86 57.6488 109.122L57.17 108.79L57.1352 108.568C56.8987 108.954 56.7785 108.99 56.3859 109.023C55.9902 108.88 55.8352 108.702 55.5265 108.418C54.5934 108.872 53.9728 108.481 53.1318 108.718L52.715 108.842C52.3244 108.557 52.2973 108.501 52.1203 108.055L51.4688 107.602Z" fill="#7F541E"/>
<path d="M53.1448 106.927C52.991 105.107 55.729 102.159 57.8093 102.749C59.4855 103.225 61.2163 104.409 59.7531 106.237L58.7977 107.155C59.0247 107.415 59.2472 107.684 59.5007 107.917C58.9877 108.269 58.1812 108.86 57.6487 109.122L57.17 108.79L57.1351 108.568C56.8986 108.954 56.7785 108.99 56.3858 109.023C55.9901 108.88 55.8351 108.702 55.5265 108.418C54.5933 108.872 53.9727 108.481 53.1317 108.718L52.715 108.842C53.2397 108.248 53.1685 107.673 53.1448 106.927Z" fill="#EE7E08"/>
<path d="M57.1351 108.568C57.279 108.05 58.3044 107.474 58.7978 107.155C59.0248 107.415 59.2473 107.685 59.5008 107.917C58.9878 108.269 58.1813 108.86 57.6488 109.122L57.17 108.79L57.1351 108.568Z" fill="#B94704"/>
<path d="M53.1448 106.927C53.2763 107.545 53.1681 107.537 53.5558 107.876C54.3888 108.027 54.9123 107.816 55.5265 108.418C54.5933 108.872 53.9727 108.481 53.1317 108.718L52.715 108.842C53.2397 108.248 53.1685 107.673 53.1448 106.927Z" fill="#C76B22"/>
<path d="M49.6919 82.4517C49.8752 82.1326 49.9824 81.6548 50.1052 81.2777C50.4402 80.2491 51.8108 79.0883 52.7597 78.609C54.7586 77.5987 56.9401 78.5313 58.9326 79.053C59.4087 79.1776 59.4252 79.2795 59.5772 79.6196L60.0918 79.4692C60.2899 80.4934 60.1573 81.6602 59.8084 82.6385C59.6336 83.1811 59.4468 83.7358 59.2903 84.2827L58.6654 83.6537C58.5416 84.0315 58.3443 84.5546 58.3173 84.9346L57.7071 85.7737C56.3938 86.2058 55.6432 85.2207 55.3096 85.2342C53.7196 85.2988 51.8466 85.7 50.2494 85.2618C48.7514 84.8511 49.3471 83.4178 49.6919 82.4517Z" fill="url(#paint6_linear_1_327)"/>
<path d="M59.5772 79.6196L60.0918 79.4692C60.29 80.4934 60.1573 81.6602 59.8085 82.6385C59.3095 82.3131 59.4053 82.1942 59.324 81.6439C59.3582 80.9029 59.3492 80.3306 59.5772 79.6196Z" fill="#B94704"/>
<path d="M58.6655 83.6537C59.0338 82.9125 59.2338 82.4681 59.324 81.6439C59.4054 82.1942 59.3095 82.3131 59.8085 82.6385C59.6337 83.1811 59.4469 83.7359 59.2904 84.2827L58.6655 83.6537Z" fill="#C76B22"/>
<path d="M62.9981 79.0009L63.5777 79.4747C64.3993 80.4408 65.1542 81.4211 65.8053 82.514C66.0723 82.9622 66.1998 83.3801 66.4917 83.8496C66.7889 83.9585 66.8849 84.0153 67.1012 84.2468L67.3809 84.081C67.3827 85.1726 67.3902 85.8795 67.5582 86.9594L66.8734 87.0199C65.8391 86.7836 63.9156 87.1977 62.3691 86.9389C60.8446 87.4195 59.9217 87.1934 58.3592 87.2279L58.4087 86.3614L57.8362 86.012C58.1654 85.6634 58.2293 85.384 58.3174 84.9346C58.3444 84.5546 58.5417 84.0315 58.6656 83.6537L59.2904 84.2827C59.4469 83.7359 59.6337 83.1811 59.8086 82.6385C60.1574 81.6602 60.2901 80.4934 60.0919 79.4692L60.3349 79.0741C61.2223 79.0369 62.1101 79.0125 62.9981 79.0009Z" fill="#EE7E08"/>
<path d="M66.4916 83.8496C66.7889 83.9585 66.8849 84.0154 67.1011 84.2469L67.3809 84.081C67.3826 85.1726 67.3901 85.8795 67.5581 86.9594L66.8734 87.0199C65.839 86.7836 63.9155 87.1977 62.369 86.9389C63.9171 86.2155 66.61 86.142 66.4916 83.8496Z" fill="#5F3C14"/>
<path d="M58.6656 83.6537L59.2904 84.2828C59.2561 85.0569 58.8048 85.6727 58.4087 86.3614L57.8362 86.012C58.1654 85.6634 58.2293 85.384 58.3174 84.9346C58.3444 84.5546 58.5417 84.0315 58.6656 83.6537Z" fill="#B94704"/>
<path d="M36.2182 73.8941C36.323 74.2312 36.3185 74.088 36.2242 74.439L36.5575 74.3451C36.861 74.6942 36.9629 75.1022 37.1137 75.5412C38.3009 76.0671 39.8698 76.7292 40.9594 77.3791C40.7197 77.9804 40.639 78.1991 40.2772 78.7269C40.0377 79.1346 39.4005 80.472 39.1908 80.7232C38.8297 81.4384 38.2787 82.6092 37.8683 83.2526C37.1995 83.3055 35.6053 82.2047 34.26 81.926L34.1389 81.9019C33.8665 81.6589 33.8494 81.2086 33.7777 80.8167C33.5749 79.8852 33.7364 78.8821 33.5457 77.8223C33.9479 75.9936 34.3729 75.7102 35.7403 74.3857C35.8252 74.1221 35.9627 74.089 36.2182 73.8941Z" fill="#FCA221"/>
<path d="M40.1528 110.704C40.6086 110.48 41.0526 110.713 41.1989 110.594C43.0064 109.123 41.7404 107.704 45.0006 108.933L44.8841 109.366C45.0315 110.094 45.0281 110.39 45.028 111.116C44.9909 112.074 44.9518 112.941 44.8588 113.895C41.5721 114.12 35.6973 112.594 34.9105 108.857C35.8529 108.047 38.8601 110.34 40.1528 110.704Z" fill="#C76B22"/>
<path d="M40.1527 110.704C40.6086 110.48 41.0526 110.713 41.1988 110.594C43.0063 109.123 41.7403 107.704 45.0006 108.933L44.8841 109.366C44.902 109.929 45.0383 111.783 44.7363 112.145C43.8683 112.134 41.0996 111.049 40.1527 110.704Z" fill="#7F541E"/>
<path d="M46.2045 85.006C46.8261 84.8697 47.779 85.3735 48.5733 85.212C49.397 84.4887 48.6388 83.9682 49.5532 82.3205L49.692 82.4517C49.3471 83.4179 48.7515 84.8511 50.2495 85.2619C51.8466 85.7 53.7196 85.2989 55.3096 85.2342C55.6432 85.2207 56.3938 86.2059 57.7071 85.7737L58.3173 84.9346C58.2292 85.384 58.1653 85.6634 57.8361 86.012L58.4086 86.3614L58.3591 87.2279C57.693 87.3209 57.471 87.2922 56.7936 87.2257C54.0041 87.3506 51.936 87.1025 49.3555 86.1291C49.2552 85.954 49.1525 85.7802 49.0471 85.6081C48.1862 85.252 47.1752 85.2375 46.2315 85.1507L46.2045 85.006Z" fill="#E54E11"/>
<path d="M57.8361 86.012L58.4086 86.3614L58.3591 87.2279C57.693 87.3209 57.471 87.2923 56.7936 87.2258C57.1801 86.6113 57.2676 86.5095 57.8361 86.012Z" fill="#983E0E"/>
<path d="M30.5544 87.4561C31.7986 87.5972 33.6789 88.3195 34.8967 88.7594C37.7269 89.7816 40.7666 90.2692 43.6706 91.1056C43.9582 91.1884 44.1716 91.3189 44.4813 91.3246C45.6636 91.4195 47.6698 91.5746 48.7704 91.8814C48.2409 92.31 47.4822 91.9831 46.6496 92.2082L45.0007 92.5549C44.6348 92.577 44.4464 92.614 44.1009 92.4692L43.7573 91.5159C42.9503 91.2572 41.8371 91.1974 41.1622 90.9492C39.6439 90.3909 38.3767 90.1516 36.8371 89.904C35.9716 89.7649 34.3341 88.9525 33.3696 88.7097C31.9164 88.3441 32.4608 87.8591 30.6589 88.1555L30.5544 87.4561Z" fill="#44260D"/>
<path d="M32.7706 77.8741L33.5456 77.8224C33.7363 78.8821 33.5748 79.8853 33.7776 80.8168C33.7821 81.2429 33.8348 81.8395 33.5857 82.1585C33.0007 82.0234 29.7726 79.9819 29.4653 79.4386C30.2 78.5461 32.2365 79.6661 32.9273 78.7229C32.9287 78.311 32.9088 78.2564 32.7706 77.8741Z" fill="#2A302B"/>
<path d="M51.0655 92.304C52.7273 92.5431 54.9865 93.1218 56.796 93.4891C56.0333 93.4761 55.1151 93.286 54.6261 93.9343C53.5718 93.0498 51.7507 93.2456 50.4211 93.3355C49.0306 94.5105 49.2345 94.9993 48.5127 95.8236C48.2275 96.3649 47.9107 97.163 47.3755 97.3778L47.2828 97.1648C47.3063 96.5571 47.6272 96.0144 47.8948 95.4621C48.2912 94.2426 49.0881 93.5138 49.9877 92.6113C50.4135 92.4313 50.6168 92.3963 51.0655 92.304Z" fill="#44260D"/>
<path d="M56.796 93.4891C58.449 93.5429 60.016 93.7519 61.6016 94.2431C59.8348 94.171 55.8288 94.5881 54.6261 93.9343C55.1151 93.286 56.0333 93.4761 56.796 93.4891Z" fill="#2B0E00"/>
<path d="M46.2315 85.1508C47.1753 85.2375 48.1863 85.252 49.0471 85.6081C49.1525 85.7803 49.2553 85.954 49.3555 86.1291C48.2773 86.1321 47.056 86.0329 45.9686 85.9685C45.777 85.847 45.5811 85.6831 45.4003 85.5421L45.4523 85.3784L46.2315 85.1508Z" fill="#78300E"/>
<path d="M48.7705 91.8813C49.4988 91.9002 50.3099 92.2065 51.0655 92.304C50.6169 92.3962 50.4135 92.4312 49.9878 92.6112C48.9204 92.275 47.7584 92.2492 46.6497 92.2082C47.4823 91.9831 48.241 92.31 48.7705 91.8813Z" fill="#5F3C14"/>
<path d="M44.101 92.4692C44.4465 92.614 44.6348 92.577 45.0007 92.5549C44.718 92.866 44.706 93.9737 44.156 94.3882C43.8562 93.9455 44.0256 93 44.101 92.4692Z" fill="#7F541E"/>
<path d="M40.1676 95.5597C40.5525 95.5294 40.4431 95.4794 40.6846 95.6697C40.7067 96.2289 39.7941 97.4334 39.25 97.6082L39.0622 97.447C38.5873 96.6221 38.2962 96.3405 37.6425 95.648C38.5403 95.6466 39.2723 95.6232 40.1676 95.5597Z" fill="#5F3C14"/>
<path d="M61.2894 94.3495C61.912 94.3754 63.4324 94.3972 63.8489 94.8217L63.8088 95.1774C63.0931 95.4092 62.1518 95.5676 61.4598 95.2121C61.166 94.8294 61.2535 94.9444 61.2894 94.3495Z" fill="#2B0E00"/>
<path d="M38.2267 99.5184C38.7127 99.6209 39.1979 99.6514 39.3728 100.162C39.1297 100.514 39.1532 100.426 38.713 100.625C38.5689 100.659 38.4073 100.66 38.2568 100.67C37.8287 100.365 37.9198 100.516 37.748 100.055C37.8784 99.6336 37.7687 99.7831 38.2267 99.5184Z" fill="#7F541E"/>
<path d="M50.4003 30.7437C49.223 29.6397 45.5984 25.6491 46.1911 23.99C48.8656 23.2867 53.1088 23.9575 55.9373 23.8524C57.5771 23.9212 59.3459 23.6572 60.9698 23.7396C65.4196 23.9654 69.8541 23.766 74.3103 23.824C76.8466 23.857 79.452 23.6069 81.9878 23.7841C82.3495 23.8094 82.6048 24.003 82.8048 24.2886C83.1265 25.4685 81.6126 26.5324 81.1218 27.4012C79.7523 29.744 78.7964 30.5082 76.2004 31.0295C73.9341 31.4845 67.3674 30.5474 65.672 31.2151C65.5688 31.4344 65.5545 33.6945 65.5398 34.0941C67.1468 34.121 70.9819 33.8067 72.4254 34.295C72.6828 34.5924 72.6535 34.9201 72.6869 35.3315L72.8544 35.8585C73.4029 36.2502 80.9904 35.9366 82.255 36.0745C83.6939 36.2315 84.6888 36.3176 84.8179 38.032C85.0676 41.3495 84.8864 44.8534 84.8839 48.1836L84.8919 54.595C84.9004 56.3215 85.3005 58.6244 83.9846 59.8721C83.4481 60.4927 82.9441 60.823 82.2868 61.3012C82.0241 62.6384 81.9296 63.1265 82.0551 64.5067C81.4 64.7597 80.9526 64.8872 80.2405 64.8235C79.3755 64.802 78.5218 65.572 77.8389 65.6275C77.9226 65.6206 75.0693 63.9292 74.9876 63.8687C73.0604 62.4391 72.5706 61.752 70.0625 61.8137C69.1954 62.7152 68.4345 63.2444 67.4906 64.0266C67.1583 64.3021 67.2175 64.5441 66.6725 64.9456C66.3285 64.9727 65.8215 64.9608 65.4648 64.9623C64.3264 64.8095 63.8518 63.5375 62.6251 63.5225C62.1365 63.2178 61.3704 62.1291 61.0944 61.5971C59.5903 61.6777 59.081 61.4519 57.6141 61.0539C55.1219 60.4252 51.5406 60.913 48.9195 60.8031C48.0743 60.7676 46.7371 60.753 46.8703 59.5107C47.0718 57.6322 48.6124 56.4221 49.9216 55.2682C50.0983 52.4264 49.8621 49.0039 50.2534 46.2801C50.5916 44.459 49.51 45.8242 48.3426 44.9906C45.6805 42.8961 44.8015 41.2211 44.9601 37.7884C45.1195 34.338 49.5464 34.9794 51.904 35.1995C52.185 35.5114 52.4708 35.8187 52.7613 36.1219C53.3088 36.4551 53.2786 36.9136 53.5869 37.4235C54.4203 36.252 54.6105 36.0727 55.6861 35.189C56.3516 35.0815 57.2518 35.0937 57.8963 34.9454C59.3761 34.6045 60.7883 34.2107 62.2784 33.8886C62.236 32.8862 62.2393 32.0795 62.2696 31.0757C61.2649 31.1302 59.3773 31.0912 58.3364 31.0689C55.721 31.0124 52.919 31.3121 50.4003 30.7437Z" fill="#FDFDFD"/>
<path d="M50.4003 30.7437C49.223 29.6397 45.5984 25.6491 46.1911 23.99C48.8656 23.2867 53.1088 23.9575 55.9373 23.8524C57.5771 23.9212 59.3459 23.6572 60.9698 23.7396C65.4196 23.9654 69.8541 23.766 74.3103 23.824C76.8466 23.857 79.452 23.6069 81.9878 23.7841C82.3495 23.8094 82.6048 24.003 82.8048 24.2886C83.1265 25.4685 81.6126 26.5324 81.1218 27.4012C79.7523 29.744 78.7964 30.5082 76.2004 31.0295C73.9341 31.4845 67.3674 30.5474 65.672 31.2151C65.5688 31.4344 65.5545 33.6945 65.5398 34.0941C67.1468 34.121 70.9819 33.8067 72.4254 34.295C72.6828 34.5924 72.6535 34.9201 72.6869 35.3315C72.3826 35.2542 70.2121 35.21 69.6243 35.1435C68.5375 35.3811 66.9215 36.5904 66.1995 37.4226C64.8435 37.3746 63.79 37.5492 62.4719 37.8801C59.8919 38.7442 58.1051 40.0979 56.826 42.5471C54.6794 46.6577 56.2818 54.3387 61.2528 55.5705L61.4055 55.751C61.3413 56.178 60.7774 56.6474 60.4394 57.0116C59.9816 59.9416 61.1415 59.232 61.2864 60.9802C61.1775 61.2372 61.1253 61.3232 61.0944 61.5971C59.5903 61.6777 59.081 61.4519 57.6141 61.0539C55.1219 60.4252 51.5406 60.913 48.9195 60.8031C48.0743 60.7676 46.7371 60.753 46.8703 59.5107C47.0718 57.6322 48.6124 56.4221 49.9216 55.2682C50.0983 52.4264 49.8621 49.0039 50.2534 46.2801C50.5916 44.459 49.51 45.8242 48.3426 44.9906C45.6805 42.8961 44.8015 41.2211 44.9601 37.7884C45.1195 34.338 49.5464 34.9794 51.904 35.1995C52.185 35.5114 52.4708 35.8187 52.7613 36.1219C53.3088 36.4551 53.2786 36.9136 53.5869 37.4235C54.4203 36.252 54.6105 36.0727 55.6861 35.189C56.3516 35.0815 57.2518 35.0937 57.8963 34.9454C59.3761 34.6045 60.7883 34.2107 62.2784 33.8886C62.236 32.8862 62.2393 32.0795 62.2696 31.0757C61.2649 31.1302 59.3773 31.0912 58.3364 31.0689C55.721 31.0124 52.919 31.3121 50.4003 30.7437Z" fill="#FDFDFD"/>
<path d="M48.3426 44.9906C45.6805 42.8961 44.8015 41.2211 44.9601 37.7884C45.1195 34.338 49.5464 34.9794 51.904 35.1995C52.185 35.5114 52.4708 35.8187 52.7613 36.1219C53.3088 36.4551 53.2786 36.9136 53.5869 37.4235L53.5505 37.5196C53.155 38.5425 52.36 39.7881 51.8973 40.9502C51.4563 42.0579 50.7571 45.5885 50.2534 46.2801C50.5916 44.459 49.51 45.8242 48.3426 44.9906Z" fill="#FDFDFD"/>
<path d="M52.7613 36.1219C53.3088 36.4551 53.2787 36.9136 53.5869 37.4235L53.5505 37.5196C53.155 38.5425 52.36 39.7881 51.8973 40.9503C51.4563 42.0579 50.7572 45.5885 50.2534 46.2801C50.5917 44.459 49.51 45.8243 48.3427 44.9906C48.9598 44.474 49.6958 42.8539 50.0374 42.0818C50.3717 41.3261 49.9107 41.1233 50.1338 40.2704C50.1853 40.2449 50.2368 40.2189 50.2879 40.1926C50.6375 40.013 50.9683 39.8778 51.0875 39.5031C50.6868 39.113 50.369 39.4105 49.896 38.9909C50.267 36.4363 52.0167 39.3988 52.7613 36.1219Z" fill="#4D831E"/>
<path d="M49.896 38.9908C50.369 39.4105 50.6867 39.113 51.0875 39.5031C50.9682 39.8777 50.6375 40.013 50.2878 40.1926C50.2367 40.2188 50.1852 40.2448 50.1337 40.2703C50.1168 40.0601 50.089 40.0472 49.9792 39.8713L49.7347 39.9251C49.279 40.3162 48.9741 40.8995 48.6595 41.4188C48.2003 41.0088 47.0521 40.1052 46.9757 39.5377C47.4116 38.8487 49.2123 39.4315 49.896 38.9908Z" fill="#63AB74"/>
<path d="M57.6141 61.0539C58.9705 60.7527 59.9284 60.9085 61.2864 60.9802C61.1775 61.2372 61.1253 61.3232 61.0944 61.5971C59.5903 61.6777 59.081 61.4519 57.6141 61.0539Z" fill="#A8B5A9"/>
<path d="M66.1995 37.4226C66.9215 36.5904 68.5375 35.3811 69.6242 35.1435C69.6732 36.0406 69.3059 35.7835 69.2619 36.2856C68.5726 36.9952 68.0135 37.3852 68.103 38.4506C68.4035 42.0274 68.5851 45.5919 68.4741 49.1869C68.3605 50.7971 68.4096 52.4731 68.4192 54.0909C68.4245 54.9827 68.1401 55.512 68.1672 56.2807C67.7555 55.9547 67.7529 55.7246 67.603 55.5706C67.3019 55.261 66.7099 55.5857 66.2085 55.2185C66.2529 54.8807 66.411 53.9444 66.3705 53.676C66.313 54.1627 66.0511 54.3957 65.721 54.7225C65.1515 55.2861 65.0617 55.427 64.2672 55.2807C63.3977 55.3455 61.9564 55.3017 61.2527 55.5705C56.2817 54.3387 54.6794 46.6577 56.826 42.5471C58.1051 40.0979 59.8919 38.7442 62.4719 37.8801C63.79 37.5492 64.8435 37.3746 66.1995 37.4226Z" fill="#FDFDFD"/>
<path d="M66.1996 37.4226C66.9216 36.5904 68.5376 35.3811 69.6243 35.1435C69.6733 36.0406 69.3059 35.7835 69.2619 36.2856C68.5727 36.9952 68.0136 37.3852 68.1031 38.4506C68.4036 42.0274 68.5852 45.5919 68.4742 49.1869C68.3606 50.7971 68.4097 52.4731 68.4193 54.0909C68.4246 54.9827 68.1402 55.512 68.1673 56.2807C67.7556 55.9547 67.7529 55.7246 67.6031 55.5706C67.3019 55.261 66.7099 55.5857 66.2086 55.2185C66.2529 54.8807 66.4111 53.9444 66.3706 53.676C66.3164 50.7546 66.8862 40.6497 66.1437 38.4907C66.2376 38.1112 66.2099 37.8116 66.1996 37.4226Z" fill="#1A651D"/>
<path d="M61.2527 55.5705C56.2817 54.3388 54.6794 46.6578 56.826 42.5471C58.1051 40.0979 59.8919 38.7443 62.4719 37.8801L62.4146 38.7539C56.9636 42.1705 55.8011 47.1725 59.109 52.7488C60.2542 54.6793 62.241 54.9385 64.2672 55.2808C63.3977 55.3455 61.9564 55.3018 61.2527 55.5705Z" fill="#3D7315"/>
<path d="M66.1996 37.4226C66.2099 37.8116 66.2375 38.1113 66.1437 38.4908L64.9811 37.8529C64.0186 38.0448 63.2902 38.2846 62.4147 38.7539L62.4719 37.8801C63.79 37.5493 64.8436 37.3746 66.1996 37.4226Z" fill="#4A9D23"/>
<path d="M66.3706 53.676C66.4111 53.9444 66.2529 54.8808 66.2086 55.2185C66.7099 55.5858 67.3019 55.261 67.6031 55.5706C67.7529 55.7246 67.7556 55.9548 68.1673 56.2808C68.1402 55.512 68.4246 54.9828 68.4193 54.0909C68.4097 52.4731 68.3606 50.7971 68.4742 49.1869C68.5043 51.6311 68.4017 54.8771 68.5562 57.2375C68.8594 57.4789 69.2877 57.787 69.5044 58.086C69.9039 58.0581 69.9622 58.0556 70.3154 57.8715C70.5753 57.5868 70.5238 57.2249 70.5236 56.8351L70.5897 56.8529C70.8103 56.8455 70.9314 56.7855 71.1361 56.7104C71.9647 56.7111 72.8861 56.6293 73.6636 56.8241L73.6928 57.6374C74.0341 58.5056 75.2826 58.7781 75.6344 58.0186C75.6389 57.4011 75.6589 56.7838 75.6946 56.1671L75.5499 55.3395C76.5832 55.3053 76.6662 55.7274 77.6969 55.5423C77.6713 56.3044 77.6682 56.777 77.7248 57.541C77.8879 59.8294 82.2713 59.7284 83.9847 59.8721C83.4482 60.4928 82.9442 60.823 82.2868 61.3013C82.0242 62.6384 81.9297 63.1265 82.0552 64.5068C81.4001 64.7598 80.9527 64.8873 80.2406 64.8235C79.3756 64.802 78.5218 65.572 77.8389 65.6275C77.9227 65.6206 75.0693 63.9293 74.9877 63.8688C73.0604 62.4391 72.5707 61.752 70.0626 61.8138C69.1954 62.7153 68.4346 63.2444 67.4907 64.0266C67.1583 64.3021 67.2176 64.5441 66.6726 64.9456C66.3286 64.9728 65.8216 64.9609 65.4648 64.9624C64.3264 64.8095 63.8518 63.5375 62.6252 63.5225C62.1366 63.2179 61.3704 62.1291 61.0944 61.5971C61.1253 61.3233 61.1776 61.2373 61.2864 60.9803C61.1416 59.232 59.9817 59.9416 60.4394 57.0116C60.7774 56.6474 61.3413 56.178 61.4056 55.751L61.2528 55.5705C61.9564 55.3018 63.3978 55.3455 64.2673 55.2808C65.0618 55.427 65.1516 55.2861 65.7211 54.7225C66.0512 54.3958 66.3131 54.1628 66.3706 53.676Z" fill="#7CA20E"/>
<path d="M71.136 56.7104C71.9646 56.7111 72.886 56.6292 73.6635 56.8241L73.6928 57.6373C74.034 58.5056 75.2825 58.7781 75.6344 58.0186C75.5503 58.5897 75.647 58.521 75.3186 58.8967C74.5969 59.0411 74.5239 58.465 73.7181 58.537C71.3825 58.7457 71.0739 60.7461 69.5044 58.086C69.9039 58.0581 69.9621 58.0556 70.3154 57.8715C70.5753 57.5867 70.5238 57.2248 70.5235 56.8351L70.5896 56.8528C70.8103 56.8455 70.9314 56.7855 71.136 56.7104Z" fill="#FEF4C1"/>
<path d="M71.136 56.7104C71.9646 56.7111 72.886 56.6292 73.6635 56.8241L73.6927 57.6373C72.7446 57.6375 71.2954 57.91 70.6384 57.3839L70.5896 56.8528C70.8102 56.8455 70.9314 56.7855 71.136 56.7104Z" fill="#4D831E"/>
<path d="M75.5499 55.3395C76.5832 55.3053 76.6662 55.7274 77.6969 55.5423C77.6713 56.3044 77.6682 56.777 77.7248 57.541C77.2832 57.5859 76.5324 57.6823 76.1494 57.5108C75.7004 57.0479 75.7577 56.853 75.6946 56.1671L75.5499 55.3395Z" fill="#4D831E"/>
<path d="M70.6172 53.5995C71.6139 53.5154 72.8933 53.225 73.6117 53.8166C73.8624 54.1594 73.7693 54.704 73.746 55.1485C73.681 55.7714 73.6267 56.1909 73.6635 56.8241C72.886 56.6292 71.9647 56.7111 71.136 56.7104C70.9314 56.7855 70.8103 56.8455 70.5897 56.8529L70.5235 56.8351C70.4965 55.8389 70.4277 54.5547 70.6172 53.5995Z" fill="#4A9D23"/>
<path d="M70.6171 53.5995C71.6138 53.5154 72.8932 53.225 73.6116 53.8166C73.8623 54.1594 73.7692 54.704 73.746 55.1485C72.7632 55.0897 72.0043 54.8444 71.1401 55.2239C70.4336 54.7989 70.592 54.3647 70.6171 53.5995Z" fill="#3D7315"/>
<path d="M75.5498 55.3395C75.0552 55.1859 75.1972 55.3044 74.9597 54.9303C74.9357 53.4824 76.7235 53.4881 77.7025 53.5768C77.7075 54.2319 77.7056 54.8871 77.6968 55.5423C76.6661 55.7274 76.5831 55.3053 75.5498 55.3395Z" fill="#3D7315"/>
<path d="M69.6242 35.1435C70.2121 35.21 72.3826 35.2542 72.6868 35.3315L72.8543 35.8585C71.6927 35.876 70.2998 35.8049 69.2618 36.2856C69.3058 35.7835 69.6732 36.0406 69.6242 35.1435Z" fill="#0D2E1C"/>
<path d="M69.8498 39.1929C71.3017 39.0358 73.5313 39.1084 75.0223 39.1183L82.8741 39.1728C82.8836 40.1045 82.9431 42.3863 82.8096 43.2256L82.6212 43.3555C79.6182 43.7813 72.7702 43.4144 69.7486 43.1236C69.6271 42.189 69.5414 40.0679 69.8498 39.1929Z" fill="#4D831E"/>
<path d="M79.7197 53.537C80.6901 53.4678 81.8691 53.4991 82.8581 53.5015C82.8721 54.5753 82.8638 55.4444 82.8007 56.515C82.5521 56.7318 82.096 57.0436 81.8148 57.2489C78.8311 58.721 78.9208 54.5209 79.7197 53.537Z" fill="#3D7315"/>
<path d="M80.0717 49.4224C80.9564 49.3576 81.8991 49.4073 82.7906 49.4348L82.9028 51.3091C82.9326 51.7818 82.8579 52.03 82.5679 52.3603L81.9062 52.399C81.2011 52.4144 79.5613 52.5448 79.065 52.2166C78.9203 51.5873 79.5952 49.7693 80.0717 49.4224Z" fill="#1A651D"/>
<path d="M75.3984 45.535C76.5185 45.4419 78.4117 45.2004 78.8678 46.5014C78.8218 47.2351 78.4055 47.5618 77.8804 48.043C75.6385 49.1888 73.4822 46.5438 75.3984 45.535Z" fill="#4D831E"/>
<path d="M71.5523 49.284C72.2201 49.2526 72.9208 49.3761 73.5867 49.4677C73.7443 50.3307 73.9266 51.2763 73.7001 52.1121C73.4128 52.4502 73.5128 52.3498 72.9658 52.421L70.5443 52.3923C70.4911 51.6936 70.2763 50.2607 70.6435 49.6571C70.8358 49.341 71.1992 49.3495 71.5523 49.284Z" fill="#4D831E"/>
<path d="M70.7711 45.368C71.6747 45.264 72.6898 45.3535 73.6062 45.4068C73.6236 46.1154 73.8306 47.4554 73.4966 48.0784C73.4117 48.2369 73.1468 48.2423 72.9265 48.2895C71.9672 48.3831 71.5583 48.346 70.635 48.2151C70.4238 47.7924 70.165 47.3355 69.9391 46.9149C70.3358 46.2971 70.472 46.0316 70.7711 45.368Z" fill="#4D831E"/>
<path d="M79.8887 45.3699C81.0702 45.3294 81.5219 45.3942 82.6403 45.6439C82.7359 46.2847 83.0057 47.706 82.7197 48.2467C81.5928 48.355 80.9359 48.3376 79.8117 48.2632C79.7504 47.1419 79.7813 46.482 79.8887 45.3699Z" fill="#1A651D"/>
<path d="M76.0396 49.2675C76.5234 49.2721 77.2377 49.3845 77.7359 49.4474L77.7451 52.4073L76.1746 52.4143C73.602 51.7049 74.949 50.56 76.0396 49.2675Z" fill="#4D831E"/>
<path d="M30.8423 72.4475C29.0904 71.8415 27.3307 71.1856 25.9185 69.9469C24.5 68.7279 26.1499 66.5213 27.812 66.8664C30.0277 67.3264 32.3942 67.951 34.561 68.6615C34.9072 68.775 35.5143 68.8376 35.7744 68.5759C35.9397 67.4206 34.1744 63.763 34.6244 61.9591C34.5868 61.004 34.6905 59.562 35.4775 58.8764C37.8019 56.8518 41.2947 62.8633 42.3055 64.4136C43.0848 65.6088 43.3235 67.021 44.4949 68.27L44.7942 68.5534C45.1195 68.7211 45.5397 68.9708 45.8833 69.0253C46.1772 69.8158 46.342 70.5696 47.0533 71.0186C46.9719 71.4003 47.0463 71.2593 46.7504 71.5454C46.4242 71.6059 46.2909 71.6323 45.9603 71.6299L45.0699 71.2656C45.0742 71.5035 45.0644 72.0075 45.1258 72.213C45.0679 72.9484 44.9678 73.6608 45.1175 74.3811C44.7384 74.7161 44.4208 74.9966 44.0149 75.2975C43.2748 75.8129 42.3588 76.0661 41.748 76.5458C41.3714 76.8575 41.2192 76.9606 40.9594 77.3791C39.8698 76.7293 38.3009 76.0671 37.1137 75.5413C36.9629 75.1023 36.861 74.6943 36.5575 74.3451L36.2242 74.439C36.3185 74.088 36.323 74.2313 36.2182 73.8941C35.9627 74.089 35.8252 74.1221 35.7403 74.3858C35.3298 73.8646 33.5033 73.1803 32.781 73.0656C32.001 72.9665 31.5398 72.7565 30.8423 72.4475Z" fill="url(#paint7_linear_1_327)"/>
<path d="M41.237 70.8783C41.4653 70.8828 42.132 70.8894 42.2891 70.8173C43.1578 70.4185 43.932 69.9111 44.6384 70.9324C44.6701 70.9784 44.7059 70.9999 44.7673 71.0479L45.0699 71.2656C45.0741 71.5035 45.0644 72.0075 45.1258 72.213C45.0679 72.9484 44.9678 73.6608 45.1175 74.3811C44.7384 74.7161 44.4208 74.9966 44.0149 75.2975C43.2748 75.8129 42.3588 76.0661 41.748 76.5458C41.3714 76.8575 41.2191 76.9606 40.9594 77.3791C39.8698 76.7293 38.3009 76.0671 37.1136 75.5413C36.9629 75.1023 36.861 74.6943 36.5575 74.3451L36.2241 74.439C36.3185 74.088 36.323 74.2313 36.2181 73.8941C37.7883 72.5611 39.2578 71.485 41.237 70.8783Z" fill="#EE7E08"/>
<path d="M44.7941 68.5533C45.1195 68.7211 45.5396 68.9707 45.8833 69.0252C46.1771 69.8157 46.342 70.5696 47.0533 71.0186C46.9719 71.4002 47.0463 71.2592 46.7504 71.5453C46.4241 71.6058 46.2909 71.6322 45.9603 71.6298L45.0699 71.2656L44.7673 71.0478C44.595 70.1095 44.7408 69.5072 44.7941 68.5533Z" fill="#698F17"/>
<path d="M44.4949 68.27L44.7942 68.5534C44.7408 69.5073 44.5951 70.1095 44.7673 71.0479C44.7059 70.9999 44.6702 70.9784 44.6384 70.9324C43.9321 69.9111 43.1578 70.4185 42.2892 70.8173C42.1321 70.8894 41.4653 70.8828 41.2371 70.8783C41.6503 70.7778 42.1089 70.604 42.5158 70.4615L43.1197 68.9482C43.7123 68.7159 43.9486 68.5974 44.4949 68.27Z" fill="#CCA22F"/>
<path d="M30.8423 72.4475C31.3387 72.3404 31.896 72.0969 32.3115 72.2224C32.6464 72.4716 32.6664 72.6723 32.781 73.0656C32.001 72.9665 31.5398 72.7565 30.8423 72.4475Z" fill="#3D7315"/>
<path d="M58.3301 17.6774C58.2831 17.0641 58.1832 16.3397 58.2888 15.7367C58.5476 14.2594 60.2961 15.1266 60.5909 13.5799C60.7263 12.87 60.3551 12.0394 60.4896 11.394C60.5512 11.0876 60.7432 10.8232 61.0154 10.6696C61.9944 10.1227 63.5027 11.895 63.1191 12.8437C62.9149 13.3487 62.6817 13.8387 62.5352 14.362C62.7621 14.4855 64.3248 13.7585 64.7487 13.6669C67.0011 13.18 67.6527 15.8421 69.3453 16.811C69.5384 17.4022 69.4791 17.6754 69.3056 18.2836C69.4808 18.4289 69.6839 18.6072 69.8689 18.7341L69.4659 19.8766C68.8397 19.7755 68.9258 19.8946 68.6361 19.4995C68.3314 20.2056 68.0368 20.8956 67.7019 21.5886L67.8098 21.7015C67.5321 22.2047 67.3372 22.5594 66.7287 22.6852C65.4427 22.9512 61.7644 23.2802 60.9313 22.1556C60.1138 21.0696 59.2888 19.0231 58.3301 17.6774Z" fill="#FDFDFD"/>
<path d="M60.9313 22.1556C61.0841 22.1587 61.6808 22.0682 61.9218 22.0599C63.1423 22.017 66.8266 22.1875 67.7019 21.5886L67.8098 21.7015C67.532 22.2047 67.3371 22.5594 66.7286 22.6852C65.4426 22.9512 61.7644 23.2802 60.9313 22.1556Z" fill="#E0F5E9"/>
<path d="M69.3055 18.2836C69.4807 18.4289 69.6839 18.6073 69.8689 18.7341L69.4659 19.8766C68.8396 19.7755 68.9257 19.8946 68.636 19.4995C68.8687 18.9564 68.9446 18.7431 69.3055 18.2836Z" fill="#63AB74"/>
<path d="M103.883 62.6366C104.621 62.6214 105.838 62.4589 106.338 62.9115C106.43 63.2598 106.313 63.4798 106.141 63.7786C104.719 66.2491 101.746 67.3583 99.0698 67.9908C98.9479 68.0201 98.8254 68.0471 98.7026 68.0719C97.7483 69.4176 94.2097 71.1768 94.3227 72.917C94.3788 72.9704 94.4351 73.0236 94.4912 73.077C96.1778 73.0501 97.8629 73.0716 99.5497 73.0349C101.474 72.993 103.402 72.8594 105.327 72.9759C105.682 72.9974 106.022 73.0433 106.348 73.1931C106.953 74.4831 103.831 77.3066 102.681 77.8213C101.532 78.3353 99.4163 77.7864 98.2533 77.4493C97.8154 77.079 98.0038 75.5354 96.6648 75.3973L96.4411 75.6454C95.4756 75.5641 94.9053 75.0983 94.0077 74.8415C93.4913 75.2703 93.0014 75.6711 92.5134 76.1343L91.9723 75.6909C92.4768 74.462 91.0537 72.3731 90.5177 71.1073L90.6018 70.9028C90.7964 71.2003 90.8656 71.3519 91.1588 71.5593C92.5638 70.3459 91.7901 70.8534 92.1402 69.1781L92.1627 69.0731C92.2692 69.8545 92.2736 70.2843 92.2748 71.067C94.2434 68.7824 98.3755 67.0016 100.847 65.3273C102.037 64.5213 102.421 63.4621 103.883 62.6366Z" fill="#3D7315"/>
<path d="M26.4832 98.8001C27.1772 99.4537 28.1639 100.425 27.5935 101.464C25.5672 102.849 20.4996 96.1881 20.5114 94.5015C20.5221 92.9802 27.2899 91.7114 28.5861 91.3256C28.941 91.2201 30.1362 91.2719 30.5294 91.2911C32.3239 91.8801 31.5891 95.0514 31.801 96.4524C30.095 97.9969 28.7147 98.612 26.4832 98.8001Z" fill="url(#paint8_linear_1_327)"/>
<path d="M87.623 68.7617L88.0142 68.6454C88.135 68.2872 87.9185 66.1772 88.0742 65.2066C88.2068 64.386 88.5085 63.602 88.9602 62.9042C89.7135 61.7176 90.8284 60.9422 91.7474 59.8166C92.7719 58.5616 95.6467 56.0082 96.9422 58.459C98.4138 61.2431 95.9374 62.512 94.3283 64.2002C93.5118 65.1482 92.5883 67.7671 92.1628 69.0731L92.1403 69.1781C91.7902 70.8534 92.5639 70.3459 91.1589 71.5592C90.8657 71.3519 90.7965 71.2002 90.6019 70.9027L90.5178 71.1072C89.1674 69.349 88.4049 69.8801 87.623 68.7617Z" fill="#4D831E"/>
<path d="M73.068 12.5911C74.792 13.9121 75.2919 14.4194 73.8827 16.1041C73.6398 16.3945 73.8349 17.1426 74.178 17.2791C75.9214 18.3235 77.5763 19.7361 77.8835 21.8668C77.892 21.9256 77.9002 21.9845 77.9079 22.0435C77.7182 22.6808 77.5493 22.8369 76.8334 22.8696C74.8042 22.9628 72.669 22.8631 70.6424 22.8335C70.2107 22.8646 69.2779 22.7701 68.8095 22.7358C68.5232 22.2833 68.3159 21.8503 67.8098 21.7015L67.7019 21.5886C68.0368 20.8956 68.3314 20.2056 68.636 19.4995C68.9258 19.8946 68.8397 19.7755 69.4659 19.8766L69.8689 18.7341C69.6839 18.6073 69.4808 18.4289 69.3055 18.2836C69.479 17.6754 69.5384 17.4023 69.3453 16.811L69.5235 16.6571C69.4963 16.0815 69.3974 15.5015 69.833 15.1104C71.1328 13.943 71.7933 13.9874 73.068 12.5911Z" fill="#FDFDFD"/>
<path d="M67.7019 21.5886C68.0368 20.8956 68.3314 20.2056 68.636 19.4995C68.9258 19.8946 68.8397 19.7755 69.4659 19.8766C69.213 20.7049 68.8508 22.0496 70.2079 22.0326C72.0237 21.9906 74.0213 22.1839 75.8449 22.2731C76.296 22.2953 77.2625 22.2304 77.5948 22.2851L77.9079 22.0435C77.7182 22.6808 77.5493 22.8369 76.8334 22.8696C74.8042 22.9628 72.669 22.8631 70.6424 22.8335C70.2107 22.8646 69.2779 22.7701 68.8095 22.7358C68.5232 22.2833 68.3159 21.8503 67.8098 21.7015L67.7019 21.5886Z" fill="#E0F5E9"/>
<path d="M67.7019 21.5886C68.0368 20.8956 68.3314 20.2056 68.636 19.4995C68.9258 19.8946 68.8397 19.7755 69.4659 19.8766C69.213 20.7049 68.8508 22.0496 70.2079 22.0326C69.6414 22.0768 69.3232 22.0055 68.8907 22.2764L68.9652 22.439C69.4847 22.6078 70.5625 22.6816 70.6424 22.8335C70.2107 22.8646 69.2779 22.7701 68.8095 22.7358C68.5232 22.2833 68.3159 21.8503 67.8098 21.7015L67.7019 21.5886Z" fill="#B2E2C6"/>
<path d="M69.5235 16.6571L69.6119 16.678C70.4047 16.8592 71.7443 16.8691 72.5697 16.8729C71.5767 17.5905 70.836 17.1512 69.8689 18.7341C69.6839 18.6072 69.4808 18.4289 69.3055 18.2836C69.479 17.6754 69.5384 17.4022 69.3453 16.811L69.5235 16.6571Z" fill="#63AB74"/>
<path d="M54.511 17.4685C54.4452 16.5225 54.1466 14.137 55.7907 14.2944C56.4743 14.8939 55.9636 16.647 56.4327 17.3917C57.2762 17.9865 57.8836 17.0986 58.2097 18.3734C58.3767 19.0264 58.9386 19.8541 59.2635 20.4732C59.3753 21.1645 59.5008 21.7644 59.2481 22.4235C58.5058 23.1154 51.618 23.0641 50.803 22.4621C50.3337 19.6469 51.6113 17.7309 54.511 17.4685Z" fill="#FDFDFD"/>
<path d="M59.2635 20.4733C59.3754 21.1645 59.5009 21.7644 59.2481 22.4235C58.5059 23.1154 51.618 23.0641 50.803 22.4621C51.6995 21.7789 57.7287 21.9853 59.2069 21.9845L59.2635 20.4733Z" fill="#B2E2C6"/>
<path d="M100.38 92.8307C101.332 92.2159 101.676 92.2607 102.787 92.24C103.75 92.3081 104.587 92.6917 105.136 93.4816C107.082 96.2831 104.895 96.6694 102.8 96.4899C101.468 96.3099 100.556 96.3405 99.2247 96.4295L98.9434 96.3154C98.8547 95.7344 99.9975 93.3337 100.38 92.8307Z" fill="#FCA221"/>
<path d="M100.38 92.8307C101.332 92.2159 101.676 92.2607 102.787 92.24C102.485 92.3251 102.293 92.3087 102.185 92.574C101.769 93.6019 102.804 95.5647 102.8 96.4899C101.468 96.3099 100.556 96.3405 99.2247 96.4295L98.9434 96.3154C98.8547 95.7344 99.9975 93.3337 100.38 92.8307Z" fill="#CCA22F"/>
<defs>
<linearGradient id="paint0_linear_1_327" x1="60.1161" y1="107.703" x2="30.29" y2="76.2064" gradientUnits="userSpaceOnUse">
<stop stop-color="#865C27"/>
<stop offset="1" stop-color="#AD713C"/>
</linearGradient>
<linearGradient id="paint1_linear_1_327" x1="78.8946" y1="71.6934" x2="86.4718" y2="80.097" gradientUnits="userSpaceOnUse">
<stop stop-color="#E37300"/>
<stop offset="1" stop-color="#C64002"/>
</linearGradient>
<linearGradient id="paint2_linear_1_327" x1="81.8538" y1="86.9799" x2="79.3703" y2="79.8333" gradientUnits="userSpaceOnUse">
<stop stop-color="#A69100"/>
<stop offset="1" stop-color="#FFD907"/>
</linearGradient>
<linearGradient id="paint3_linear_1_327" x1="45.4048" y1="83.1213" x2="42.1028" y2="77.7223" gradientUnits="userSpaceOnUse">
<stop stop-color="#F2591C"/>
<stop offset="1" stop-color="#FF9C4F"/>
</linearGradient>
<linearGradient id="paint4_linear_1_327" x1="53.7381" y1="69.932" x2="47.1611" y2="65.7605" gradientUnits="userSpaceOnUse">
<stop stop-color="#E16E01"/>
<stop offset="1" stop-color="#FF9104"/>
</linearGradient>
<linearGradient id="paint5_linear_1_327" x1="55.3368" y1="111.653" x2="57.0911" y2="111.715" gradientUnits="userSpaceOnUse">
<stop stop-color="#EB6F0C"/>
<stop offset="1" stop-color="#D85608"/>
</linearGradient>
<linearGradient id="paint6_linear_1_327" x1="57.2061" y1="86.0271" x2="52.4816" y2="78.8871" gradientUnits="userSpaceOnUse">
<stop stop-color="#E84404"/>
<stop offset="1" stop-color="#FF9B51"/>
</linearGradient>
<linearGradient id="paint7_linear_1_327" x1="28.986" y1="62.733" x2="42.3129" y2="70.6646" gradientUnits="userSpaceOnUse">
<stop stop-color="#689600"/>
<stop offset="1" stop-color="#44782E"/>
</linearGradient>
<linearGradient id="paint8_linear_1_327" x1="26.7211" y1="101.421" x2="25.881" y2="91.7159" gradientUnits="userSpaceOnUse">
<stop stop-color="#D59025"/>
<stop offset="1" stop-color="#FBA82A"/>
</linearGradient>
</defs>
</svg>
