<svg width="144" height="144" viewBox="0 0 144 144" fill="none" xmlns="http://www.w3.org/2000/svg">
<g clip-path="url(#clip0_1_487)">
<path d="M104.005 48.8919C104.186 48.5968 104.293 48.6238 104.657 48.4634C104.558 50.3021 105.776 51.6781 106.811 53.19C107.216 53.6259 108.167 54.585 108.409 55.0516C110.105 55.6273 111.009 56.086 112.774 56.4629L112.9 56.4891C113.222 56.8188 113.488 57.0503 113.687 57.4677L113.745 57.512C114.85 58.3369 115.949 58.4668 117.175 58.9868C118.8 59.6765 120.75 60.7498 122.148 61.8258C127.021 65.5747 128.922 72.6755 131.293 78.1294C132.37 80.6068 133.47 81.9613 134.027 84.7784C133.908 85.2625 133.817 85.8584 133.495 86.2189C133.147 87.1776 133.307 87.5196 133.643 88.5016C135.333 91.7887 135.82 96.6469 135.394 100.311C134.411 100.676 134.275 101.976 133.557 102.687C130.673 105.543 126.711 107.415 123.167 109.335C122.185 109.867 121.104 110.229 120.041 110.542C119.996 110.622 119.951 110.701 119.906 110.78L119.97 111.47C120.083 114.256 120.277 117.085 119.649 119.826C119.366 121.058 119.248 122.758 118.738 123.866C118.812 124.489 118.964 126.282 119.268 126.728L119.493 126.79C118.631 126.921 117.983 127.376 117.128 127.521C105.369 129.447 93.4961 130.607 81.5859 130.993C78.9989 131.076 75.4054 131.294 72.8921 131.221C73.6723 126.65 73.9285 123.093 74.0478 118.476C74.125 115.49 74.9294 112.31 74.943 109.187C74.1758 109.11 73.7343 108.621 73.8511 107.854C74.038 106.899 73.9328 103.489 74.0409 102.237C74.1313 101.189 74.637 98.098 74.4844 97.4099L74.173 97.4137C73.9322 96.9987 75.3119 94.1726 75.5436 93.1967C75.2132 92.8624 74.9139 91.0512 74.8975 90.4971C74.5294 89.6677 68.6131 86.658 67.5152 86.0796C67.2054 85.9165 66.2182 85.7862 65.7906 85.6761L65.7272 85.6592C65.1509 84.8821 64.6041 84.0695 64.0129 83.2764C67.9891 75.8434 71.7244 59.6999 81.7775 58.6067C82.4368 57.9379 85.4488 56.3879 86.2725 56.2939C87.4752 55.7335 87.7833 55.1111 89.2532 55.0446L89.3867 54.7376L89.4339 54.6113C89.8282 54.8111 93.4505 54.4662 94.1524 54.4119C94.907 54.4635 95.7969 54.3721 96.5378 54.2396L96.6974 54.0626C96.8133 53.8325 96.9355 53.6915 97.0913 53.4905C97.5102 53.2156 97.9841 53.2845 98.4964 53.2919C98.7951 53.2672 98.6939 53.2843 98.9656 53.1014C99.3263 52.1945 99.9301 52.0196 100.743 51.4772C101.964 50.663 102.936 49.8998 104.005 48.8919ZM117.819 95.1878L118.145 98.3341C118.52 98.082 120.289 96.3087 120.569 95.8269C121.18 94.7798 121.04 93.8088 120.72 92.6671C120.253 92.0195 120.058 91.3686 119.889 90.6034C119.835 90.1814 119.827 90.117 119.631 89.7414C119.186 89.6241 119.21 89.7159 118.684 89.9176C117.862 91.1985 117.897 93.6063 117.819 95.1878Z" fill="url(#paint0_linear_1_487)"/>
<path d="M113.687 57.4677L113.745 57.5119C114.85 58.3369 115.949 58.4668 117.175 58.9868C118.8 59.6764 120.75 60.7498 122.148 61.8258C127.021 65.5747 128.922 72.6755 131.293 78.1294C132.37 80.6068 133.47 81.9613 134.027 84.7784C133.908 85.2625 133.816 85.8584 133.495 86.2189C133.147 87.1776 133.307 87.5196 133.642 88.5016C133.588 88.4838 132.383 88.0225 132.528 88.0063C130.232 88.2627 128.182 88.9082 126.064 89.9685C124.759 90.6225 122.595 91.7195 121.094 92.1947C121.094 92.1947 120.751 92.6273 120.72 92.6671C120.252 92.0195 120.058 91.3685 119.889 90.6034C119.835 90.1814 119.827 90.117 119.631 89.7414C119.186 89.6241 119.21 89.7159 118.684 89.9176C117.862 91.1985 117.897 93.6063 117.819 95.1878C116.414 94.1875 114.8 92.5025 113.997 90.9586C111.67 86.3294 110.103 79.4139 110.215 74.1801C110.271 71.5323 111.265 66.8846 111.803 64.187C112.284 61.7765 113.456 60.2671 113.687 57.4677Z" fill="#C9B58C"/>
<path d="M119.889 90.6034C121.954 90.8883 128.965 87.694 131.222 87.0386C132.07 86.7925 132.546 86.2869 133.495 86.2189C133.147 87.1777 133.307 87.5196 133.643 88.5016C133.588 88.4838 132.383 88.0225 132.528 88.0064C130.232 88.2627 128.182 88.9082 126.065 89.9685C124.759 90.6225 122.595 91.7196 121.094 92.1947C121.094 92.1947 120.751 92.6273 120.72 92.6671C120.253 92.0195 120.058 91.3686 119.889 90.6034Z" fill="#E1893C"/>
<path d="M116.164 78.9861C116.584 80.7287 116.911 81.9451 117.51 83.6568C118.171 85.2127 118.631 86.0962 118.509 87.8605C118.464 88.5122 118.177 89.5217 118.684 89.9176C117.862 91.1985 117.897 93.6063 117.819 95.1878C116.414 94.1875 114.8 92.5025 113.998 90.9586C114.811 91.5827 116.787 93.9511 117.703 94.8497C117.779 92.9089 117.163 92.042 118.187 90.2067C118.56 89.7885 117.165 88.1093 117.208 87.9591C117.297 87.6442 117.596 85.119 117.653 84.9811C117.414 84.5126 117.338 84.1592 116.814 84.0393C116.299 84.8397 117.351 89.782 117.528 90.8455L117.334 90.9454L117.089 90.7968C116.809 89.5716 116.807 88.2842 116.655 87.0319C116.37 84.686 116.149 82.2733 115.648 79.9664C115.792 79.2152 115.646 79.4379 116.164 78.9861Z" fill="#A39366"/>
<path d="M115.648 79.9664C114.54 75.6685 115.743 74.4016 115.99 70.1633C116.289 69.7646 116.136 69.8525 116.55 69.7722C116.809 70.1973 116.468 72.1499 116.363 72.7147C115.938 75.0016 115.815 76.6835 116.164 78.9861C115.646 79.4379 115.792 79.2152 115.648 79.9664Z" fill="url(#paint1_linear_1_487)"/>
<path d="M120.72 92.6671C120.751 92.6273 121.094 92.1947 121.094 92.1947C122.595 91.7196 124.758 90.6225 126.064 89.9685C128.182 88.9082 130.232 88.2627 132.528 88.0063C132.383 88.0225 133.588 88.4838 133.642 88.5016C135.333 91.7887 135.82 96.6469 135.394 100.311C134.411 100.676 134.275 101.976 133.557 102.687C130.673 105.543 126.711 107.415 123.167 109.335C122.185 109.867 121.104 110.229 120.041 110.542C119.996 110.622 119.951 110.701 119.906 110.78C118.956 110.892 117.463 111.023 116.574 111.225C115.423 111.781 114.458 113.193 113.542 114.152C110.834 116.985 106.055 118.836 102.228 119.238C100.173 117.874 98.9735 116.525 97.8904 114.31C97.8978 114.023 97.5198 113.549 97.3436 113.028L96.4365 112.129C95.5518 111.194 96.1697 108.895 96.5606 107.801C97.1757 106.078 98.1908 104.504 99.8787 103.682C100.889 103.041 103.291 102.231 104.721 101.452C106.762 103.093 108.741 103.568 111.04 105.988C113.329 104.006 116.262 100.712 118.145 98.3341C118.52 98.082 120.289 96.3087 120.569 95.8269C121.18 94.7798 121.04 93.8088 120.72 92.6671Z" fill="#EE9E52"/>
<path d="M99.9075 105.827C101.18 106.143 101.975 106.467 102.787 107.605C102.356 107.607 102.301 107.592 101.898 107.436C100.692 108.11 98.7978 108.698 97.1875 109.544C96.4573 108.519 97.7453 107.928 98.3521 107.468L98.4644 107.382L98.2813 107.268C98.0344 106.396 99.2623 106.048 99.9075 105.827Z" fill="#EE9E52"/>
<path d="M99.9076 105.827C101.18 106.143 101.975 106.467 102.788 107.605C102.356 107.607 102.301 107.592 101.898 107.436C101.14 105.972 99.6685 106.912 98.4645 107.382L98.2814 107.268C98.0344 106.396 99.2624 106.048 99.9076 105.827Z" fill="#6D401C"/>
<path d="M96.4365 112.129C95.5518 111.194 96.1697 108.895 96.5606 107.801C97.1757 106.079 98.1908 104.505 99.8787 103.682C99.4202 104.563 97.3092 106.199 97.2595 107.047C98.5516 106.838 98.3712 105.267 99.9074 105.827C99.2622 106.048 98.0342 106.396 98.2812 107.268L98.4643 107.382L98.3519 107.468C97.7451 107.928 96.4571 108.519 97.1874 109.544C97.0445 110.218 96.3777 110.968 97.0579 111.489L96.4365 112.129Z" fill="#BE7A2F"/>
<path d="M97.1874 109.544C98.7977 108.698 100.692 108.11 101.898 107.436C102.301 107.592 102.356 107.607 102.787 107.605C101.77 107.756 97.9804 110.705 97.0579 111.489C96.3777 110.968 97.0446 110.218 97.1874 109.544Z" fill="#AB6218"/>
<path d="M97.3438 113.028C98.8761 112.489 100.289 111.792 101.761 111.118C102.546 110.759 103.549 110.152 104.338 109.957C104.291 110.147 104.345 110.075 104.214 110.199L104.097 110.008L104.126 110.273L104.022 110.031L104.051 110.332C103.748 110.551 103.003 111.093 102.698 111.23C101.466 111.782 98.3381 112.936 97.8905 114.31C97.898 114.023 97.52 113.549 97.3438 113.028Z" fill="#904215"/>
<path d="M106.01 113.627C106.117 113.786 106.079 113.693 106.028 113.958C105.197 114.726 102.164 116.376 101.048 116.699C101.014 116.657 100.98 116.614 100.947 116.572C102.626 115.632 104.34 114.598 106.01 113.627Z" fill="#904215"/>
<path d="M124.405 93.9568C125.17 93.9063 126.155 93.71 126.703 94.3343C126.313 95.0408 125.054 94.7184 124.383 94.6277L124.405 93.9568Z" fill="#904215"/>
<path d="M124.383 94.6277C123.785 94.6488 123.095 94.7573 122.645 94.3868L122.743 94.166C123.223 93.8836 123.838 93.9511 124.405 93.9568L124.383 94.6277Z" fill="#AB6218"/>
<path d="M104.005 48.8919C104.186 48.5968 104.293 48.6238 104.657 48.4634C104.558 50.3021 105.776 51.6781 106.811 53.19C107.216 53.6259 108.167 54.585 108.409 55.0516C108.098 57.3114 106.887 62.8447 106.019 64.941C105.237 67.8919 104.74 70.9111 104.534 73.9571C97.2805 74.125 91.5466 74.4734 84.3738 72.8726C84.8709 69.8719 84.8592 67.7203 84.9955 64.7142C85.2213 62.5335 86.3428 58.4056 86.2725 56.2939C87.4753 55.7335 87.7834 55.1111 89.2532 55.0446L89.3868 54.7376L89.4339 54.6113C89.8282 54.8111 93.4506 54.4662 94.1524 54.4119C94.907 54.4635 95.7969 54.3721 96.5378 54.2396L96.6974 54.0626C96.8133 53.8325 96.9355 53.6915 97.0913 53.4905C97.5103 53.2156 97.9842 53.2845 98.4965 53.2919C98.7952 53.2672 98.6939 53.2843 98.9656 53.1014C99.3263 52.1945 99.9301 52.0196 100.743 51.4772C101.964 50.663 102.936 49.8998 104.005 48.8919Z" fill="#C9B58C"/>
<path d="M104.005 48.8919C104.186 48.5968 104.293 48.6238 104.657 48.4634C104.558 50.3021 105.776 51.6781 106.811 53.19C107.216 53.6259 108.167 54.585 108.409 55.0516C108.098 57.3114 106.887 62.8447 106.019 64.941L105.024 64.9991L104.939 65.2683C104.232 65.2576 101.347 63.3663 100.512 62.89C100.441 62.855 100.045 62.5777 99.9546 62.5162C100.148 62.4506 100.275 62.372 100.452 62.2741L100.407 62.1546L100.035 62.2256L99.8572 62.0301L99.0176 62.5538C98.6227 63.063 97.5674 64.3507 97.2707 64.8315C97.13 65.2328 96.9847 65.6323 96.8346 66.0303C96.9487 66.2601 96.8719 66.2058 97.0488 66.3279C96.6047 66.7851 95.3049 67.4307 94.6689 67.5593L94.4205 67.1957L94.6678 67.0109C94.293 66.7495 92.9975 63.973 92.6415 63.3257C92.1707 61.981 91.7588 60.8488 91.1971 59.5294C91.3896 58.2269 90.8682 57.8389 90.1308 56.6785C90.2268 55.7637 89.9547 55.4649 89.3867 54.7376L89.4338 54.6113C89.8281 54.8111 93.4505 54.4662 94.1524 54.4119C94.907 54.4635 95.7968 54.3721 96.5378 54.2396L96.6974 54.0626C96.8133 53.8325 96.9355 53.6915 97.0913 53.4905C97.5102 53.2156 97.9841 53.2845 98.4964 53.2919C98.7951 53.2672 98.6938 53.2843 98.9655 53.1014C99.3262 52.1945 99.9301 52.0196 100.743 51.4772C101.964 50.663 102.936 49.8998 104.005 48.8919Z" fill="#E1893C"/>
<path d="M99.0176 62.5538C99.2815 61.1738 105.544 53.7642 106.811 53.19C107.216 53.6259 108.167 54.585 108.409 55.0516C108.098 57.3114 106.887 62.8448 106.019 64.9411L105.024 64.9991L104.939 65.2683C104.232 65.2576 101.347 63.3663 100.512 62.89C100.441 62.855 100.045 62.5777 99.9546 62.5163C100.148 62.4506 100.275 62.372 100.452 62.2741L100.407 62.1546L100.035 62.2256L99.8573 62.0301L99.0176 62.5538Z" fill="#C9B58C"/>
<path d="M99.8572 62.0301C100.219 61.9343 100.441 61.8166 100.803 62.0645C102.139 62.978 103.421 64.5765 105.024 64.9991L104.939 65.2683C104.232 65.2576 101.347 63.3663 100.512 62.89C100.44 62.855 100.045 62.5777 99.9545 62.5162C100.148 62.4506 100.275 62.372 100.451 62.2741L100.407 62.1545L100.035 62.2256L99.8572 62.0301Z" fill="#66714E"/>
<path d="M89.4338 54.6113C89.8281 54.8111 93.4505 54.4661 94.1524 54.4119L93.489 54.6522C93.8666 54.8433 94.1694 54.4833 94.6541 54.7759L94.5366 54.9503C94.336 54.9775 93.9676 55.0038 93.8059 55.089C92.6948 55.3321 90.9917 55.4161 90.3288 56.1075L90.1308 56.6785C90.2268 55.7637 89.9547 55.4649 89.3867 54.7376L89.4338 54.6113Z" fill="#9B5C23"/>
<path d="M104.005 48.892L104.106 49.0164C103.379 50.0226 100.24 53.0367 99.2986 53.244L98.9656 53.1014C99.3263 52.1945 99.9301 52.0196 100.743 51.4772C101.964 50.663 102.936 49.8998 104.005 48.892Z" fill="#9B5C23"/>
<path d="M94.6679 67.0109C95.876 65.9908 95.9741 66.1601 97.2708 64.8315C97.1301 65.2328 96.9848 65.6323 96.8348 66.0303C96.9488 66.2601 96.872 66.2058 97.0489 66.3279C96.6048 66.785 95.305 67.4307 94.669 67.5593L94.4207 67.1957L94.6679 67.0109Z" fill="#93997B"/>
<path d="M96.5378 54.2396C96.4025 54.6365 95.9837 54.8622 95.6216 55.1284C95.1821 55.1265 94.1996 55.1483 93.8058 55.089C93.9676 55.0038 94.336 54.9775 94.5365 54.9503L94.6541 54.776C94.1694 54.4833 93.8666 54.8433 93.489 54.6522L94.1523 54.4119C94.9069 54.4635 95.7968 54.3721 96.5378 54.2396Z" fill="#6D401C"/>
<path d="M96.6975 54.0626C96.8134 53.8325 96.9356 53.6915 97.0914 53.4905C97.5103 53.2156 97.9842 53.2845 98.4965 53.292L98.6093 53.5717C98.2538 54.0371 97.2407 54.226 96.6975 54.0626Z" fill="#6D401C"/>
<path d="M90.7188 62.207C91.3318 62.7115 91.8547 63.1363 92.6415 63.3257C92.9976 63.973 94.293 66.7495 94.6678 67.0109L94.4206 67.1957L93.7502 67.338C92.7687 65.6512 91.6082 64.1807 90.3337 62.7065C90.41 62.6303 90.6403 62.3114 90.7188 62.207Z" fill="#93997B"/>
<path d="M99.0176 62.5538L99.8573 62.0301L100.035 62.2256L100.407 62.1545L100.452 62.2741C100.275 62.372 100.148 62.4506 99.9546 62.5162C100.045 62.5777 100.441 62.855 100.512 62.89C99.5579 63.5026 98.5129 65.5992 97.0489 66.3279C96.872 66.2058 96.9488 66.2601 96.8347 66.0303C96.9848 65.6323 97.13 65.2328 97.2708 64.8315C97.5675 64.3507 98.6228 63.063 99.0176 62.5538Z" fill="#758C6A"/>
<path d="M85.6738 65.4438C85.7205 65.3674 85.7697 65.2927 85.8216 65.2199C86.4525 64.3268 88.6382 62.0153 89.8237 61.83C90.2772 61.759 90.3623 61.9363 90.7186 62.207C90.6401 62.3113 90.4098 62.6303 90.3336 62.7065C88.3882 62.705 87.2251 64.6692 85.6738 65.4438Z" fill="#615D41"/>
<path d="M93.7502 67.338L94.4206 67.1957L94.6689 67.5593C94.4009 69.5479 94.7622 71.6844 94.2933 73.5568C93.9234 71.2776 94.0847 69.302 93.7502 67.338Z" fill="#A39366"/>
<path d="M89.3868 54.7375C89.9547 55.4649 90.2269 55.7637 90.1308 56.6785C90.8682 57.8389 91.3897 58.2269 91.1972 59.5293C90.512 57.9212 89.6537 56.7332 89.2532 55.0445L89.3868 54.7375Z" fill="#6D401C"/>
<path d="M64.0129 83.2765C67.9891 75.8434 71.7244 59.7 81.7775 58.6068C81.4265 62.6877 80.0093 67.6968 79.2828 71.8843C78.1269 78.5479 75.769 85.1535 76.0774 92.0548C76.0863 92.3812 76.0928 92.8093 76.0708 93.1327L75.9765 92.9522L75.5436 93.1967C75.2132 92.8624 74.9139 91.0512 74.8975 90.4971C74.5294 89.6677 68.6131 86.6581 67.5152 86.0797C67.2054 85.9165 66.2182 85.7862 65.7906 85.6761L65.7272 85.6592C65.1509 84.8821 64.6041 84.0696 64.0129 83.2765Z" fill="url(#paint2_linear_1_487)"/>
<path d="M74.8975 90.4971C75.3006 90.5411 75.5625 90.4812 75.7833 90.7584C76.1199 91.1811 75.9929 92.3839 75.9765 92.9522L75.5436 93.1967C75.2132 92.8624 74.9139 91.0512 74.8975 90.4971Z" fill="#E1893C"/>
<path d="M116.574 111.225C117.463 111.023 118.956 110.892 119.906 110.78L119.97 111.47C120.083 114.256 120.277 117.085 119.649 119.826C119.366 121.058 119.248 122.758 118.738 123.866C118.006 120.895 117.837 117.392 116.955 114.376C116.701 113.509 117.101 111.94 116.574 111.225Z" fill="#E1893C"/>
<path d="M75.9765 92.9521L76.0709 93.1327C76.1978 98.9194 75.2652 103.468 74.943 109.187C74.1758 109.11 73.7344 108.621 73.8511 107.854C74.038 106.899 73.9328 103.489 74.0409 102.237C74.1314 101.189 74.637 98.098 74.4845 97.41L74.173 97.4138C73.9322 96.9988 75.3119 94.1726 75.5437 93.1967L75.9765 92.9521Z" fill="#D7D7C8"/>
<path d="M91.7616 81.6301C95.7692 81.5533 99.5054 81.7547 103.481 81.8865C103.554 84.9185 103.585 90.0718 101.662 92.7669C101.401 93.133 100.13 92.9818 99.6752 92.9568C96.5654 93.076 93.3383 93.5623 90.2764 92.8018C87.7182 92.1666 88.1996 88.9038 88.1093 86.8733C88.0271 85.1692 87.8856 83.4685 87.6851 81.7742C88.8224 81.6557 90.5774 81.6619 91.7616 81.6301Z" fill="#3C7034"/>
<path d="M105.913 76.1643C106.336 76.1964 106.545 76.1757 106.882 76.4478C107.01 77.0206 106.894 77.0435 106.698 77.6883C106.172 77.6992 106.069 77.6784 105.766 77.2899C105.674 76.8359 105.782 76.5998 105.913 76.1643Z" fill="#AFA125"/>
<path d="M21.2978 78.9343C21.3446 80.4314 22.2887 80.7245 23.2861 81.9496C24.0762 82.5723 24.2641 82.6917 25.1694 83.0901C25.8264 83.5772 25.3357 83.7599 26.3477 84.2404C26.8315 84.6883 27.5094 85.2758 27.9036 85.7795C28.6827 86.7269 29.5134 87.6877 30.1345 88.7431C31.2009 89.9423 32.2214 90.9901 33.4892 91.9923C33.7618 92.2078 34.5306 92.7756 34.7402 93.0022C35.3053 93.444 36.6803 94.571 37.2432 94.8532C37.6866 94.9166 38.445 95.0478 38.8649 95.0636L39.8085 94.8797C40.1678 94.8295 40.5274 94.7815 40.8872 94.7359C41.6511 93.8146 44.8166 95.3571 45.644 95.5424C45.7674 95.3443 45.8416 95.3035 46.0144 95.1453C46.5439 95.4277 47.6692 95.022 48.3804 94.9532C49.8245 94.814 51.2205 94.7778 52.668 94.7479C53.9344 96.1624 53.8884 96.2365 54.5688 97.9685C54.1462 98.3755 53.6838 99.4487 53.404 100.018C53.0623 100.718 52.8013 101.308 52.2032 101.84C52.3984 103.466 58.0881 107.235 59.9405 107.117C60.2872 107.095 61.7127 107.544 61.88 107.824C63.2418 107.97 64.6882 107.898 66.0605 107.946C68.8405 108.044 71.0901 108.128 73.8512 107.854C73.7344 108.621 74.1758 109.11 74.9431 109.187C74.9295 112.31 74.1251 115.49 74.0479 118.476C73.9286 123.093 73.6724 126.65 72.8922 131.221L69.3326 131.126C64.4321 130.645 57.6751 131.023 53.4822 130.124C50.1883 129.786 49.3474 130.123 45.944 129.232C43.0574 128.813 40.5433 128.631 37.6211 128.073C33.9774 127.377 30.9522 127.052 27.3574 125.871C21.9625 124.169 16.4095 122.718 12.6128 118.224C10.9238 116.225 9.4071 113.633 8.61663 111.142C7.4199 108.428 7.50494 106.396 7.34715 103.555C7.09894 99.4102 7.00697 95.2577 7.07145 91.1063C7.06093 90.599 7.10399 90.0717 7.13581 89.5635C7.21687 88.8416 7.30314 88.7028 7.65017 88.0539C8.33679 87.3786 9.20703 87.0564 10.08 86.6923C10.1967 86.0387 10.2644 85.5354 10.4146 84.8707C10.9733 83.5855 12.24 81.6165 13.846 81.9595L13.9362 82.0842C14.1935 82.2137 14.8677 82.5234 15.126 82.54C16.6965 82.6406 20.1673 80.8683 20.3793 79.2514L21.2978 78.9343Z" fill="#BE7A2F"/>
<path d="M21.2978 78.9343C21.3446 80.4314 22.2887 80.7245 23.2861 81.9496C24.0762 82.5723 24.2641 82.6917 25.1694 83.0901C25.8264 83.5772 25.3357 83.7599 26.3477 84.2404C26.8315 84.6883 27.5094 85.2758 27.9036 85.7795C28.6827 86.7269 29.5134 87.6877 30.1345 88.7431C31.2009 89.9423 32.2214 90.9901 33.4892 91.9923C33.7618 92.2078 34.5306 92.7756 34.7402 93.0022C35.3053 93.444 36.6803 94.571 37.2432 94.8532C37.6866 94.9166 38.445 95.0478 38.8649 95.0636L39.8085 94.8797C40.1678 94.8295 40.5274 94.7815 40.8872 94.7359L41.0903 95.666C42.1188 98.7141 42.0269 98.2165 42.0347 101.642C42.0169 102.601 41.8757 104.59 41.8898 105.379C41.9335 105.836 42.057 106.535 41.8912 106.924L41.6732 107.058C40.2571 107.216 39.3906 107.295 38.0648 107.831L37.6231 108.062C36.1082 108.355 35.547 108.482 34.1388 109.171L34.1344 109.937C32.9651 110.759 32.9331 110.23 32.1094 110.566L31.3803 110.145C29.041 110.462 28.9298 110.906 26.8451 111.893C26.6848 112.188 26.5564 112.352 26.5608 112.685C26.7847 113.214 26.8478 114.689 26.665 115.241C26.9561 118.053 26.7669 120.446 26.793 123.242C26.8024 124.26 27.421 125.415 27.3574 125.871C21.9625 124.169 16.4095 122.718 12.6128 118.224C10.9238 116.225 9.4071 113.633 8.61663 111.142C7.4199 108.428 7.50494 106.396 7.34715 103.555C7.09894 99.4102 7.00697 95.2577 7.07145 91.1063C7.06093 90.599 7.10399 90.0717 7.13581 89.5635C7.21687 88.8416 7.30314 88.7028 7.65017 88.0539C8.33679 87.3786 9.20703 87.0564 10.08 86.6923C10.1967 86.0387 10.2644 85.5354 10.4146 84.8707C10.9733 83.5855 12.24 81.6165 13.846 81.9595L13.9362 82.0842C14.1935 82.2137 14.8677 82.5234 15.126 82.54C16.6965 82.6406 20.1673 80.8683 20.3793 79.2514L21.2978 78.9343Z" fill="#9B5C23"/>
<path d="M21.2977 78.9343C21.3445 80.4314 22.2887 80.7245 23.286 81.9496C24.0762 82.5723 24.264 82.6917 25.1694 83.0901C25.8264 83.5772 25.3356 83.7599 26.3477 84.2404C26.8314 84.6883 27.5094 85.2758 27.9036 85.7795C28.6826 86.7269 29.5133 87.6877 30.1344 88.7431C31.2008 89.9423 32.2213 90.9901 33.4892 91.9923C33.7617 92.2078 34.5305 92.7756 34.7402 93.0022C35.3052 93.444 36.6802 94.571 37.2432 94.8532C37.7164 95.2335 37.8477 95.2104 38.0176 95.6965C37.8988 96.1236 37.458 96.4943 37.1297 96.8284L35.9802 97.5404L34.4273 98.1343C33.2999 98.2282 32.3607 98.2876 31.2307 98.3049L30.9222 98.2364L30.9447 98.4044C32.4732 99.0437 35.181 97.6902 36.3225 98.1711L36.3156 98.3326C35.5339 98.9522 31.9154 99.0174 30.7504 99.1009C29.648 99.1798 26.5412 99.9029 25.6423 99.6896L25.8264 99.7415L25.6624 99.5952C25.8697 99.149 25.803 98.9732 25.7033 98.5218C24.7829 97.7542 24.8125 97.3056 24.421 96.1809C25.1276 94.4838 23.8935 93.9207 22.7938 92.9285L21.7214 93.6596C20.8876 93.5943 20.0712 93.4845 19.2506 93.6344C18.9467 93.8321 18.1221 94.3422 17.8934 94.5583C17.3899 94.8316 17.1626 95.0775 16.753 94.6043C16.2744 95.1201 15.6664 95.7122 15.2394 96.2425C13.7714 95.4739 12.7809 95.1355 11.0879 95.0228L10.9462 94.7681C10.3047 94.3049 9.56929 93.7434 8.89789 93.3446L7.18299 92.303L7.13574 89.5635C7.2168 88.8416 7.30307 88.7028 7.65011 88.0539C8.33672 87.3786 9.20697 87.0564 10.0799 86.6923C10.1966 86.0387 10.2644 85.5354 10.4145 84.8707C10.9733 83.5855 12.2399 81.6165 13.8459 81.9595L13.9361 82.0842C14.1935 82.2137 14.8676 82.5234 15.1259 82.54C16.6964 82.6406 20.1672 80.8683 20.3793 79.2514L21.2977 78.9343Z" fill="#AB6218"/>
<path d="M10.0799 86.6924C10.1966 86.0388 10.2644 85.5355 10.4145 84.8707L11.2781 85.3743C11.8321 86.6482 15.8142 88.8134 16.8838 90.6549C17.3416 90.6199 18.0058 90.5005 18.3579 90.7542C18.4305 90.9255 18.5105 91.083 18.5485 91.2623C17.9241 92.3721 17.4501 93.7007 16.753 94.6044C16.2744 95.1202 15.6664 95.7122 15.2394 96.2425C13.7714 95.474 12.7809 95.1355 11.0879 95.0229L10.9462 94.7682C10.3047 94.305 9.56929 93.7435 8.89789 93.3446L7.18299 92.303L7.13574 89.5635C7.2168 88.8417 7.30307 88.7029 7.65011 88.0539C8.33672 87.3786 9.20697 87.0565 10.0799 86.6924Z" fill="url(#paint3_linear_1_487)"/>
<path d="M16.8838 90.6549C17.3417 90.6199 18.0059 90.5005 18.358 90.7542C18.4306 90.9254 18.5106 91.0829 18.5485 91.2622C17.9242 92.3721 17.4501 93.7007 16.753 94.6043C16.2745 95.1202 15.6664 95.7122 15.2395 96.2425C13.7714 95.474 12.781 95.1355 11.088 95.0228L10.9463 94.7682C12.4607 93.1126 14.9014 91.6701 16.8838 90.6549Z" fill="#B77D09"/>
<path d="M34.615 93.0589L34.7402 93.0022C35.3052 93.444 36.6802 94.571 37.2432 94.8532C37.7164 95.2335 37.8477 95.2104 38.0176 95.6966C37.8988 96.1236 37.458 96.4943 37.1297 96.8285L35.9802 97.5404L34.4273 98.1343C34.2075 97.6618 34.1006 97.4933 33.8035 97.0632C35.3529 95.7838 33.6214 94.3183 33.6949 93.6259C34.0617 93.4499 34.2974 93.321 34.615 93.0589Z" fill="#BE7A2F"/>
<path d="M21.2976 78.9343C21.3444 80.4314 22.2886 80.7245 23.2859 81.9496C22.7355 82.1328 22.0947 81.7294 21.661 81.3932L21.5333 81.1232C21.6902 81.018 21.8286 81.0232 22.0182 81.0021C21.9307 80.7483 21.7704 80.6737 21.5496 80.5133C20.3772 80.4231 17.8634 83.3577 17.2039 83.4896C16.7836 83.2529 16.7443 83.16 16.5085 82.7636C15.7792 82.7493 14.1851 82.9731 13.936 82.0842C14.1934 82.2137 14.8675 82.5234 15.1259 82.54C16.6964 82.6406 20.1671 80.8683 20.3792 79.2514L21.2976 78.9343Z" fill="#BE7A2F"/>
<path d="M18.5484 91.2622C18.773 90.8868 18.9128 90.5597 19.322 90.4008C19.8299 90.4421 19.6376 90.3683 20.0459 90.6897C20.5668 91.7086 20.1964 93.0731 19.2506 93.6344C18.9467 93.8321 18.1221 94.3422 17.8934 94.5583C17.3898 94.8316 17.1626 95.0775 16.7529 94.6043C17.45 93.7007 17.9241 92.372 18.5484 91.2622Z" fill="#904215"/>
<path d="M31.2307 98.3049C31.1782 97.541 31.7961 95.3583 32.4935 94.9606C32.963 95.602 33.5183 96.7028 33.8034 97.0632C34.1005 97.4934 34.2074 97.6618 34.4272 98.1343C33.2998 98.2283 32.3606 98.2876 31.2307 98.3049Z" fill="#B77D09"/>
<path d="M10.4146 84.8707C10.9733 83.5855 12.2399 81.6165 13.846 81.9595C13.0014 83.0241 11.5995 84.2657 11.2782 85.3743L10.4146 84.8707Z" fill="#92720A"/>
<path d="M30.1343 88.7431C31.2006 89.9424 32.2212 90.9902 33.489 91.9924C33.7616 92.2078 34.5304 92.7757 34.74 93.0022L34.6149 93.0589C34.1412 93.0157 33.9448 93.0793 33.5074 93.224L33.3799 93.2669C32.861 93.0052 30.2157 89.3111 30.1343 88.7431Z" fill="#92720A"/>
<path d="M31.4046 93.3477C31.7563 93.8192 32.1589 94.4606 32.4936 94.9605C31.7962 95.3582 31.1783 97.541 31.2308 98.3049L30.9222 98.2364C30.8715 97.7656 31.1468 97.163 31.205 96.5421C31.3061 95.4626 31.3542 94.4286 31.4046 93.3477Z" fill="#A96A1C"/>
<path d="M27.5427 93.7713C30.1812 93.6962 29.979 96.3387 29.907 98.1876C29.2777 98.3287 28.5219 98.4358 27.877 98.5441C26.6746 98.6335 25.2968 97.9398 25.4986 96.546C25.6945 95.1915 26.5327 94.5551 27.5427 93.7713Z" fill="#C79301"/>
<path d="M21.7214 93.6596L22.7938 92.9285C23.8935 93.9208 25.1276 94.4838 24.421 96.1809C24.8125 97.3056 24.783 97.7542 25.7034 98.5219C25.5939 99.1132 25.6755 99.2097 25.3331 99.5923L25.0292 99.6718L24.1666 100.123C22.5847 100.264 21.1193 100.452 19.5452 100.239C18.712 99.5449 17.7655 98.9016 16.8614 98.3048C16.7109 97.6417 16.8635 97.2329 17.1379 96.6526C16.9563 96.2526 16.9371 96.1815 16.8755 95.7464C16.9655 95.2858 17.5214 94.889 17.8935 94.5584C18.1221 94.3422 18.9467 93.8322 19.2506 93.6345C20.0712 93.4846 20.8877 93.5944 21.7214 93.6596Z" fill="#989708"/>
<path d="M17.1379 96.6525C19.0141 99.3207 19.6097 99.519 22.7814 99.4579C23.5929 99.3891 24.2527 99.3667 25.0292 99.6717L24.1666 100.123C22.5847 100.263 21.1193 100.452 19.5452 100.239C18.712 99.5449 17.7655 98.9015 16.8614 98.3047C16.7109 97.6417 16.8635 97.2329 17.1379 96.6525Z" fill="#716B13"/>
<path d="M22.7815 99.4579C23.9449 98.738 24.0135 97.4921 24.421 96.1809C24.8125 97.3056 24.783 97.7542 25.7034 98.5219C25.594 99.1132 25.6756 99.2097 25.3331 99.5923L25.0292 99.6718C24.2527 99.3668 23.5929 99.3891 22.7815 99.4579Z" fill="#8F841B"/>
<path d="M8.89793 93.3446C9.56933 93.7434 10.3047 94.3049 10.9463 94.7681L11.088 95.0228C12.7809 95.1355 13.7714 95.4739 15.2395 96.2425C15.6664 95.7122 16.2745 95.1201 16.753 94.6043C17.1627 95.0775 17.3899 94.8316 17.8935 94.5583C17.5214 94.8889 16.9655 95.2858 16.8755 95.7463C16.9371 96.1814 16.9564 96.2526 17.1379 96.6525C16.8635 97.2329 16.711 97.6417 16.8614 98.3047C17.7655 98.9015 18.7121 99.5449 19.5453 100.239C21.1193 100.452 22.5847 100.263 24.1666 100.123C25.5602 100.097 27.4736 99.6484 28.8191 99.6654C28.0287 100.223 23.3001 100.454 22.1073 100.559C21.3866 100.623 20.0133 100.417 19.3772 100.706C19.209 101.257 21.5756 102.83 21.5802 103.368C20.8075 103.188 19.2979 100.742 18.4893 100.38C15.0287 98.8324 11.2667 97.6912 7.8691 95.9862C7.80995 95.46 7.6305 94.5173 7.82573 94.0744C8.34265 93.5188 8.33129 94.0999 8.89793 93.3446Z" fill="#A96A1C"/>
<path d="M15.2394 96.2425C15.6663 95.7122 16.2744 95.1202 16.7529 94.6043C17.1626 95.0775 17.3898 94.8316 17.8934 94.5583C17.5213 94.889 16.9654 95.2858 16.8754 95.7463C16.937 96.1814 16.9563 96.2526 17.1378 96.6525C16.8635 97.2329 16.7109 97.6417 16.8613 98.3047C16.5653 98.3835 16.5002 98.3786 16.1907 98.3845C14.8896 97.6671 12.1349 96.0307 11.0879 95.0228C12.7809 95.1355 13.7713 95.474 15.2394 96.2425Z" fill="#92720A"/>
<path d="M7.13581 89.5635L7.18306 92.303L8.89795 93.3446C8.33132 94.0999 8.34268 93.5188 7.82576 94.0744C7.63053 94.5173 7.80998 95.46 7.86913 95.9862C7.89791 97.7373 7.87574 99.4889 7.8026 101.239C7.74123 102.884 7.61201 104.574 7.76335 106.211C7.85134 107.162 8.52319 107.277 9.28494 107.366C9.12674 107.487 8.93775 107.465 8.72934 107.476C8.46261 107.351 8.19286 107.233 7.92037 107.122C7.80576 107.409 7.85636 107.52 7.90819 107.838L8.17541 107.92L8.56781 107.603C8.94405 107.744 9.66811 107.946 9.88116 108.208C9.52387 108.16 9.36594 108.146 9.00614 108.154C8.45657 108.653 8.49138 110.429 8.61663 111.142C7.4199 108.428 7.50494 106.396 7.34715 103.555C7.09894 99.4102 7.00697 95.2577 7.07145 91.1063C7.06093 90.599 7.10399 90.0717 7.13581 89.5635Z" fill="#904215"/>
<path d="M37.2431 94.8533C37.6865 94.9167 38.4449 95.0479 38.8648 95.0636L39.8084 94.8797L39.7281 95.8265C39.4314 96.3097 39.2649 96.4956 39.3241 97.056L39.1247 96.9598C38.2234 97.1941 37.95 97.2442 37.1296 96.8285C37.458 96.4944 37.8987 96.1237 38.0175 95.6966C37.8477 95.2105 37.7163 95.2335 37.2431 94.8533Z" fill="#904215"/>
<path d="M38.8648 95.0636L39.8084 94.8797L39.7281 95.8265C39.4313 96.3097 39.2648 96.4956 39.324 97.056L39.1246 96.9598C38.7206 95.849 38.1837 96.2244 38.8648 95.0636Z" fill="#6D401C"/>
<path d="M39.1247 96.9598L39.3241 97.056L39.4503 97.6074C39.1626 97.9383 39.2223 97.8452 38.7427 97.9853C37.535 98.2204 36.8906 98.5414 35.9802 97.5405L37.1297 96.8285C37.9501 97.2442 38.2235 97.1941 39.1247 96.9598Z" fill="#6D401C"/>
<path d="M39.8083 94.8797C40.1676 94.8295 40.5272 94.7815 40.8871 94.736L41.0901 95.6661C41.0919 96.2939 41.1911 96.3733 40.9219 96.8466L40.5657 97.048C39.8481 96.6759 39.8957 96.5227 39.728 95.8265L39.8083 94.8797Z" fill="#A96A1C"/>
<path d="M31.3801 110.145C32.0563 109.549 33.2589 109.36 34.1386 109.171L34.1343 109.937C32.965 110.759 32.9329 110.23 32.1093 110.566L31.3801 110.145Z" fill="#8F841B"/>
<path d="M39.3242 97.056C39.265 96.4956 39.4315 96.3097 39.7282 95.8265C39.8958 96.5228 39.8483 96.6759 40.5659 97.048C40.9177 97.3615 40.8049 97.2048 40.97 97.6807C40.6764 98.279 39.3845 97.9818 38.7427 97.9853C39.2223 97.8452 39.1626 97.9383 39.4503 97.6074L39.3242 97.056Z" fill="#904215"/>
<path d="M26.5607 112.685C26.7846 113.214 26.8477 114.689 26.6649 115.241L25.1975 113.901C25.7056 113.502 26.0971 113.126 26.5607 112.685Z" fill="#B77D09"/>
<path d="M26.5607 112.685C25.8563 112.641 25.3171 112.637 25.2236 111.83C25.7608 111.131 26.2688 111.419 26.845 111.893C26.6847 112.188 26.5563 112.352 26.5607 112.685Z" fill="#904215"/>
<path d="M40.8872 94.736C41.6511 93.8146 44.8166 95.3571 45.644 95.5425C45.7673 95.3443 45.8416 95.3035 46.0144 95.1453C46.5439 95.4277 47.6691 95.022 48.3804 94.9532C49.8245 94.814 51.2205 94.7779 52.6679 94.7479C53.9344 96.1625 53.8884 96.2366 54.5688 97.9685C54.1462 98.3755 53.6838 99.4487 53.404 100.018C53.0622 100.718 52.8012 101.308 52.2032 101.84C52.3983 103.466 58.088 107.235 59.9405 107.117C60.2871 107.095 61.7126 107.544 61.88 107.824C61.7775 108.56 62.7704 109.18 63.1037 109.995C62.7308 110.415 62.9036 110.318 62.4345 110.484C61.9635 110.204 61.1338 110.369 60.6162 110.551C58.3604 111.342 52.7454 111.007 50.7844 109.734L50.8239 109.83C51.0301 110.319 51.2064 110.483 51.5691 110.87C50.8295 111.242 47.118 110.596 46.2422 111.234C45.9984 111.35 45.8641 111.452 45.6039 111.399C45.4894 110.451 45.8209 108.941 45.2746 108.151C45.1166 107.923 44.795 107.957 44.4903 107.927L44.0029 108.301L43.9188 108.294C43.3373 108.052 43.0509 107.951 42.9401 107.295C42.4084 106.942 42.3214 106.992 41.6732 107.058L41.8911 106.924C42.0569 106.535 41.9335 105.836 41.8897 105.379C41.8757 104.59 42.0168 102.601 42.0347 101.642C42.0268 98.2166 42.1188 98.7141 41.0903 95.6661L40.8872 94.736Z" fill="#AB6218"/>
<path d="M40.8872 94.736C41.6511 93.8146 44.8166 95.3571 45.644 95.5425C45.7576 95.6595 46.0746 96.0013 46.0913 96.1358C46.3779 98.45 46.19 101.688 46.6631 103.959C46.9491 105.332 48.6603 107.735 49.666 108.663C49.7741 108.762 50.7889 109.74 50.7844 109.734L50.8239 109.83C51.0301 110.319 51.2064 110.483 51.5691 110.87C50.8295 111.242 47.118 110.596 46.2422 111.234C45.9984 111.35 45.8641 111.452 45.6039 111.399C45.4894 110.451 45.8209 108.941 45.2746 108.151C45.1166 107.923 44.795 107.957 44.4903 107.927L44.0029 108.301L43.9188 108.294C43.3373 108.052 43.0509 107.951 42.9401 107.295C42.4084 106.942 42.3214 106.992 41.6732 107.058L41.8911 106.924C42.0569 106.535 41.9335 105.836 41.8897 105.379C41.8757 104.59 42.0168 102.601 42.0347 101.642C42.0268 98.2166 42.1188 98.7141 41.0903 95.6661L40.8872 94.736Z" fill="#2F623A"/>
<path d="M42.0346 101.642L42.1477 101.727C43.3893 102.683 43.6196 103.453 44.1291 104.871C44.2675 105.256 44.5596 105.32 44.5598 105.826L44.3153 105.618L43.7902 106.228C44.0395 106.801 44.2759 107.338 44.4902 107.927L44.0028 108.301L43.9187 108.294C43.3373 108.052 43.0508 107.951 42.94 107.295C42.4083 106.942 42.3214 106.992 41.6731 107.058L41.8911 106.924C42.0569 106.535 41.9334 105.836 41.8897 105.379C41.8756 104.59 42.0168 102.601 42.0346 101.642Z" fill="url(#paint4_linear_1_487)"/>
<path d="M43.1525 105.094C43.236 105.673 43.2617 105.783 43.7902 106.228C44.0395 106.801 44.2759 107.338 44.4902 107.927L44.0028 108.301L43.9187 108.294C43.3373 108.052 43.0508 107.951 42.94 107.295C42.4083 106.942 42.3214 106.992 41.6731 107.058L41.8911 106.924C42.0569 106.535 41.9334 105.836 41.8897 105.379C42.022 105.848 42.0393 106.276 42.586 106.234C42.9425 105.827 42.9857 105.606 43.1525 105.094Z" fill="#615D41"/>
<path d="M42.0346 101.642L42.1477 101.727C42.1443 102.749 41.9041 104.227 42.5168 104.864L43.1993 104.942L43.1525 105.094C42.9857 105.606 42.9425 105.827 42.586 106.234C42.0393 106.276 42.022 105.848 41.8897 105.379C41.8756 104.59 42.0168 102.601 42.0346 101.642Z" fill="#443923"/>
<path d="M43.1994 104.942C43.8753 104.781 43.9354 105.063 44.3154 105.618L43.7903 106.228C43.2619 105.783 43.2361 105.673 43.1526 105.094L43.1994 104.942Z" fill="#66714E"/>
<path d="M44.3154 105.618L44.5599 105.826C45.6835 108.111 50.2607 109.532 50.39 110.327C49.2311 110.383 47.0791 107.829 46.0521 108.107C45.6036 108.642 45.602 110.529 45.8967 111.086C45.9885 111.129 46.1518 111.215 46.2422 111.234C45.9984 111.35 45.8641 111.452 45.6039 111.399C45.4895 110.451 45.8209 108.942 45.2746 108.151C45.1167 107.923 44.795 107.957 44.4903 107.927C44.276 107.338 44.0396 106.801 43.7903 106.228L44.3154 105.618Z" fill="#3C7034"/>
<path d="M52.2031 101.84L51.9463 101.374C51.9457 100.92 51.9701 100.869 52.2122 100.482C52.7061 100.108 52.7853 100.092 53.4039 100.018C53.0622 100.718 52.8012 101.308 52.2031 101.84Z" fill="#6D401C"/>
<path d="M41.6731 107.058C42.3214 106.992 42.4083 106.942 42.94 107.295C43.0508 107.951 43.3373 108.052 43.9188 108.294L44.0029 108.301L44.4903 107.927C44.795 107.957 45.1166 107.923 45.2745 108.151C45.8209 108.942 45.4894 110.451 45.6039 111.399C45.864 111.452 45.9983 111.35 46.2422 111.234C47.118 110.596 50.8295 111.242 51.5691 110.87C51.2064 110.483 51.03 110.319 50.8239 109.83L50.7844 109.734C52.7454 111.007 58.3604 111.342 60.6162 110.551C61.1338 110.369 61.9635 110.204 62.4345 110.484C59.4365 112.215 54.7593 113.577 51.404 114.49C50.0908 114.847 47.9315 114.884 46.471 115.144C40.5642 116.196 37.0026 116.674 33.0627 111.691C32.9146 111.57 32.2724 110.765 32.1094 110.566C32.933 110.23 32.9651 110.76 34.1344 109.937L34.1387 109.171C35.547 108.482 36.1082 108.355 37.623 108.062L38.0647 107.831C39.3905 107.295 40.257 107.216 41.6731 107.058Z" fill="#3C7034"/>
<path d="M41.6731 107.058C42.3214 106.992 42.4083 106.942 42.94 107.295C43.0508 107.951 43.3373 108.052 43.9188 108.294L44.0029 108.301L44.4903 107.927C44.795 107.957 45.1166 107.923 45.2745 108.151C45.8209 108.942 45.4894 110.451 45.6039 111.399C43.1342 111.417 42.2716 112.266 39.4591 111.517C37.3337 111.676 35.5769 111.367 33.4952 111.343C33.4107 111.342 33.1448 111.617 33.0627 111.691C32.9146 111.57 32.2724 110.765 32.1094 110.566C32.933 110.23 32.9651 110.76 34.1344 109.937L34.1387 109.171C35.547 108.482 36.1082 108.355 37.623 108.062L38.0647 107.831C39.3905 107.295 40.257 107.216 41.6731 107.058Z" fill="#687C3E"/>
<path d="M44.4902 107.927C44.795 107.957 45.1166 107.923 45.2745 108.151C45.8208 108.941 45.4894 110.451 45.6038 111.399C43.1342 111.417 42.2716 112.266 39.4591 111.517C38.9198 111.346 38.8772 111.434 38.6128 111.062L38.751 110.756C39.4318 110.171 40.9451 109.555 41.8127 109.282C42.6458 109.382 43.1285 109.904 43.7353 109.864C44.0974 109.417 43.9969 108.945 44.0028 108.3L44.4902 107.927Z" fill="#AFA125"/>
<path d="M41.6731 107.058C42.3214 106.992 42.4083 106.942 42.94 107.295C42.6125 107.691 42.5238 107.907 41.9434 107.956C40.6553 108.065 39.3658 107.838 38.0647 107.831C39.3905 107.295 40.257 107.216 41.6731 107.058Z" fill="#8F841B"/>
<path d="M34.1386 109.171C35.5469 108.482 36.1081 108.355 37.6229 108.062L38.0027 108.532C37.7922 109.436 35.3726 108.664 34.1343 109.937L34.1386 109.171Z" fill="#8F841B"/>
<path d="M61.8799 107.824C63.2418 107.97 64.6881 107.898 66.0604 107.946C68.8405 108.044 71.09 108.128 73.8511 107.854C73.7344 108.621 74.1758 109.11 74.943 109.187C74.9294 112.31 74.125 115.49 74.0478 118.476C73.9286 123.093 73.6723 126.65 72.8921 131.221L69.3325 131.126C68.7974 129.471 68.9251 124.322 69.3213 122.632C70.5256 117.498 72.8647 113.522 65.9929 111.646C65.4345 111.494 63.822 111.278 63.4175 111.018C63.1759 110.566 63.1688 110.489 63.1037 109.995C62.7704 109.18 61.7774 108.56 61.8799 107.824Z" fill="#BAC973"/>
<path d="M45.9438 129.232C47.3277 128.027 50.5977 129.366 52.2215 129.667C52.7073 129.757 53.2589 129.774 53.6758 130.014L53.482 130.124C50.1882 129.786 49.3473 130.123 45.9438 129.232Z" fill="#E1893C"/>
<path d="M64.4793 121.997C64.6581 121.91 64.864 121.944 65.0701 121.951C64.5474 122.257 57.7749 123.311 56.6236 123.454C53.6422 123.825 48.4626 125.72 45.7375 125.499C45.4599 125.353 45.4526 125.347 45.2944 125.069C45.6204 124.829 47.7201 124.936 48.3819 124.75C50.7255 124.091 53.0139 123.525 55.4024 123.034L55.513 123.078C55.5575 123.096 55.6333 123.123 55.6752 123.144C56.5939 123.608 62.855 122.125 64.4793 121.997Z" fill="#A96A1C"/>
<path d="M39.9949 126.08C40.8942 126.015 42.9708 125.888 43.7902 126.086C43.5814 126.313 43.1556 126.31 42.7808 126.375C42.0656 126.458 39.8858 126.643 39.4553 126.151L39.9949 126.08Z" fill="#AB6218"/>
<path d="M87.2416 16.2864C91.6713 13.5899 102.414 12.3796 106.248 17.7054C106.649 18.2619 106.996 19.1745 107.476 19.7079C109.545 21.7778 112.479 24.2667 112.088 27.603C111.859 29.5503 111.317 31.0114 111.142 33.3007C110.767 33.7649 110.411 34.1768 110.125 34.7046C110.329 35.0161 110.565 35.3728 110.744 35.6666C112.426 38.4279 110.415 42.5938 107.583 43.7279C107.165 43.8954 106.497 44.3814 106.143 44.6673C106.008 45.469 105.11 48.016 104.657 48.4635C104.294 48.6238 104.186 48.5968 104.005 48.892C102.936 49.8998 101.964 50.663 100.743 51.4772C99.9302 52.0196 99.3264 52.1945 98.9657 53.1014C98.694 53.2844 98.7952 53.2672 98.4965 53.292C97.9842 53.2845 97.5103 53.2156 97.0914 53.4905C96.9356 53.6915 96.8134 53.8325 96.6975 54.0626L96.5379 54.2396C95.797 54.3721 94.9071 54.4635 94.1525 54.4119C93.4506 54.4662 89.8283 54.8111 89.434 54.6113C89.0267 53.6524 87.0149 52.8212 86.1175 51.9413C80.1945 46.1339 81.853 40.3563 81.7028 33.498L81.6376 31.7499C81.585 31.3351 81.4639 30.9152 81.3587 30.5089C81.2725 30.0146 80.5041 28.5889 80.2441 27.387C79.6622 24.6964 80.4018 23.6468 80.5195 20.8421C81.8055 17.3035 85.0117 18.2375 87.2416 16.2864Z" fill="#EE9E52"/>
<path d="M87.2416 16.2864C91.6713 13.5899 102.414 12.3796 106.248 17.7054C106.649 18.2619 106.996 19.1745 107.476 19.7079C109.545 21.7778 112.479 24.2667 112.088 27.603C111.859 29.5503 111.317 31.0114 111.142 33.3007C110.767 33.7649 110.411 34.1768 110.125 34.7046C110.026 34.6618 109.926 34.6199 109.826 34.5787C107.74 33.7184 107.132 34.5475 106.321 36.4645C105.9 37.46 105.514 38.4864 105.123 39.496C104.746 37.7531 104.655 35.7632 104.261 33.8902C103.761 31.5177 102.517 30.0039 102.407 27.7605C102.337 26.3461 102.758 26.9923 103.41 26.2395C103.004 25.3361 100.784 23.9403 99.8937 23.4362C96.1246 25.1463 90.8585 26.6788 86.7942 25.1179C85.9008 24.7746 85.024 24.5768 84.0859 24.4103C83.6257 25.8731 83.0956 27.7169 82.7402 29.2031C82.2974 29.6507 81.8641 30.2421 81.3587 30.5089C81.2725 30.0146 80.5041 28.5889 80.2441 27.387C79.6622 24.6964 80.4018 23.6468 80.5195 20.8421C81.8055 17.3035 85.0117 18.2375 87.2416 16.2864Z" fill="#2F2517"/>
<path d="M82.7442 31.2235C86.8482 31.1207 85.2201 28.9299 89.4239 32.1726C88.0199 32.2539 85.3846 32.4129 84.0032 32.3072C83.4123 32.2232 83.0096 32.2058 82.6243 31.7596L82.7442 31.2235Z" fill="#141714"/>
<path d="M81.3586 30.5088C81.864 30.2421 82.2973 29.6506 82.7401 29.203C82.7216 29.8728 82.6859 30.5574 82.7444 31.2235L82.6244 31.7596C82.1154 31.4914 82.2003 31.4312 81.7319 31.5073L81.6375 31.7499C81.5849 31.335 81.4638 30.9151 81.3586 30.5088Z" fill="#443923"/>
<path d="M81.6375 31.7499L81.7318 31.5073C82.2002 31.4312 82.1153 31.4914 82.6244 31.7596C83.0097 32.2058 83.4124 32.2232 84.0033 32.3072C82.7533 32.4689 82.6229 32.689 81.7027 33.498L81.6375 31.7499Z" fill="#6D401C"/>
<path d="M88.3878 40.9822C88.6225 40.9724 88.9337 40.9776 89.1511 40.9185C89.229 41.2356 89.314 41.5509 89.4057 41.8641C90.0383 42.4122 94.2748 42.1923 95.4281 42.1864C96.1817 43.0276 97.8136 44.2062 98.132 45.2048C98.0336 46.5569 96.234 46.6645 95.142 46.8902C94.1939 46.5431 93.7233 46.2828 92.987 45.5985C90.1102 45.3953 89.0291 46.2815 86.3165 46.8049C85.5153 46.1493 85.2855 45.8573 84.7344 45.0321C85.814 43.7717 87.9942 42.3224 88.3878 40.9822Z" fill="#141714"/>
<path d="M96.9472 30.3709L97.2331 30.3702C98.3888 31.1068 99.0814 31.2058 100.401 31.2439C100.34 31.7769 100.313 32.2248 100.132 32.7319C99.7817 32.8822 99.0729 32.3178 98.2209 32.3151C97.3498 32.3217 94.5114 32.458 93.8884 31.9864L93.9557 31.7433C94.8267 31.0459 95.8915 30.7519 96.9472 30.3709Z" fill="#141714"/>
<path d="M85.0669 34.5994C86.1271 34.5884 87.232 34.6123 88.2964 34.6195C87.9739 35.2219 87.6994 35.6389 87.3231 36.1991C87.0181 36.6091 86.5352 36.766 86.0551 36.8532C84.8624 36.6385 85.0341 35.503 85.0669 34.5994Z" fill="#141714"/>
<path d="M96.2952 34.5292L96.8864 34.5783C97.5985 35.2741 97.0395 36.9211 96.5594 37.6146L96.4064 37.4549C95.811 36.8118 95.3974 36.6401 94.6362 36.2306L96.2952 34.5292Z" fill="#141714"/>
<path d="M90.5798 47.1576C91.5803 47.6314 92.637 47.481 92.5872 48.6766C92.2794 48.6845 91.9714 48.6856 91.6636 48.68C91.2025 48.6679 90.9447 48.6343 90.621 48.2882C90.4293 47.8274 90.4965 47.6494 90.5798 47.1576Z" fill="#431F0B"/>
<path d="M108.528 37.1799L108.794 37.4943C108.873 38.0439 108.642 38.6007 108.324 39.0378C107.838 39.7073 107.865 39.864 107.105 40.0403L106.825 39.6148C107.037 38.7106 108.095 39.1582 108.528 37.1799Z" fill="#AB6218"/>
<path d="M88.3879 40.9822C88.4341 40.5159 88.6045 38.4225 88.8264 38.1447L88.8912 38.3801L88.7294 38.4033L88.7204 38.4654L88.924 38.5767C88.9933 39.3384 89.0553 40.1656 89.1512 40.9185C88.9338 40.9775 88.6226 40.9723 88.3879 40.9822Z" fill="#6D401C"/>
<path d="M22.3657 76.7983C25.733 75.8585 30.7108 76.4757 34.1999 76.4885C35.7162 76.4941 37.4795 76.1746 38.7449 76.9578C37.8137 77.6738 34.6241 77.2595 32.8158 77.5457C32.4056 78.1729 31.3377 79.2103 31.2459 79.5288C31.5757 79.5578 31.8827 79.3965 32.2026 79.272C32.3459 78.9348 32.9056 78.5835 33.2259 78.345C34.2281 78.2912 35.7743 78.2702 36.7424 78.4311C40.3186 78.3598 43.0864 78.2896 46.5006 79.811C51.4944 82.0364 54.5423 86.9222 60.0975 88.0473C61.5005 88.3598 62.392 88.1335 63.7046 88.2861C64.2377 87.0572 64.5411 86.3812 65.7272 85.6592L65.7906 85.6761C66.2182 85.7862 67.2054 85.9166 67.5152 86.0797C68.6131 86.6581 74.5294 89.6677 74.8975 90.4971C74.9139 91.0512 75.2132 92.8624 75.5436 93.1967C75.3119 94.1726 73.9322 96.9988 74.173 97.4138L74.4844 97.41C71.8718 99.8883 70.1486 103.278 66.0498 103.138C63.1318 103.039 60.1341 101.673 57.7544 100.047C56.4771 99.1745 56.0415 98.5877 54.5687 97.9685C53.8884 96.2366 53.9343 96.1625 52.6679 94.7479C51.2204 94.7779 49.8244 94.814 48.3804 94.9533C47.6691 95.022 46.5438 95.4277 46.0143 95.1453C45.8415 95.3036 45.7673 95.3443 45.6439 95.5425C44.8165 95.3571 41.651 93.8146 40.8872 94.736C40.5273 94.7816 40.1677 94.8295 39.8084 94.8797L38.8648 95.0636C38.4449 95.0479 37.6865 94.9167 37.2431 94.8533C36.6802 94.571 35.3052 93.4441 34.7402 93.0022C34.5305 92.7757 33.7617 92.2078 33.4892 91.9924C32.2213 90.9902 31.2008 89.9424 30.1344 88.7431C29.5133 87.6877 28.6826 86.727 27.9035 85.7796C27.5094 85.2759 26.8314 84.6883 26.3477 84.2404C25.3356 83.7599 25.8264 83.5773 25.1694 83.0901C25.3246 82.93 25.68 82.2585 25.8188 82.0159C26.3703 81.6873 26.4782 81.3205 26.6674 80.7459C26.6206 80.4467 26.7341 79.2582 26.7617 78.8891C25.5375 78.013 23.7825 77.3917 22.3657 76.7983Z" fill="#EE9E52"/>
<path d="M22.3657 76.7983C25.733 75.8585 30.7108 76.4757 34.1999 76.4885C35.7162 76.4941 37.4795 76.1746 38.7449 76.9578C37.8137 77.6738 34.6241 77.2595 32.8158 77.5457C32.4056 78.1729 31.3377 79.2103 31.2459 79.5288C31.5757 79.5578 31.8827 79.3965 32.2026 79.272C31.8493 80.7559 31.7191 81.1602 31.8865 82.7013C32.3304 82.839 32.8874 82.9939 33.3151 83.1469C32.8448 83.4476 32.9719 83.2867 32.7583 83.739L32.8759 84.0454C37.8031 82.6116 39.8883 81.9996 45.0066 84.6611C44.7618 84.8298 44.4014 85.1111 44.131 85.1857L44.4595 85.5217C44.388 85.8849 44.2613 85.9056 43.9564 86.2022L44.3216 86.4934C43.235 87.2158 41.5059 88.2416 40.7635 89.2529L41.3194 89.4479C43.1007 89.4139 45.4569 89.4004 47.2248 89.4853C48.0108 90.0464 48.6407 90.5757 49.2434 91.3438C48.5692 93.5301 47.8241 93.8309 46.0143 95.1453C45.8415 95.3036 45.7673 95.3443 45.6439 95.5425C44.8165 95.3571 41.651 93.8146 40.8872 94.736C40.5273 94.7816 40.1677 94.8295 39.8084 94.8797L38.8648 95.0636C38.4449 95.0479 37.6865 94.9167 37.2431 94.8533C36.6802 94.571 35.3052 93.4441 34.7402 93.0022C34.5305 92.7757 33.7617 92.2078 33.4892 91.9924C32.2213 90.9902 31.2008 89.9424 30.1344 88.7431C29.5133 87.6877 28.6826 86.727 27.9035 85.7796C27.5094 85.2759 26.8314 84.6883 26.3477 84.2404C25.3356 83.7599 25.8264 83.5773 25.1694 83.0901C25.3246 82.93 25.68 82.2585 25.8188 82.0159C26.3703 81.6873 26.4782 81.3205 26.6674 80.7459C26.6206 80.4467 26.7341 79.2582 26.7617 78.8891C25.5375 78.013 23.7825 77.3917 22.3657 76.7983Z" fill="#3C7034"/>
<path d="M43.9565 86.2022C42.7616 86.1039 37.4236 85.5512 37.1262 84.2634C38.1533 82.9467 42.8537 84.4505 44.131 85.1857L44.4595 85.5217C44.3881 85.8849 44.2614 85.9056 43.9565 86.2022Z" fill="#687C3E"/>
<path d="M26.78 82.5385C27.2608 81.8723 27.6882 80.3045 28.6866 80.4057C28.988 80.6764 28.9742 80.8536 29.0475 81.2598C28.7693 82.3218 28.9133 83.7338 28.1709 84.4351C27.7692 84.8146 27.7616 85.2863 27.9036 85.7796C27.5094 85.2759 26.8315 84.6883 26.3477 84.2405C25.3357 83.7599 25.8264 83.5773 25.1694 83.0901C25.3247 82.93 25.68 82.2585 25.8188 82.0159L26.78 82.5385Z" fill="#758C6A"/>
<path d="M25.1694 83.0901C25.3247 82.9299 25.68 82.2584 25.8188 82.0159L26.78 82.5384C26.5495 83.2233 26.4359 83.5305 26.3477 84.2404C25.3357 83.7599 25.8264 83.5772 25.1694 83.0901Z" fill="#687C3E"/>
<path d="M32.2026 79.272C31.8493 80.7558 31.7191 81.1602 31.8864 82.7013C32.3304 82.8389 32.8874 82.9939 33.3151 83.1469C32.8448 83.4476 32.9719 83.2867 32.7583 83.7389L32.8759 84.0454C32.348 84.2411 31.9272 84.8307 31.5467 85.2719C29.1226 81.5249 29.8946 83.2863 31.2459 79.5288C31.5757 79.5577 31.8826 79.3964 32.2026 79.272Z" fill="#A39366"/>
<path d="M26.6675 80.7459C27.7519 80.9395 27.6491 79.9177 27.76 79.0374L27.7752 78.9124C27.996 79.3225 27.9881 79.7522 28.0233 80.2194C28.7339 80.1519 28.5492 80.0613 29.0451 80.4105C29.1673 80.7273 29.3076 80.9503 29.0475 81.2597C28.9742 80.8536 28.988 80.6764 28.6866 80.4057C27.6882 80.3045 27.2608 81.8723 26.78 82.5384L25.8188 82.0159C26.3704 81.6872 26.4782 81.3205 26.6675 80.7459Z" fill="#66714E"/>
<path d="M41.3193 89.4479C40.9759 89.6984 40.2358 90.5046 39.7827 90.2472L40.008 90.1799L39.8473 90.0179C39.999 89.8079 40.5325 89.4299 40.7634 89.2529L41.3193 89.4479Z" fill="#687C3E"/>
<path d="M31.3351 86.7964C32.1592 87.0277 32.3511 87.6622 32.1302 88.4141C31.536 88.326 31.4019 88.359 30.9987 87.998C30.8961 87.5746 31.1427 87.1974 31.3351 86.7964Z" fill="#758C6A"/>
<path d="M33.226 78.345C34.2282 78.2912 35.7744 78.2702 36.7425 78.4311C36.0632 79.7884 34.8374 82.6818 33.3152 83.1469C32.8875 82.9939 32.3305 82.839 31.8865 82.7013C31.7192 81.1602 31.8494 80.7559 32.2027 79.272C32.346 78.9348 32.9057 78.5835 33.226 78.345Z" fill="#615D41"/>
<path d="M45.0067 84.661C45.7395 84.9468 46.4934 85.4584 47.1427 85.9122C46.1646 86.0102 45.1841 86.0252 44.3217 86.4934L43.9565 86.2021C44.2614 85.9055 44.3881 85.8849 44.4596 85.5216L44.1311 85.1857C44.4015 85.111 44.7619 84.8298 45.0067 84.661Z" fill="#2F623A"/>
<path d="M26.995 52.9599C29.5134 51.577 30.1994 51.7899 31.8899 54.2412C32.9005 55.6394 32.2158 56.7222 31.4046 57.9738C31.2911 58.3799 31.2584 58.2708 31.3659 58.6163C33.417 57.7105 38.3007 56.0801 39.2284 59.2027C39.0771 59.9858 38.9257 60.8577 38.7495 61.6282C41.963 62.2631 43.7492 65.3188 43.4129 68.4501C43.0612 71.7253 41.2372 74.8917 38.7449 76.9577C37.4796 76.1746 35.7163 76.4941 34.1999 76.4885C30.7108 76.4757 25.733 75.8585 22.3657 76.7983C19.0079 75.3865 14.7052 76.1453 13.7346 71.0983C12.9891 67.2216 14.2681 64.9922 15.4319 61.5137C15.9795 59.8774 15.1589 57.6405 17.6571 57.417C20.5231 56.8912 21.4836 62.2526 23.4113 61.9328C23.2858 60.9868 23.3501 60.0394 23.3806 59.0843L23.3894 58.9203C23.3607 57.5425 23.4255 56.9621 24.2646 55.883C25.1761 55.1493 24.719 54.3305 26.995 52.9599Z" fill="url(#paint5_linear_1_487)"/>
<path d="M26.995 52.9599C29.5134 51.577 30.1994 51.7899 31.8898 54.2412C32.9005 55.6394 32.2158 56.7222 31.4045 57.9738C31.2911 58.3799 31.2584 58.2708 31.3659 58.6163C30.744 58.8663 30.9185 59.4451 30.3757 59.5839C30.1211 59.2101 30.1102 59.1488 30.033 58.7009C28.8653 58.65 27.2755 60.1789 25.4408 59.6431L25.4605 59.5267C24.5011 59.6644 24.5896 58.8763 23.3806 59.0843L23.3893 58.9203C23.3606 57.5425 23.4255 56.9621 24.2646 55.883C25.1761 55.1493 24.7189 54.3305 26.995 52.9599Z" fill="#AFA125"/>
<path d="M31.8897 54.2411C32.9004 55.6394 32.2157 56.7222 31.4044 57.9738C31.291 58.3799 31.2583 58.2708 31.3658 58.6163C30.7439 58.8663 30.9184 59.4451 30.3756 59.5839C30.121 59.2101 30.1101 59.1488 30.0329 58.7009C28.8652 58.65 27.2754 60.1789 25.4407 59.6431L25.4604 59.5267C25.6264 58.5935 26.3673 57.1553 26.8367 56.3078C28.1445 53.9465 29.6932 56.3616 31.1555 56.0098C31.4511 55.6596 31.4143 55.4355 31.4261 54.9855C31.2097 54.6141 30.8708 54.6386 30.3865 54.3946L30.2689 54.3342C30.7486 54.1779 31.0536 54.5014 31.8897 54.2411Z" fill="#989708"/>
<path d="M30.033 58.701C30.105 57.9053 30.0168 56.9628 30.7462 56.4614L31.0134 56.5844C31.3209 57.0786 31.3254 57.3922 31.4045 57.9738C31.291 58.3799 31.2584 58.2708 31.3658 58.6163C30.744 58.8663 30.9185 59.4451 30.3757 59.5839C30.121 59.2102 30.1102 59.1488 30.033 58.701Z" fill="#8F841B"/>
<path d="M26.9949 52.9599C29.5133 51.577 30.1993 51.7899 31.8897 54.2412C31.0536 54.5015 30.7486 54.1779 30.2689 54.3343C28.3288 54.5252 29.244 53.2278 27.2237 53.9166L26.9949 52.9599Z" fill="#8F841B"/>
<path d="M24.2646 55.883C25.1762 55.1494 24.719 54.3305 26.995 52.96L27.2238 53.9166C26.4809 54.5064 25.6276 55.7027 25.0195 56.4884L24.2646 55.883Z" fill="#716B13"/>
<path d="M24.2644 55.883L25.0193 56.4884C24.1567 57.4978 24.4774 58.095 23.9725 58.7309L23.5166 58.7163L23.3892 58.9204C23.3605 57.5425 23.4253 56.9622 24.2644 55.883Z" fill="#8F841B"/>
<path d="M23.3807 59.0843C24.5897 58.8763 24.5012 59.6644 25.4606 59.5267L25.4409 59.6432C24.8781 59.8686 23.8757 60.7314 23.5125 61.1632L23.4114 61.9328C23.2859 60.9868 23.3502 60.0394 23.3807 59.0843Z" fill="#C79301"/>
<path d="M21.6636 67.0439C22.2005 67.4061 22.3032 68.924 22.4015 69.5682C20.426 69.3269 18.6325 69.4389 16.6436 69.4049C16.2776 69.3513 16.1085 69.3578 15.8023 69.1474L15.7883 68.9157C16.4751 68.5378 20.1443 68.752 21.1198 68.7652C21.2423 68.1958 21.3364 67.5093 21.6636 67.0439Z" fill="#E1893C"/>
<path d="M27.1083 65.4304L27.476 65.681C27.8043 66.2399 27.9509 69.4015 27.5847 69.8903C27.1914 69.8427 27.0861 69.8459 26.7466 69.6487C26.6971 68.574 26.7089 66.3924 27.1083 65.4304Z" fill="#BE7A2F"/>
<path d="M39.3634 67.3333L39.4425 67.3784C39.4115 67.9474 39.4927 67.8025 39.2057 68.2496C38.7604 68.5106 38.1328 68.4715 37.6019 68.4864C37.4365 68.1185 37.4391 68.2667 37.5437 67.9229C37.8656 67.6279 38.8419 67.4802 39.3634 67.3333Z" fill="#904215"/>
<path d="M119.906 110.78C119.951 110.701 119.996 110.622 120.041 110.542C121.104 110.229 122.185 109.867 123.167 109.335C126.711 107.415 130.673 105.543 133.557 102.687C134.275 101.976 134.411 100.676 135.394 100.311C136.736 105.576 138.019 103.747 141.861 106.218C142.758 108.678 141.985 110.702 141.081 113.113C138.359 118.728 133.405 122.39 127.651 124.451C124.993 125.403 122.176 125.923 119.493 126.79L119.268 126.728C118.964 126.282 118.812 124.489 118.738 123.866C119.248 122.758 119.366 121.058 119.649 119.826C120.277 117.085 120.083 114.256 119.97 111.47L119.906 110.78Z" fill="#BAC973"/>
<path d="M119.906 110.78C119.951 110.701 119.996 110.622 120.041 110.542C121.104 110.229 122.185 109.867 123.167 109.335C126.711 107.415 130.673 105.543 133.557 102.687C134.275 101.976 134.411 100.676 135.394 100.311C136.736 105.576 138.019 103.747 141.861 106.218C142.758 108.678 141.985 110.702 141.081 113.113L120.253 112.578C120.06 112.394 120.017 111.774 119.97 111.47L119.906 110.78Z" fill="url(#paint6_linear_1_487)"/>
<path d="M87.2414 16.2863C85.0116 18.2375 81.8053 17.3035 80.5193 20.842C80.652 16.3582 83.1438 18.1706 86.0851 16.6947C86.362 16.5556 86.9418 16.3878 87.2414 16.2863Z" fill="#141714" fill-opacity="0.984314"/>
</g>
<defs>
<linearGradient id="paint0_linear_1_487" x1="103.012" y1="130.965" x2="83.4276" y2="57.4678" gradientUnits="userSpaceOnUse">
<stop stop-color="#195222"/>
<stop offset="1" stop-color="#2B6F35"/>
</linearGradient>
<linearGradient id="paint1_linear_1_487" x1="116.457" y1="74.5861" x2="115.232" y2="74.6291" gradientUnits="userSpaceOnUse">
<stop stop-color="#9A8355"/>
<stop offset="1" stop-color="#B2A679"/>
</linearGradient>
<linearGradient id="paint2_linear_1_487" x1="83.2693" y1="78.9269" x2="69.7736" y2="69.7648" gradientUnits="userSpaceOnUse">
<stop stop-color="#AF976B"/>
<stop offset="1" stop-color="#D3BF9A"/>
</linearGradient>
<linearGradient id="paint3_linear_1_487" x1="7.60744" y1="89.0654" x2="16.3581" y2="90.8802" gradientUnits="userSpaceOnUse">
<stop stop-color="#759010"/>
<stop offset="1" stop-color="#876D17"/>
</linearGradient>
<linearGradient id="paint4_linear_1_487" x1="43.1027" y1="103.219" x2="42.0332" y2="103.751" gradientUnits="userSpaceOnUse">
<stop stop-color="#284B30"/>
<stop offset="1" stop-color="#374334"/>
</linearGradient>
<linearGradient id="paint5_linear_1_487" x1="28.2121" y1="57.4575" x2="28.5674" y2="76.2189" gradientUnits="userSpaceOnUse">
<stop stop-color="#FFA700"/>
<stop offset="1" stop-color="#C1802D"/>
</linearGradient>
<linearGradient id="paint6_linear_1_487" x1="130.984" y1="112.525" x2="131.329" y2="100.721" gradientUnits="userSpaceOnUse">
<stop stop-color="#DCE0CC"/>
<stop offset="1" stop-color="#F7F5F3"/>
</linearGradient>
<clipPath id="clip0_1_487">
<rect width="144" height="144" fill="white"/>
</clipPath>
</defs>
</svg>
