<svg width="144" height="144" viewBox="0 0 144 144" fill="none" xmlns="http://www.w3.org/2000/svg">
<g clip-path="url(#clip0_1_758)">
<path d="M76.4173 45.1778C77.6745 44.9674 80.6788 45.0758 82.1157 45.0861C84.96 45.0972 87.8043 45.0935 90.6485 45.0748C102.061 45.0381 114.215 44.8434 125.576 45.0737C125.929 46.7622 126.084 49.2767 126.241 51.0649C126.995 59.6479 126.775 68.4521 126.81 77.0642C126.825 80.6476 126.492 83.5338 126.874 87.1967L127.182 87.0847C127.671 85.7517 127.372 85.6436 128.15 84.2236C130.755 82.6072 133.31 82.1546 135.057 85.1469C135.478 85.8592 135.793 86.6287 135.993 87.4314C136.919 91.2375 138.19 108.335 135.633 110.625L135.565 110.699C135.107 111.202 134.536 112.131 134.148 112.779C128.411 122.341 115.267 123.382 105.443 125.529C104.152 125.811 102.683 125.749 101.371 125.978C99.1609 126.3 97.1772 126.658 94.9252 126.793C93.4073 126.876 91.889 126.951 90.3702 127.016C84.5852 126.786 78.4184 127.219 72.6232 127.279C70.5006 127.384 68.1609 126.984 66.0667 127.066C62.5872 127.203 58.8749 126.87 55.4481 127.032C49.9442 126.828 45.2644 126.139 39.8471 125.269C36.2216 124.687 31.6265 124.216 28.1369 123.394C28.0519 123.234 28.0437 123.091 28.0085 122.908C28.2784 121.557 29.584 121.967 29.177 120.428C29.1188 118.814 29.0853 117.846 29.3096 116.243C31.1654 114.068 34.8882 113.3 37.4619 111.912C39.1047 111.027 40.6136 110.145 42.2312 109.232C44.2191 108.162 46.8925 106.295 48.1624 104.463C48.4083 104.108 48.6714 104.187 49.1872 104.123C51.193 103.888 53.4517 103.4 55.4012 103.235C59.0252 102.93 62.7142 103.196 66.1798 101.654C66.7784 101.388 68.3091 99.922 68.8445 99.4293C69.6088 99.2814 70.894 98.0224 71.7141 97.6392C72.3838 97.3262 73.0288 97.1618 73.7333 96.9604C73.5239 92.9454 74.3026 88.9299 74.5422 84.9586C74.8677 79.5633 74.8558 73.9672 74.5546 68.5723C74.4725 67.1006 74.6042 65.3194 74.4275 63.8916C73.8447 59.1854 73.4604 54.5262 73.8261 49.7832C73.9984 47.4725 74.7084 46.6233 76.4173 45.1778Z" fill="#FEFDFD"/>
<path d="M128.15 84.2235C130.755 82.6072 133.31 82.1545 135.057 85.1469C135.478 85.8591 135.793 86.6286 135.993 87.4313C136.919 91.2375 138.19 108.335 135.633 110.625L135.565 110.699C135.107 111.202 134.536 112.131 134.148 112.779C128.411 122.341 115.267 123.382 105.443 125.529C104.152 125.811 102.683 125.749 101.371 125.978C99.1609 126.3 97.1772 126.658 94.9252 126.793C93.4073 126.876 91.889 126.95 90.3702 127.016C84.5852 126.786 78.4184 127.219 72.6232 127.279C70.5006 127.384 68.1609 126.984 66.0667 127.066C62.5872 127.203 58.8749 126.87 55.4481 127.032C49.9442 126.828 45.2644 126.139 39.8471 125.269C36.2216 124.687 31.6265 124.216 28.1369 123.394C28.0519 123.233 28.0437 123.091 28.0085 122.908C28.2784 121.557 29.584 121.967 29.177 120.428C29.1188 118.814 29.0853 117.846 29.3096 116.243C31.1654 114.068 34.8882 113.3 37.4619 111.912C39.1047 111.027 40.6136 110.145 42.2312 109.232C44.2191 108.162 46.8925 106.294 48.1624 104.463C48.4083 104.108 48.6714 104.187 49.1872 104.123C51.193 103.888 53.4517 103.4 55.4012 103.235C59.0252 102.93 62.7142 103.196 66.1798 101.654C66.7784 101.388 68.3091 99.9219 68.8445 99.4293C69.6088 99.2814 70.894 98.0224 71.7141 97.6392C72.3838 97.3261 73.0288 97.1617 73.7333 96.9604C73.7811 97.8869 73.7802 98.5768 74.0486 99.4699C76.2507 101.375 79.5496 100.944 82.3611 100.953L92.4331 100.98C94.2924 100.988 96.7784 100.938 98.5674 101.129L98.7203 100.97C100.141 100.996 101.236 101.029 102.661 101.173C105.201 100.945 107.375 101.002 109.92 100.956L125.386 100.811C127.438 96.8353 125.795 91.0535 126.874 87.1966L127.182 87.0847C127.671 85.7517 127.372 85.6436 128.15 84.2235Z" fill="url(#paint0_linear_1_758)"/>
<path d="M128.15 84.2235C130.755 82.6072 133.31 82.1545 135.057 85.1469C135.478 85.8591 135.793 86.6286 135.993 87.4313C136.919 91.2375 138.19 108.335 135.634 110.625C134.923 110.452 134.086 110.394 133.353 110.375C125.801 110.175 118.268 109.45 110.711 109.408C107.713 109.392 104.623 109.506 101.636 109.352C101.114 109.402 100.448 109.538 100.02 109.283C99.7142 108.759 99.8193 108.758 99.8142 108.063C99.8465 107.485 99.915 107.673 99.6318 107.284C99.2628 107.199 99.1727 107.195 98.8495 107.01C98.6553 105.932 98.7223 102.226 98.7203 100.97C100.141 100.996 101.236 101.029 102.661 101.173C105.201 100.945 107.375 101.002 109.92 100.956L125.386 100.811C127.438 96.8353 125.795 91.0535 126.874 87.1966L127.182 87.0847C127.671 85.7517 127.372 85.6436 128.15 84.2235Z" fill="#E9E7E1"/>
<path d="M98.7203 100.97C100.141 100.996 101.236 101.029 102.661 101.173C102.821 102.414 102.991 105.373 102.566 106.501C101.991 108.027 101.655 107.364 101.636 109.352C101.114 109.402 100.448 109.538 100.02 109.283C99.7142 108.759 99.8193 108.758 99.8142 108.063C99.8465 107.485 99.915 107.673 99.6318 107.284C99.2628 107.199 99.1727 107.195 98.8495 107.01C98.6553 105.932 98.7223 102.226 98.7203 100.97Z" fill="#74AA44"/>
<path d="M68.8445 99.4293C69.6088 99.2814 70.894 98.0224 71.7141 97.6392C72.3837 97.3262 73.0288 97.1618 73.7333 96.9604C73.7811 97.887 73.7801 98.5769 74.0486 99.47C76.2506 101.375 79.5496 100.944 82.3611 100.953L92.4331 100.98C94.2924 100.988 96.7784 100.938 98.5674 101.129L98.7203 100.97C98.7222 102.226 98.6553 105.932 98.8495 107.01C99.1727 107.195 99.2628 107.199 99.6318 107.284C99.915 107.673 99.8465 107.485 99.8142 108.063C99.7713 108.48 99.7623 108.782 99.5892 109.171C98.0392 110.063 64.8419 108.887 59.5572 109.367C58.3893 109.473 42.65 109.411 42.2312 109.232C44.2191 108.162 46.8925 106.295 48.1623 104.463C48.4083 104.108 48.6714 104.187 49.1872 104.123C51.193 103.888 53.4517 103.4 55.4012 103.235C59.0252 102.93 62.7142 103.196 66.1798 101.654C66.7784 101.388 68.3091 99.922 68.8445 99.4293Z" fill="#E9E7E1"/>
<path d="M96.8378 61.1843C97.3812 61.7355 97.9262 62.9826 98.646 62.5793C98.7469 62.3502 98.9219 61.7794 98.8104 61.5358C98.281 60.3799 93.4974 54.2352 98.0801 55.6185C99.2602 56.61 99.0451 58.0406 99.2546 59.4945L99.4658 59.6427C100.825 59.4173 101.87 55.0515 103.841 56.7339C104.312 58.7316 101.931 60.0431 100.551 61.1951C101.656 61.7482 102.689 62.3699 103.869 62.7248C103.902 65.4694 103.666 67.0791 104.036 69.9454C104.475 69.7479 104.92 69.561 105.368 69.3847C108.708 68.1065 109.568 68.6863 110.741 71.8365C110.196 72.4879 109.139 73.3918 108.476 73.991C107.845 73.9975 107.563 73.9402 107.076 74.2707L107.045 74.5985C107.316 75.127 108.045 75.6478 108.525 76.0443C109.882 76.1285 111.149 76.0942 112.504 76.069L112.446 76.0093C111.816 75.3479 110.475 73.7881 111.434 72.9629L111.671 72.9978C112.033 73.8023 112.886 76.575 114.006 76.0164C115.137 74.163 110.839 72.1239 112.331 70.2727C113.076 69.3474 115.947 69.2449 116.853 70.0943C118.05 71.2166 115.936 73.0686 115.171 73.8149C115.922 73.7113 117.317 73.2626 117.893 73.3467L118.046 73.6463C117.934 75.1881 117.076 75.0221 115.674 75.3312L115.01 76.7465C116.89 78.3192 117.269 78.708 118.607 80.7328C116.214 82.9397 114.645 82.1934 112.789 86.1913C111.616 86.8123 111.216 87.3993 110.384 88.4051C109.903 86.2354 110.277 85.6686 108.599 84.1308C108.282 84.6096 107.499 85.6675 107.427 86.1679C108.071 86.6326 108.316 85.8512 109.042 86.9802C109.072 87.6139 108.835 87.6863 108.36 88.0846L108.437 88.3474C109.223 88.7322 110.126 87.7361 110.251 89.4403C110.115 90.4791 109.173 91.0862 108.402 91.6868C104.183 88.9096 107.761 89.3094 106.846 87.062L106.59 86.98C105.733 87.2566 104.766 88.2044 104.142 88.8396C103.283 87.3082 103.156 86.942 102.747 85.2555C103.558 85.7967 105.161 87.474 105.833 85.688C105.641 84.5097 103.924 84.3697 102.986 84.1872C102.834 83.5867 102.719 83.034 102.598 82.4284C101.529 82.4146 100.743 82.4094 99.688 82.2657C99.699 82.8007 99.6916 83.4327 99.7125 83.9569C99.8179 86.6155 98.9394 86.5768 96.719 86.4421C96.3858 85.3354 96.3176 84.6092 96.1805 83.4537C96.8088 83.3937 98.5492 83.4397 98.9385 83.2067C99.248 81.203 97.1733 81.6901 96.1587 80.9038C95.4778 80.3764 95.555 78.0885 95.5308 77.2009C92.8628 77.2311 91.1484 77.2064 88.4913 76.8969C88.367 75.782 88.2827 74.651 88.159 73.5255C87.0476 74.5828 85.6439 77.0324 83.856 76.9827C83.2218 76.6407 82.9504 75.9824 83.1613 75.2854C83.6252 75.0617 84.547 75.1024 85.0986 75.09C85.2891 73.8692 86.6807 71.6682 86.4365 71.1869C85.7619 70.898 83.0402 70.9799 82.1442 70.9808L82.144 69.1356L82.2021 69.1444C84.4049 69.4561 94.7051 69.2729 96.5177 68.7453C96.9486 67.8576 96.0462 67.3078 95.4086 66.8048C96.6906 64.1665 96.4795 64.127 96.8378 61.1843Z" fill="black"/>
<path d="M102.064 70.9374C102.178 70.396 102.35 70.7178 102.244 70.0017C102.144 69.3304 101.669 68.5045 101.723 67.8721L101.952 67.7268C102.973 71.2659 102.134 72.7 105.41 74.6817L104.747 75.9949C103.247 76.1891 102.849 76.4055 101.829 77.594C101.807 78.5523 101.783 79.4814 101.803 80.4403C99.0056 80.4718 98.6433 80.3738 97.5159 77.7184C97.9803 77.2325 99.0541 76.2525 99.081 75.6086C98.424 75.3557 96.9426 74.9112 96.4856 74.5411L96.4829 74.3376C97.3961 74.0267 98.7143 74.0383 99.6863 73.7751C99.7201 74.6392 99.7546 75.4686 99.7472 76.3342C100.485 75.7642 101.145 75.2782 101.806 74.6174C101.809 73.4964 101.695 71.9377 102.064 70.9374Z" fill="#FEFDFD"/>
<path d="M99.8762 63.1567C100.476 63.3905 101.202 63.6214 101.82 63.836C101.8 65.1055 101.871 66.4602 101.952 67.7268L101.723 67.8721C101.669 68.5045 102.144 69.3304 102.244 70.0017C102.35 70.7178 102.178 70.3961 102.064 70.9375C102.04 70.812 100.241 67.8174 100.184 67.7893C99.7032 68.3332 99.8012 70.2281 99.0472 71.1414C98.2037 72.163 97.5277 72.5251 96.1744 72.757C95.4854 72.875 95.5182 72.1384 95.3274 72.062C94.5434 71.7482 93.4129 72.333 92.6307 71.6006C92.1376 71.139 91.3918 70.5029 91.3271 69.8103L91.5491 69.6912C93.0712 69.7125 94.4051 70.5682 95.6052 71.3797C99.3079 68.5591 98.1375 66.4182 99.8762 63.1567Z" fill="#E9E7E1"/>
<path d="M113.511 79.2897L113.776 79.4627C114.338 79.0493 113.998 78.5427 114.606 78.1375C115.417 78.2713 115.66 79.0044 116.054 79.6835C115.334 80.8822 114.515 81.5597 113.498 82.5203C113.047 83.1136 112.793 83.3698 112.088 83.5958C110.567 83.3335 111.102 80.0657 111.21 78.889C112.044 78.898 112.78 78.8748 113.511 79.2897Z" fill="#E9E7E1"/>
<path d="M113.511 79.2897L113.776 79.4627C114.338 79.0493 113.998 78.5427 114.606 78.1375C115.417 78.2713 115.66 79.0044 116.054 79.6835C115.334 80.8822 114.515 81.5597 113.498 82.5203C113.423 81.6003 113.2 80.0912 113.511 79.2897Z" fill="#E9E7E1"/>
<path d="M105.36 78.1703C106.273 78.1092 106.925 78.2412 107.824 78.3771C108.027 79.8481 108.009 80.8651 108.004 82.3374L106.545 82.3738L105.082 82.2322C104.417 81.6718 104.195 81.498 103.695 80.7555C104.143 79.7676 104.67 78.9961 105.36 78.1703Z" fill="#FEFDFD"/>
<path d="M89.1601 70.9795C89.5362 70.9427 89.8518 70.8531 90.1692 71.1346C91.8303 72.6074 92.3561 73.6351 94.3913 74.6467C92.1289 76.736 91.593 76.0939 89.7631 73.8806C89.6177 73.7051 89.4746 73.5276 89.334 73.3481C89.2811 72.8394 89.2325 72.21 89.145 71.7175L89.1601 70.9795Z" fill="#E9E7E1"/>
<path d="M107.484 70.911C108.308 70.938 108.826 70.9363 109.137 71.7638C109.11 72.2915 109.022 72.379 108.725 72.8096C108.104 72.4431 106.911 71.9293 107.088 71.1212L107.484 70.911Z" fill="#E9E7E1"/>
<path d="M113.788 70.9347C114.421 70.8288 114.96 70.6476 115.439 71.136C115.381 71.7034 115.375 71.5611 114.998 72.0783C114.473 72.1257 113.89 72.1355 113.528 71.6836C113.515 71.1852 113.46 71.384 113.788 70.9347Z" fill="#E9E7E1"/>
<path d="M105.148 71.05C105.941 71.3172 106.442 72.2465 106.31 73.0731C105.14 72.9447 104.766 72.0676 105.148 71.05Z" fill="#E9E7E1"/>
<path d="M89.145 71.7175C88.3856 71.7183 87.9429 72.1056 87.2393 71.4966L87.3277 71.2616C87.8472 70.9335 88.5313 70.9921 89.1601 70.9795L89.145 71.7175Z" fill="#E9E7E1"/>
<path d="M82.1511 54.4161C86.3077 54.3659 90.4647 54.3703 94.6211 54.4293C94.4278 58.3873 94.6275 62.6618 94.4965 66.7254C91.1004 66.9411 85.6837 66.7717 82.1394 66.7685C82.1937 62.6875 82.1488 58.5053 82.1511 54.4161Z" fill="black"/>
<path d="M84.1521 56.4272C86.895 56.3679 89.639 56.4103 92.3787 56.5543C92.4864 58.2055 92.691 63.1336 92.3497 64.5967L92.1264 64.7135C89.4693 64.8094 86.8154 64.7754 84.1563 64.7722C84.2764 62.3482 84.159 58.9279 84.1521 56.4272Z" fill="#FEFDFD"/>
<path d="M86.7642 58.5672C87.9655 58.5404 89.1674 58.5325 90.3691 58.544C90.401 59.9316 90.4225 61.1134 90.3514 62.5075C90.0192 62.7618 89.4737 63.0968 89.1091 63.336C88.3936 63.5572 87.3638 63.8521 86.6685 63.514C85.9613 62.7041 85.5229 59.8447 86.0619 58.833C86.1745 58.6215 86.5193 58.6181 86.7642 58.5672Z" fill="black"/>
<path d="M106.025 54.3517C109.479 54.5514 114.775 54.3875 118.375 54.3949C118.271 58.4489 118.182 62.7103 118.326 66.7654C114.217 66.8258 110.022 66.7925 105.907 66.8018C106.127 62.962 106.003 58.2792 106.025 54.3517Z" fill="black"/>
<path d="M108.34 56.4483C110.931 56.3685 113.524 56.4033 116.112 56.5525C116.159 58.0621 116.386 63.4662 115.956 64.6305L115.629 64.7122C113.092 64.7963 110.554 64.8104 108.017 64.7541C107.913 62.9198 107.779 58.3973 108.076 56.6238L108.34 56.4483Z" fill="#FEFDFD"/>
<path d="M111.753 58.1268C112.598 58.0462 113.434 58.3931 114.228 58.6685C114.342 59.7997 114.274 61.117 114.185 62.2467C113.353 63.1818 112.994 63.5944 111.763 63.8C108.862 63.9053 108.937 60.7615 109.192 58.6983C110.175 58.3615 110.732 58.2341 111.753 58.1268Z" fill="black"/>
<path d="M82.264 78.8957C84.8486 78.9048 92.0101 78.6756 94.1443 79.4464C94.5752 80.7857 94.7466 89.9491 94.4266 91.038L94.1134 91.1368C90.4033 91.0883 85.9299 91.2602 82.2184 91.5096C82.1008 88.3297 82.005 81.8838 82.264 78.8957Z" fill="black"/>
<path d="M84.1512 80.951C85.9231 81.0472 90.7902 80.775 92.0514 81.5012C92.5963 82.2122 92.7135 88.1211 92.3555 88.6387C90.065 88.9101 86.4687 88.8962 84.1604 88.8239C84.1015 86.2 84.0984 83.5751 84.1512 80.951Z" fill="#FEFDFD"/>
<path d="M86.3306 82.4073C87.5887 82.3419 89.1191 82.3786 90.397 82.376C90.401 83.1614 90.4847 86.9904 90.2445 87.4824L86.2246 87.4681C85.7829 85.3648 85.8306 84.4833 86.3306 82.4073Z" fill="black"/>
<path d="M101.299 85.2837L101.603 85.5364C101.937 86.8546 101.821 89.2652 101.794 90.6893L100.114 90.5387L100.544 88.7415C100.066 88.4798 99.5255 88.2242 99.034 87.9791L98.5757 89.306C98.372 90.0385 98.1152 90.5816 97.3461 90.7833C95.9961 90.1886 96.4094 88.603 96.6836 87.4884C97.923 87.5053 99.0938 87.667 100.431 87.6652C100.692 86.7843 100.865 86.0985 101.299 85.2837Z" fill="black"/>
<path d="M112.776 88.0203C113.366 88.5404 112.724 88.6649 113.294 89.528C114.813 90.0536 116.029 87.5209 117.353 88.9681C117.493 89.4663 117.365 89.8167 117.18 90.2992C117.076 90.5705 116.76 90.5668 116.423 90.6478L113.489 91.1246C112.495 90.578 111.546 89.5363 110.723 88.7185C111.743 88.5051 111.823 88.5313 112.776 88.0203Z" fill="black"/>
<path d="M115.493 83.306C116.45 83.3787 116.902 83.4584 117.664 84.1556C118.029 84.4914 118.241 84.9617 118.251 85.4574C118.272 86.223 117.763 86.6371 117.257 87.1663C116.603 87.5863 115.673 87.3547 114.896 87.2568C115.512 85.7282 115.578 84.9236 115.493 83.306Z" fill="black"/>
<path d="M99.7411 54.4396C100.515 54.3922 101.443 54.4229 102.229 54.4285C101.796 54.9156 101.241 55.4684 100.783 55.947C100.638 56.0906 100.074 56.829 99.914 57.0297C99.81 56.0997 99.7136 55.3782 99.7411 54.4396Z" fill="black"/>
<path d="M123.11 95.752L123.341 95.856L123.41 96.128C123.04 96.9274 121.643 97.8162 120.784 97.9969L120.48 97.6123L120.52 97.3158C121.048 96.9002 122.374 96.2209 123.11 95.752Z" fill="#90806B"/>
<path d="M120.751 47.5021C121.653 47.9097 122.777 48.9336 123.079 49.9084C121.881 49.653 121.356 48.4838 120.751 47.5021Z" fill="#5E5F68"/>
<path d="M78.4898 97.593C77.7819 97.7719 77.5835 97.9076 77.011 97.5765L76.947 97.3007L77.1985 97.0307C77.608 96.8484 78.1345 97.0591 78.5873 97.1827L78.4898 97.593Z" fill="#90806B"/>
<path d="M78.7664 48.2808L78.9335 48.2893L78.8056 48.5343C78.2805 48.9241 78.0283 48.9586 77.3865 49.1248C77.0956 48.9328 77.1825 49.0612 77.0999 48.7399C77.3987 48.4771 78.322 48.3661 78.7664 48.2808Z" fill="#5E5F68"/>
<path d="M78.5872 97.1827C79.0238 97.2421 79.3959 97.2134 79.6935 97.452C79.3047 97.6588 78.9426 97.6012 78.4897 97.5931L78.5872 97.1827Z" fill="#B4B3B5"/>
<path d="M43.5601 24.0963C43.8742 24.0608 45.0929 23.9211 45.3114 23.8235C46.6475 23.2264 46.7817 22.9019 48.3166 22.6832C51.8755 22.1764 55.3519 22.9148 58.9512 23.0733C61.6927 22.668 64.3737 25.4499 64.4032 27.9891C65.7041 31.1906 65.3865 33.6767 65.8526 36.9495C66.3278 40.2865 66.6877 43.9259 66.0881 47.2756C66.216 49.6436 67.0728 54.4647 66.9225 56.4737C67.1077 57.0513 67.3679 57.7869 67.5131 58.3613C68.4847 58.3186 69.2666 58.2183 70.0952 58.6282C73.5689 60.3468 72.6803 64.5575 70.9012 67.2069C70.7519 67.4294 72.481 68.6343 72.762 68.8421C72.9742 70.2122 73.0325 72.3753 72.9892 73.7901C72.1522 74.3755 71.3509 74.497 70.9544 74.9745C70.9514 77.4181 74.031 76.3032 72.8006 81.9723C72.3064 82.5876 70.5594 84.3956 69.9083 84.7804L69.8323 84.9953C70.436 85.3395 71.7773 85.1455 72.7833 85.2841C73.1945 88.956 72.2061 90.6762 69.1665 92.7926C69.1135 94.7537 69.2881 97.6968 68.8446 99.4293C68.3092 99.9219 66.7785 101.388 66.1799 101.654C62.7143 103.196 59.0253 102.93 55.4013 103.235C53.4518 103.4 51.1931 103.888 49.1873 104.123C48.6715 104.187 48.4084 104.108 48.1624 104.463C46.8926 106.294 44.2192 108.162 42.2313 109.232C40.6137 110.145 39.1048 111.027 37.462 111.912C34.8883 113.3 31.1655 114.068 29.3097 116.243C29.0854 117.846 29.1189 118.814 29.1771 120.428C29.5841 121.967 28.2785 121.557 28.0086 122.908C28.0438 123.091 28.0519 123.233 28.137 123.394C27.1339 123.248 25.9576 122.809 24.8707 122.567C15.998 120.589 8.75126 113.976 7.66059 104.742C7.5713 103.986 8.62915 103.207 9.18796 102.799C10.1907 101.576 13.2515 98.4625 13.5973 97.1191C14.1046 95.1487 13.687 91.1795 13.8723 88.9738C14.1152 86.0833 14.5553 82.9724 15.1338 80.1412C15.9851 76.1837 17.8097 72.5779 19.4437 68.9123C20.5033 66.5351 21.5156 64.6931 21.8166 62.0491C21.9446 60.9246 21.8531 58.4448 22.4354 57.6043C23.3511 57.2983 23.9231 57.5797 24.8868 57.438L24.9873 57.4224C25.5196 54.8128 23.541 47.7381 23.955 44.4311C24.0527 43.6505 23.1838 40.4567 23.1808 39.3194C23.1713 35.5678 22.5562 31.3039 23.5593 27.6786C23.7063 27.1502 25.6418 26.0505 26.2376 25.2732C27.445 25.0655 28.9152 24.9245 30.1882 24.7287C31.7837 24.4832 34.1708 23.999 35.7202 23.9369C38.2667 23.8346 40.9665 24.2747 43.5601 24.0963Z" fill="#E9E7E1"/>
<path d="M24.9873 57.4224C28.3139 57.7421 27.7137 58.9351 28.6315 61.5456C28.688 62.3658 28.787 63.4029 28.7989 64.2077C28.6891 66.2487 28.544 67.6277 28.0542 69.6437C27.5679 71.6459 26.4502 74.3079 26.3862 76.2812C26.3241 78.1956 28.2587 80.6749 28.8098 82.5177C29.4962 84.8125 29.8479 87.4068 30.0784 89.803C30.2124 91.1593 30.2659 92.5224 30.2389 93.8849C30.157 96.8573 29.4585 100.514 31.5671 102.906C32.7657 104.272 34.4635 105.096 36.2774 105.194C38.803 105.329 41.4063 104.681 43.8862 104.351C45.3717 104.153 47.6548 104.08 49.1873 104.123C48.6715 104.187 48.4084 104.108 48.1624 104.463C46.8926 106.294 44.2192 108.162 42.2313 109.232C40.6137 110.145 39.1048 111.027 37.462 111.912C34.8883 113.3 31.1655 114.068 29.3097 116.243C29.0854 117.846 29.1189 118.814 29.1771 120.428C29.5841 121.967 28.2785 121.557 28.0086 122.908C28.0438 123.091 28.0519 123.233 28.137 123.394C27.1339 123.248 25.9576 122.809 24.8707 122.567C15.998 120.589 8.75126 113.976 7.66059 104.742C7.5713 103.986 8.62915 103.207 9.18796 102.799C10.1907 101.576 13.2515 98.4625 13.5973 97.1191C14.1046 95.1487 13.687 91.1795 13.8723 88.9738C14.1152 86.0833 14.5553 82.9724 15.1338 80.1412C15.9851 76.1837 17.8097 72.5779 19.4437 68.9123C20.5033 66.5351 21.5156 64.6931 21.8166 62.0491C21.9446 60.9246 21.8531 58.4448 22.4354 57.6043C23.3511 57.2983 23.9231 57.5797 24.8868 57.438L24.9873 57.4224Z" fill="url(#paint1_linear_1_758)"/>
<path d="M28.137 123.394C27.1339 123.248 25.9576 122.809 24.8707 122.567C15.998 120.589 8.75126 113.976 7.66059 104.742C7.5713 103.986 8.62915 103.207 9.18796 102.799C10.4642 104.945 16.0102 109.016 18.2182 111.136C20.0494 112.926 21.8636 114.733 23.6606 116.557C25.832 118.735 26.1289 119.537 29.1771 120.428C29.5841 121.967 28.2785 121.557 28.0086 122.908C28.0438 123.091 28.0519 123.234 28.137 123.394Z" fill="#1E602C"/>
<path d="M43.5599 24.0963C43.8741 24.0608 45.0927 23.9211 45.3113 23.8235C46.6473 23.2264 46.7815 22.9019 48.3164 22.6832C51.8754 22.1764 55.3518 22.9148 58.951 23.0733C61.6925 22.668 64.3736 25.4499 64.4031 27.9891C65.704 31.1906 65.3863 33.6767 65.8525 36.9495C66.3277 40.2865 66.6875 43.9259 66.0879 47.2756C66.2159 49.6436 67.0727 54.4647 66.9224 56.4737C66.6172 57.9085 66.1357 58.8182 67.2807 59.8832L67.3743 59.9688C67.1308 60.5154 65.3624 61.7654 64.7525 61.8848C64.5183 61.7435 64.586 61.8398 64.4699 61.631C63.6356 56.8478 63.4034 52.8854 63.4011 48.0458C63.4 45.7932 62.7251 42.9587 62.6035 40.6098C62.4611 37.8559 62.5075 34.331 61.6219 31.7428C54.9778 30.8341 47.9611 32.7444 41.3881 32.6148C36.4145 32.5168 32.0605 33.4762 27.1792 33.7481C27.15 36.1677 27.1476 38.9032 27.321 41.3112C27.626 43.9118 28.1246 46.4297 28.2 49.059C28.3145 53.0495 29.3011 56.8743 29.3863 60.8802C29.3263 60.9363 28.6239 61.557 28.6313 61.5456C27.7136 58.9351 28.3138 57.7421 24.9872 57.4224C25.5194 54.8128 23.5408 47.7381 23.9548 44.4311C24.0526 43.6505 23.1836 40.4567 23.1807 39.3194C23.1711 35.5678 22.556 31.3039 23.5591 27.6786C23.7062 27.1502 25.6416 26.0505 26.2375 25.2732C27.4449 25.0655 28.9151 24.9245 30.188 24.7287C31.7836 24.4832 34.1707 23.999 35.7201 23.9369C38.2665 23.8346 40.9664 24.2747 43.5599 24.0963Z" fill="url(#paint2_linear_1_758)"/>
<path d="M66.0881 47.2756C65.948 44.0921 64.8473 40.363 64.6195 37.1438C64.4121 34.2131 64.3813 30.9431 64.4032 27.9891C65.7041 31.1906 65.3865 33.6767 65.8526 36.9495C66.3278 40.2865 66.6877 43.9259 66.0881 47.2756Z" fill="#B4B3B5"/>
<path d="M43.5601 24.0963C43.8742 24.0608 45.0929 23.9211 45.3114 23.8235C46.6475 23.2264 46.7816 22.9019 48.3166 22.6832C51.8755 22.1764 55.3519 22.9148 58.9512 23.0733C57.5203 23.2288 55.4514 23.2323 53.96 23.338C51.6325 23.5028 45.5893 24.4932 43.5601 24.0963Z" fill="#B4B3B5"/>
<path d="M28.7989 64.2077C29.0009 64.304 28.8916 64.2805 29.1411 64.2392L29.157 64.3321C29.2437 63.9745 29.146 64.1074 29.4523 63.9159L29.5586 64.5424L29.6664 64.4794L29.738 64.1547C30.4081 67.2858 30.0443 70.7805 30.6174 74.0015C31.3583 78.1656 31.2011 82.5701 31.9119 86.752C32.3004 89.0369 32.1414 91.4622 32.4517 93.6844C34.5858 94.5335 37.0871 93.8156 39.3746 93.7786C41.3198 93.7471 43.3518 93.5529 45.2906 93.3619C48.7045 92.8572 52.1032 92.7574 55.5268 92.4532C58.9132 92.1523 62.0108 91.4792 65.4474 91.7211C66.02 93.2903 67.8847 92.3371 69.1665 92.7927C69.1135 94.7537 69.2881 97.6968 68.8446 99.4293C68.3092 99.9219 66.7785 101.388 66.1799 101.654C62.7143 103.196 59.0253 102.93 55.4012 103.235C53.4518 103.4 51.193 103.888 49.1873 104.123C47.6548 104.08 45.3717 104.153 43.8862 104.351C41.4062 104.681 38.803 105.329 36.2774 105.195C34.4634 105.096 32.7657 104.272 31.5671 102.906C29.4585 100.514 30.1569 96.8573 30.2389 93.8849C30.2659 92.5224 30.2124 91.1593 30.0783 89.803C29.8479 87.4069 29.4962 84.8125 28.8098 82.5178C28.2587 80.6749 26.3241 78.1957 26.3862 76.2812C26.4502 74.3079 27.5679 71.6459 28.0542 69.6437C28.544 67.6277 28.6891 66.2487 28.7989 64.2077Z" fill="#2D3027"/>
<path d="M52.5412 98.8565C51.5629 99.6921 50.7145 100.262 49.3768 99.8616C48.7418 99.6734 48.213 99.2309 47.916 98.6389C46.8561 96.5531 48.6419 95.3321 50.2656 94.5543C50.5549 94.7933 52.4472 96.19 52.7119 96.2982C53.2169 97.1668 53.1372 98.0629 52.5412 98.8565Z" fill="#545C29"/>
<path d="M52.7119 96.2982C53.2169 97.1668 53.1371 98.0629 52.5412 98.8565C51.768 98.11 52.0107 96.9985 52.7119 96.2982Z" fill="#767E3B"/>
<path d="M64.4701 61.631C64.5862 61.8399 64.5184 61.7435 64.7527 61.8849C65.3626 61.7655 67.131 60.5155 67.3745 59.9688L67.2809 59.8832C66.1359 58.8183 66.6174 57.9086 66.9226 56.4738C67.1078 57.0513 67.3679 57.7869 67.5132 58.3614C68.4848 58.3186 69.2666 58.2183 70.0952 58.6283C73.5689 60.3468 72.6803 64.5576 70.9013 67.207C70.7519 67.4294 72.481 68.6343 72.762 68.8421C72.9742 70.2123 73.0326 72.3753 72.9893 73.7902C72.1523 74.3756 71.351 74.4971 70.9544 74.9745C70.9515 77.4182 74.031 76.3033 72.8007 81.9723C72.3064 82.5877 70.5594 84.3957 69.9083 84.7804L69.8324 84.9953C70.4361 85.3396 71.7774 85.1455 72.7834 85.2842C73.1946 88.956 72.2061 90.6763 69.1665 92.7927C67.8847 92.3371 66.02 93.2904 65.4474 91.7211C65.5316 91.3232 65.5079 89.2744 65.5101 88.762C65.3349 86.7237 64.5179 84.2719 64.4836 82.4953C64.3899 77.6336 64.4663 72.3448 64.6893 67.5175L64.6794 67.2266C64.6929 66.6558 64.6257 65.4468 64.8696 65.0448L65.1078 65.3199C65.1474 64.7076 65.0911 62.9175 64.7008 62.4794L64.512 62.6757C64.3756 62.3825 64.4476 61.9737 64.4701 61.631Z" fill="#F9AE61"/>
<path d="M69.8322 84.9953C70.4359 85.3396 71.7772 85.1455 72.7832 85.2841C73.1944 88.956 72.206 90.6763 69.1664 92.7927C67.8846 92.337 66.0199 93.2903 65.4473 91.7211C65.5315 91.3231 65.5077 89.2744 65.51 88.7619C65.6953 87.489 65.0822 87.1816 66.084 86.1564L66.421 86.4222C67.1238 86.5994 68.8329 85.4155 69.8322 84.9953Z" fill="#F9AE61"/>
<path d="M64.6794 67.2266C64.6929 66.6558 64.6257 65.4467 64.8696 65.0448L65.1078 65.3199C65.1818 65.8137 65.1836 66.2079 65.5351 66.554C66.0439 66.9091 66.9514 66.8494 67.6223 66.8829C67.5544 67.8244 67.5594 68.4759 67.6895 69.4164C67.7189 69.6293 66.4631 70.9368 65.9158 70.9376C65.5229 70.5963 64.9473 68.2633 64.6893 67.5174L64.6794 67.2266Z" fill="black"/>
<path d="M66.084 86.1564C66.7885 84.9772 68.5795 84.034 69.9081 84.7804L69.8322 84.9953C68.8329 85.4155 67.1238 86.5994 66.4209 86.4222L66.084 86.1564Z" fill="black"/>
<path d="M65.4893 77.4589C66.3376 77.0074 66.5174 77.4343 67.2991 77.2327C67.5878 77.1583 67.963 76.3548 68.5502 76.1631C68.6684 76.5314 68.469 77.5135 68.3666 77.9122C68.0412 78.1946 68.1963 78.1116 67.7072 78.1777C66.7547 78.2217 65.7954 78.5005 65.4893 77.4589Z" fill="#220B02"/>
<path d="M65.4893 77.4589C66.1741 77.5238 66.9058 77.3976 67.3631 77.6624C67.4809 77.8275 67.614 77.9995 67.7072 78.1777C66.7547 78.2217 65.7954 78.5005 65.4893 77.4589Z" fill="black"/>
<path d="M28.6314 61.5457C28.624 61.5571 29.3264 60.9364 29.3864 60.8802L29.738 64.1547L29.6664 64.4794L29.5585 64.5424L29.4522 63.9159C29.146 64.1075 29.2437 63.9746 29.1569 64.3322L29.141 64.2392C28.8916 64.2806 29.0008 64.304 28.7989 64.2077C28.7869 63.4029 28.6879 62.3658 28.6314 61.5457Z" fill="black"/>
<path d="M64.512 62.6757L64.7008 62.4794C65.0911 62.9175 65.1474 64.7076 65.1078 65.3199L64.8696 65.0449C64.6257 65.4468 64.6929 66.6559 64.6794 67.2266C64.5411 66.5571 64.5426 63.5933 64.512 62.6757Z" fill="#91671F"/>
<path d="M44.9142 53.2153C48.6358 53.514 48.8843 53.2038 48.914 57.1739C49.6473 57.9001 50.078 58.4044 51.1285 58.6205C51.4912 58.6952 51.8682 58.755 52.1909 58.9251L52.2217 59.4324L52.8356 59.0568C53.264 58.9275 57.9265 58.6191 58.6248 58.5956C58.7052 59.7836 58.7667 60.8328 58.9654 62.013L59.2729 62.5218C59.0589 64.1769 56.7423 65.0467 56.4696 66.1725C56.1509 67.4883 56.2599 70.0128 56.0442 71.5724C52.888 75.2157 53.4734 71.3257 52.4521 70.5904C52.0199 71.0045 52.0012 72.8716 51.9737 73.5023C51.8278 73.3088 51.6751 73.1204 51.5159 72.9376C50.9671 72.3112 49.3022 70.7665 48.433 70.7054C47.4315 71.2519 48.2561 73.1412 47.7822 73.9512C47.3865 73.996 47.2942 74.0281 46.9636 73.8201C46.3518 72.9595 47.0753 71.4046 47.7094 70.707L47.8809 70.519C47.6531 70.1162 47.2314 69.6662 46.9687 69.2404C45.9884 67.6515 45.8561 66.4591 45.7865 64.6993C44.2034 64.9682 43.9942 64.7173 43.4248 63.2506L43.2416 63.1928C43.1371 63.2849 42.7595 63.6198 42.6484 63.6233C41.5392 63.6584 36.8614 65.0184 36.1767 64.4852C36.0258 63.9258 35.9376 63.5468 36.339 63.0942C37.5029 62.5788 41.3555 62.6891 42.8447 62.685C42.825 62.0478 42.8481 60.9957 42.5619 60.4613C41.8814 60.2983 40.9395 62.162 39.7282 61.2949C39.5105 60.8676 39.6317 60.0985 39.6667 59.5883C41.2971 59.6567 42.5293 59.6267 44.1518 59.564C44.1866 60.5052 44.4138 62.3357 45.4007 62.7432C45.6718 62.5781 45.8331 62.4616 45.9067 62.0779C46.4686 59.9134 44.7555 59.737 43.8233 58.2569C43.2586 57.3603 44.3614 56.659 44.4511 55.9658C44.5862 54.9234 44.5947 54.2624 44.9142 53.2153Z" fill="black"/>
<path d="M54.4836 63.7446C55.0177 62.6483 55.1257 61.27 55.8348 60.4233C57.0984 59.8383 58.1483 61.2231 58.8921 61.9431L58.9654 62.013L59.2729 62.5217C58.3745 62.6839 56.2776 62.4894 55.7223 63.081C56.0249 63.6172 56.8952 63.5216 57.2766 64.1177C57.0472 65.8884 55.0917 64.3476 54.4836 63.7446Z" fill="#E9E7E1"/>
<path d="M52.8354 59.0568L52.8493 59.1161C53.0942 60.1293 54.5214 61.5578 54.217 62.7863L53.8712 62.9254C53.2719 62.6459 52.886 62.3 52.4085 61.8413C52.1231 60.9475 51.8451 60.3225 52.2216 59.4324L52.8354 59.0568Z" fill="#E9E7E1"/>
<path d="M47.9519 64.8248L49.8224 64.8601L50.067 64.9565C50.0533 66.2061 50.0372 68.7505 50.3524 69.9648C50.7727 69.681 50.9527 68.1788 51.5821 67.8455C52.1901 68.3324 52.3485 70.03 51.8488 70.7463C50.1215 71.6787 48.5248 68.8341 48.1606 67.4989C47.9037 66.5573 47.9433 65.7866 47.9519 64.8248Z" fill="#E9E7E1"/>
<path d="M49.8223 64.8601C51.6221 62.0408 53.8166 65.1034 53.513 66.4695C53.0464 67.0004 53.0236 66.7723 52.4732 66.8461C50.8283 67.0668 51.0412 64.9176 50.067 64.9565L49.8223 64.8601Z" fill="#E9E7E1"/>
<path d="M46.2785 53.8338C46.7216 54.1827 47.2294 55.6043 47.431 56.1658C47.182 57.2583 47.1363 58.2212 46.0564 58.7294C45.2769 58.546 45.081 58.5484 44.7378 57.8C44.7109 57.0033 45.2516 56.5047 45.7693 55.9475C45.8178 55.1346 45.7994 54.4943 46.2785 53.8338Z" fill="#E9E7E1"/>
<path d="M47.6287 61.4298C48.5191 61.6291 50.1028 62.6028 50.2599 63.5617C48.183 64.3403 47.733 63.1951 47.6287 61.4298Z" fill="#E9E7E1"/>
<path d="M53.96 65.5552C55.4458 65.8381 55.4413 66.7401 55.379 68.0049C53.9372 67.6381 53.6513 66.9374 53.96 65.5552Z" fill="#E9E7E1"/>
<path d="M48.3824 58.1659C49.086 58.8347 49.5036 60.0836 48.5771 60.76C47.0502 60.2736 47.8612 59.2607 48.3824 58.1659Z" fill="#E9E7E1"/>
<path d="M54.2154 68.7488C54.825 68.845 54.7257 68.7443 55.1639 69.0936C55.4739 69.8049 55.1588 70.4669 54.906 71.1975C54.589 71.2384 54.7132 71.2485 54.4014 71.0878C54.069 70.4367 54.1776 69.4823 54.2154 68.7488Z" fill="#E9E7E1"/>
<path d="M50.361 60.4226C51.1965 60.5729 51.1046 61.9506 50.5722 62.4991C50.2626 61.9819 49.8847 61.7383 49.7139 61.1706C49.8645 60.6908 49.8887 60.7925 50.361 60.4226Z" fill="#E9E7E1"/>
<path d="M50.0024 51.0843C49.8161 51.3472 49.8085 54.0946 49.7829 54.6533C49.6882 53.7405 49.5224 49.4748 49.8199 48.8966C49.9595 48.625 50.5084 48.9939 50.8792 48.9067C50.6573 48.1915 51.2819 47.2549 51.6602 46.41C53.3742 45.1929 56.3167 45.8941 58.3268 46.1445C58.659 46.7022 57.9006 47.1908 58.1442 47.9798C58.5598 48.24 58.4531 48.1576 59.0509 48.0783C58.5193 48.889 58.6811 48.284 58.2943 48.9344L58.2749 49.0699C58.0076 51.0703 58.9286 55.4109 57.9566 57.0411C57.5884 57.6586 50.8875 57.877 50.3772 56.6614C49.8145 55.321 50.0061 52.6899 50.0024 51.0843Z" fill="black"/>
<path d="M50.0024 51.0843C49.8161 51.3472 49.8085 54.0946 49.7829 54.6533C49.6882 53.7405 49.5224 49.4748 49.8199 48.8966C49.9595 48.625 50.5084 48.9939 50.8792 48.9067C50.6573 48.1915 51.2819 47.2549 51.6602 46.41C53.3742 45.1929 56.3167 45.8941 58.3268 46.1445C58.659 46.7022 57.9006 47.1908 58.1442 47.9798C58.5598 48.24 58.4531 48.1576 59.0509 48.0783C58.5193 48.889 58.6811 48.284 58.2943 48.9344L58.1564 48.5627C57.4964 48.3009 51.1945 49.1225 50.0788 49.2809L50.0024 51.0843Z" fill="#FEFDFD"/>
<path d="M53.3762 50.2516C54.6279 50.1314 55.8597 50.265 57.0987 50.4235C57.3402 51.9671 57.2648 53.8396 57.1933 55.4071L55.314 56.0486C54.6106 56.1908 53.0099 56.518 52.4803 56.0648C51.5166 55.24 51.0549 51.6275 51.7362 50.6291C52.1687 50.3452 52.8438 50.317 53.3762 50.2516Z" fill="#E9E7E1"/>
<path d="M53.2767 51.4704C56.5359 51.226 56.7713 52.8405 55.1856 55.2001C55.0081 55.6107 55.1258 55.4802 54.7496 55.6997C52.9437 55.6401 52.6719 52.8712 53.2767 51.4704Z" fill="black"/>
<path d="M39.9631 65.8485C40.5868 65.8128 41.211 65.7852 41.8354 65.7657C46.1071 65.6543 44.7782 70.8133 44.847 73.9354C43.2823 74.3227 41.956 74.6591 40.3584 74.9038C39.148 75.0808 37.8983 75.0946 36.6791 75.0578C35.512 72.2503 35.5728 69.9245 35.5642 66.927C36.6798 66.8214 38.6546 66.1402 39.9631 65.8485Z" fill="black"/>
<path d="M41.2756 66.6692C42.5616 66.8547 42.8 67.1482 43.688 68.0368C43.9115 69.631 43.7978 71.1863 43.6388 72.7793C42.5634 73.107 41.2262 73.1116 40.1094 73.1325C39.2893 73.1455 38.3704 73.1123 37.5427 73.1002C37.4786 71.3835 37.4385 69.6659 37.4226 67.9479C39.3247 67.655 39.5858 67.3223 41.2756 66.6692Z" fill="#E9E7E1"/>
<path d="M40.5127 67.7326C41.6966 67.9707 42.0782 68.6118 42.7236 69.5364C42.7843 70.3951 43.0431 71.3091 42.3965 71.9123C41.9057 72.0246 41.1314 71.9934 40.8064 71.5828C40.0087 70.3439 39.6387 72.362 38.7433 71.5171C38.5062 70.8825 38.6367 69.9992 38.6843 69.3002C39.292 68.6919 39.7889 68.2067 40.5127 67.7326Z" fill="black"/>
<path d="M39.6673 58.5268C39.811 58.391 39.8338 58.3983 40.0199 58.3233L40.0217 58.5329C39.5109 58.9972 35.0084 58.8958 34.2912 58.6697C34.0233 58.1134 34.124 52.4673 34.1867 51.4545C34.2271 50.8036 34.332 49.8829 34.8956 49.4193C35.195 49.4641 36.1683 49.623 36.4224 49.6121C36.877 49.5714 37.4641 49.2844 37.9129 49.3747C39.1777 49.6295 42 48.6987 42.9135 49.7006C43.0357 50.336 42.9837 50.4578 42.7635 51.0769C42.7411 52.4293 43.5725 59.6507 40.7915 58.1379C40.3292 56.9728 41.5514 55.925 40.2735 55.3119C39.7382 55.3819 39.918 55.2835 39.5825 55.6586C39.4399 56.3906 39.6658 57.7205 39.6673 58.5268Z" fill="black"/>
<path d="M39.6673 58.5268C39.811 58.391 39.8338 58.3983 40.0199 58.3233L40.0217 58.5329C39.5109 58.9972 35.0084 58.8958 34.2912 58.6697C34.0233 58.1134 34.124 52.4673 34.1867 51.4545C34.2271 50.8036 34.332 49.8829 34.8956 49.4193C35.195 49.4641 36.1683 49.623 36.4224 49.6121C36.877 49.5714 37.4641 49.2844 37.9129 49.3747C39.1777 49.6295 42 48.6987 42.9135 49.7006C43.0357 50.336 42.9837 50.4578 42.7635 51.0769C42.755 50.5873 42.8118 49.9882 42.5271 49.6192C41.1949 49.1616 36.0404 49.9721 34.4775 50.2491C34.528 53.0048 34.5639 55.7609 34.5853 58.517C35.5372 58.5344 39.0275 58.6884 39.6673 58.5268Z" fill="#FEFDFD"/>
<path d="M36.7219 51.3723C38.1204 51.2869 39.1476 51.2809 40.5509 51.317C41.3559 53 41.4618 54.0472 41.5335 55.8648C41.3313 55.6113 39.618 53.8654 39.6723 53.9976C39.7308 49.9221 36.5852 53.695 35.6963 55.1275C35.762 53.9938 35.6346 51.8785 36.7219 51.3723Z" fill="#E9E7E1"/>
<path d="M36.841 54.6273C37.6655 55.0465 39.1037 56.5609 38.7672 57.6007C36.9942 57.4896 35.8119 56.3819 36.841 54.6273Z" fill="#E9E7E1"/>
<path d="M58.8599 65.6165L59.1831 65.763C59.4732 66.4582 59.3214 69.8265 59.2926 70.7795C58.9502 71.0993 58.6905 71.2917 58.5211 71.7286C59.0869 72.305 59.8818 71.4479 60.5287 72.5164L60.4449 72.7325C59.8104 73.1223 58.2857 72.9707 57.4804 72.9548C57.1142 72.9831 57.0259 72.9742 56.6622 72.9176C56.2357 72.1402 58.3296 69.7507 58.1084 68.4991C57.9252 67.4617 57.3361 68.2491 56.7434 67.7362C57.0101 66.9698 58.2094 66.1365 58.8599 65.6165Z" fill="black"/>
<path d="M31.3274 45.1656C35.0619 45.1296 38.4104 44.3542 42.0307 44.177C47.1777 43.9252 52.261 44.0298 57.4211 43.2448C57.8641 43.1775 58.7492 43.2409 59.0964 43.5143C59.3932 44.2218 59.5278 47.753 59.2003 48.2758L59.0508 48.0783C59.0923 47.3213 59.1182 43.9488 58.6791 43.4212C56.2144 43.2084 53.6357 43.9983 51.1727 44.0804C45.5017 44.2696 39.9535 44.3545 34.3206 45.2292C33.9421 45.2881 31.7143 45.3026 31.5962 45.3596C31.9907 46.1186 32.352 46.1954 32.1096 47.1754C31.1758 47.9801 31.4792 50.2173 31.5 51.4316L31.4295 51.7663C31.1279 51.4735 31.336 46.1178 31.3274 45.1656Z" fill="#FEFDFD"/>
<path d="M35.8807 59.5499C36.9947 59.4834 37.6024 59.5138 38.702 59.637C38.6812 60.1235 38.6383 60.9356 38.3596 61.3215C37.6576 61.455 36.3907 61.4765 35.6333 61.5084C35.5564 60.7691 35.3723 60.1116 35.8807 59.5499Z" fill="black"/>
<path d="M43.7566 50.2032C44.397 50.1844 45.1415 50.254 45.7889 50.2975C45.8466 51.034 45.8227 51.7195 45.808 52.4552C44.3696 52.5563 43.9379 51.4428 43.7566 50.2032Z" fill="black"/>
<path d="M46.9359 49.3352C47.5291 49.3591 47.9795 49.2823 48.4429 49.5588C48.5698 50.141 48.1061 51.0549 47.8655 51.7095C47.8137 52.1585 47.6583 52.2274 47.2765 52.33C46.7524 51.7188 46.9257 50.2065 46.9359 49.3352Z" fill="black"/>
<path d="M55.4481 127.032C58.8748 126.87 62.5872 127.203 66.0666 127.066C68.1608 126.984 70.5006 127.384 72.6231 127.279C78.4183 127.219 84.5851 126.786 90.3702 127.016C88.4051 127.755 85.2421 127.278 83.0709 127.451C80.3527 127.668 77.6188 127.97 74.8948 127.969C72.8964 127.969 70.8961 127.982 68.8971 127.983C68.1899 128.024 67.1014 127.487 66.4497 127.532C63.5451 127.738 60.5077 128.131 57.6148 127.635C57.6441 127.64 55.3222 126.951 55.4481 127.032Z" fill="url(#paint3_linear_1_758)"/>
<path d="M14.4434 15.5922C14.9479 14.998 15.7737 13.8586 16.6664 13.9861C17.5005 14.9082 14.9131 17.1356 14.2466 17.3731L14.1298 17.4156C14.0295 17.4513 13.9403 17.4796 13.839 17.5102L13.7964 17.6298C14.869 18.0021 16.3586 19.7089 16.5749 20.8354L16.4254 21.0019C15.0668 20.7072 13.413 18.5569 12.6057 17.5043C13.2668 16.8178 13.6245 16.0197 14.4434 15.5922Z" fill="black"/>
<path d="M14.4434 15.5922C14.9478 14.998 15.7737 13.8586 16.6664 13.9861C17.5004 14.9082 14.913 17.1356 14.2465 17.3731L14.1298 17.4156C14.0294 17.4513 13.9403 17.4796 13.8389 17.5102L13.7963 17.6298L13.5156 17.6402L13.4216 17.4593C13.9988 16.6943 14.1367 16.5154 14.4434 15.5922Z" fill="#2D3027"/>
</g>
<defs>
<linearGradient id="paint0_linear_1_758" x1="85.3689" y1="131.324" x2="77.1275" y2="100.425" gradientUnits="userSpaceOnUse">
<stop stop-color="#ADC86A"/>
<stop offset="1" stop-color="#CBDEA2"/>
</linearGradient>
<linearGradient id="paint1_linear_1_758" x1="49.8384" y1="99.6421" x2="11.2987" y2="81.23" gradientUnits="userSpaceOnUse">
<stop stop-color="#E69547"/>
<stop offset="1" stop-color="#F7B578"/>
</linearGradient>
<linearGradient id="paint2_linear_1_758" x1="57.3509" y1="65.4235" x2="33.8288" y2="21.6147" gradientUnits="userSpaceOnUse">
<stop stop-color="#292117"/>
<stop offset="1" stop-color="#2B3626"/>
</linearGradient>
<linearGradient id="paint3_linear_1_758" x1="72.7922" y1="127.966" x2="72.7615" y2="126.829" gradientUnits="userSpaceOnUse">
<stop stop-color="#93AA4C" stop-opacity="0"/>
<stop offset="1" stop-color="#B3D369" stop-opacity="0.01"/>
</linearGradient>
<clipPath id="clip0_1_758">
<rect width="144" height="144" fill="white"/>
</clipPath>
</defs>
</svg>
