<svg width="144" height="144" viewBox="0 0 144 144" fill="none" xmlns="http://www.w3.org/2000/svg">
<g clip-path="url(#clip0_1_634)">
<path d="M61.1176 22.1003C61.1539 18.8676 61.4144 16.3431 63.8426 13.9763C65.78 12.0878 67.7241 11.3335 70.4331 11.3818C72.6789 11.4218 74.5342 12.033 76.7144 12.3959C78.2954 12.6591 79.9401 12.4757 81.5318 12.6681C82.6798 12.8069 83.744 13.3096 84.8822 13.4762C86.8228 13.7602 88.8158 13.5472 90.7611 13.7734C92.1122 13.9306 93.3874 14.4059 94.7251 14.6067C96.6146 14.8902 98.5477 14.715 100.442 14.9363C101.784 15.0931 103.072 15.6165 104.411 15.7892C106.019 15.9968 107.673 15.8424 109.282 16.0498C110.779 16.2427 112.154 16.8297 113.682 16.9345C115.997 17.0931 118.409 16.7836 120.69 17.2455C122.33 17.5776 124.541 18.38 125.718 19.6058C127.647 21.6162 128.746 24.1927 128.663 26.9712C128.609 28.7799 128.157 30.4574 127.826 32.2228C127.408 34.4565 127.02 36.7992 126.716 39.0521C124.456 55.8389 120.931 72.3971 117.975 89.0678C117.754 90.314 117.652 91.5805 117.436 92.8277C116.737 96.8624 115.909 100.871 115.195 104.903C114.832 106.952 114.442 108.862 114.284 110.948L114.415 110.972C115.692 111.195 117.482 110.993 118.877 111.145C120.659 111.32 122.603 112.049 124.37 112.144C128.846 112.383 133.49 111.705 137.708 113.629C138.26 113.881 139.54 114.551 139.171 115.303C137.805 118.087 134.711 120.465 132.171 122.17C128.501 124.402 124.484 125.557 120.385 126.59C119.527 126.807 117.996 126.838 117.434 126.998C115.935 127.427 116.061 127.565 114.394 127.735C111.883 127.991 108.918 127.596 106.522 127.913C104.38 128.197 100.239 129.777 98.1291 129.913C93.4512 130.248 88.6387 129.837 83.9679 130.074C80.8317 130.233 77.5941 130.105 74.5 130.289C70.1958 130.546 66.5371 130.455 62.2216 130.235C58.5711 130.049 54.7259 130.369 51.0396 129.937C47.5217 129.539 43.9911 128.915 40.4302 128.593C37.6305 128.34 34.5174 127.387 31.704 127.01C30.4869 126.776 29.0628 126.817 27.9641 126.634C21.8033 125.415 20.7872 125.044 19.2009 119.104C18.7753 117.509 17.0044 114.962 16.5831 113.088C16.4874 112.662 15.6057 110.945 15.3645 110.431C15.3554 110.174 15.2399 109.81 15.1824 109.545C14.6656 107.165 14.5174 104.737 14.7376 102.315C15.4464 102.294 17.6608 102.337 18.1402 102.063C20.7717 104.363 25.1421 103.931 28.4051 104.614L28.619 104.58C28.9171 104.266 28.7987 104.298 28.924 103.829C29.9857 99.8567 31.1197 95.1435 34.9213 92.9038C35.4364 92.6001 37.1548 91.7977 37.6438 91.9188C39.2071 92.5156 41.7326 92.2628 43.433 92.2954C45.0837 92.3271 46.3394 92.277 47.6563 91.2033C47.9099 89.0818 48.4921 87.527 48.8052 85.5863C51.3936 69.5454 56.0479 53.7322 58.1442 37.6242C58.6011 34.1138 60.7441 26.874 60.0858 23.6973C60.1121 22.7717 60.4176 22.6739 61.1176 22.1003ZM96.6336 37.6454L95.6431 36.3323C96.0512 35.4223 97.2451 33.5253 97.0259 32.8543C96.7123 32.6019 96.3212 32.6361 95.915 32.6212C95.4367 33.7899 94.3498 35.6476 94.7417 36.8721C94.913 37.4068 95.9721 37.9156 96.5143 37.7613L96.6336 37.6454Z" fill="#F7F4EC"/>
<path d="M61.1177 22.1003C61.154 18.8676 61.4146 16.3431 63.8427 13.9763C65.7801 12.0878 67.7243 11.3335 70.4333 11.3818C72.679 11.4218 74.5343 12.033 76.7146 12.3959C78.2955 12.6591 79.9402 12.4757 81.5319 12.6681C82.6799 12.8069 83.7441 13.3096 84.8823 13.4762C86.823 13.7602 88.8159 13.5472 90.7612 13.7734C92.1123 13.9306 93.3875 14.4059 94.7253 14.6067C96.6147 14.8902 98.5479 14.715 100.442 14.9363C101.784 15.0931 103.072 15.6165 104.411 15.7892C106.019 15.9968 107.673 15.8424 109.283 16.0498C110.779 16.2427 112.154 16.8297 113.682 16.9345C115.998 17.0931 118.409 16.7836 120.691 17.2455C122.33 17.5776 124.541 18.38 125.718 19.6058C127.647 21.6162 128.746 24.1927 128.663 26.9712C128.609 28.7799 128.157 30.4574 127.826 32.2228C127.408 34.4565 127.02 36.7992 126.717 39.0521C124.456 55.8389 120.931 72.3971 117.975 89.0678C117.754 90.314 117.652 91.5805 117.436 92.8277C116.738 96.8624 115.909 100.871 115.195 104.903C114.832 106.952 114.442 108.862 114.284 110.948C113.83 111.675 113.786 112.792 113.571 113.629C112.747 116.839 112.892 122.443 110.482 124.805C108.777 126.477 107.566 125.629 105.462 125.566C105.493 123.035 106.571 118.424 107.078 115.816C107.999 111.071 108.881 106.319 109.724 101.56L119.415 46.0212L121.906 31.7884C122.012 31.1944 122.621 28.5791 122.61 28.1994C122.56 26.4236 120.353 24.5884 119.064 23.4699C117.544 23.7537 116.389 24.2271 114.947 24.77C113.029 23.6599 110.963 23.4447 108.853 23.0247C105.409 22.3393 101.933 22.7156 98.5637 22.3432C96.3444 21.7877 92.8549 21.8877 90.7876 21.2545C87.9173 20.3754 86.4789 20.4685 83.6527 20.0949L70.7121 18.2662C68.1238 17.8913 66.7489 17.9581 64.7055 19.7374C63.1631 21.0804 61.7272 22.4737 60.0859 23.6973C60.1122 22.7717 60.4177 22.6739 61.1177 22.1003Z" fill="url(#paint0_linear_1_634)"/>
<path d="M93.4758 17.9504C94.1484 17.9823 95.3312 18.0078 95.9672 18.0928C96.1631 18.0855 96.7125 18.0436 96.864 18.0934L98.9929 18.2498C98.6042 18.8566 97.9695 19.9183 97.5081 20.4056C96.777 20.2721 96.1318 20.2032 95.4802 19.8374C94.9834 19.3362 94.1551 19.4906 93.4928 19.5282L93.46 19.4177C93.0086 19.0432 93.2025 18.388 93.4758 17.9504Z" fill="#E1CE93"/>
<path d="M96.864 18.0934L98.9929 18.2498C98.6042 18.8566 97.9694 19.9183 97.508 20.4055C96.7769 20.2721 96.1317 20.2032 95.4802 19.8374C96.3542 19.0052 96.2783 18.4767 96.864 18.0934Z" fill="#E6DFCB"/>
<path d="M95.9672 18.0928C96.1631 18.0855 96.7125 18.0436 96.8639 18.0934C96.2782 18.4767 96.3542 19.0052 95.4802 19.8374C94.9833 19.3362 94.1551 19.4907 93.4927 19.5282L93.46 19.4177C94.7451 19.3552 95.6723 19.6036 95.9672 18.0928Z" fill="#868A59"/>
<path d="M90.2589 17.8977C90.9006 17.8147 92.9719 17.6877 93.4757 17.9504C93.2025 18.388 93.0086 19.0432 93.46 19.4177L93.4927 19.5282C92.8159 19.6248 91.5251 19.467 90.7885 19.4009C90.2573 19.2515 90.3721 19.3638 90.0525 18.986C89.973 18.5468 90.1041 18.3091 90.2589 17.8977Z" fill="#E1CE93"/>
<path d="M90.2588 17.8977C90.9005 17.8147 92.9717 17.6877 93.4756 17.9504C93.2024 18.388 93.0084 19.0432 93.4598 19.4177L93.4926 19.5282C92.8158 19.6248 91.525 19.467 90.7884 19.4009C91.5359 19.3171 91.9715 19.2993 92.475 18.693C92.3493 17.8761 90.8532 17.9282 90.2588 17.8977Z" fill="#3B5F34"/>
<path d="M18.1402 102.063C20.7717 104.363 25.1421 103.931 28.4051 104.614C27.6259 105.389 27.7051 118.191 28.2278 118.849C28.836 119.09 28.928 119.009 29.2362 119.458C29.2517 120.922 28.1974 120.695 28.0462 121.759L28.0322 121.852C27.8682 122.994 28.0194 125.309 27.9641 126.634C21.8033 125.415 20.7872 125.044 19.2009 119.104C18.7753 117.51 17.0044 114.962 16.5831 113.088C16.4874 112.662 15.6057 110.945 15.3645 110.431C15.3554 110.174 15.2399 109.81 15.1824 109.545C14.6656 107.165 14.5174 104.738 14.7376 102.315C15.4464 102.294 17.6608 102.337 18.1402 102.063Z" fill="#BE9268"/>
<path d="M39.4855 102.645C39.6712 102.465 40.7665 100.094 41.1044 99.5624C42.5088 97.3509 47.8197 96.5729 50.4986 96.0751L50.5877 96.1862C49.4926 96.276 48.6696 96.7729 47.908 96.8757C46.4546 97.04 44.527 97.3911 43.3934 98.3603C42.2674 99.3229 42.7559 100.115 43.7787 100.74C44.1374 100.959 44.0948 101.205 44.1038 101.575L44.4367 101.628C44.7984 101.147 44.8483 101.078 45.3976 100.845L45.7424 100.876L45.895 101.121C45.3998 102.809 44.9357 104.3 44.8022 106.075C44.5196 109.831 42.6064 113.763 43.8304 117.512C43.9452 117.859 45.3219 119.454 45.5889 119.728C48.0057 120.559 51.1577 120.979 53.7209 121.396C57.916 122.087 62.1177 122.738 66.3255 123.348C71.8124 124.23 77.2929 125.153 82.766 126.118C85.5421 126.6 88.3835 127.121 91.1662 127.538C92.7279 127.772 94.7039 127.734 96.3197 127.906C93.3219 128.712 84.769 126.286 81.4746 126.198C80.8228 126.18 77.8624 127.741 76.9895 127.937C70.7621 129.335 66.1537 128.864 60.3523 126.059C59.1102 125.459 55.8495 125.283 54.4067 124.802C51.9815 123.931 45.7429 122.407 43.2037 122.622C43.6407 122.98 43.8702 123.468 44.1401 123.953L44.1189 124.14L44.0142 124.069C42.5808 123.099 40.8662 122.281 39.3642 121.405C39.2006 121.31 38.4683 121.509 38.3022 121.44C37.2551 121.01 36.0634 120.906 34.9175 120.814C35.478 120.523 38.3546 121.179 39.1673 121.324C37.2052 116.471 37.8657 110.785 38.8562 105.742C38.9993 105.014 39.1395 103.16 39.4855 102.645Z" fill="#D3CCBE"/>
<path d="M76.9462 87.7735C77.4829 87.8785 77.3304 87.7788 77.6687 88.0953C77.9889 89.1491 77.4706 91.0516 77.2371 92.1981L78.575 93.7174C78.6423 93.3968 78.7164 93.0776 78.7978 92.7602C79.4424 90.2752 80.0444 89.2475 82.2016 87.9804C80.7281 91.1668 79.8466 95.1767 80.1154 98.6937C81.4846 100.022 82.7973 99.8055 84.4616 101.306C84.3393 102.437 84.8171 105.625 83.638 105.721L83.4363 105.481C83.2881 104.004 83.3654 103.601 83.7841 102.23C82.8569 102.665 81.3245 103.368 80.9281 104.318C81.0848 105.889 83.8279 106.05 83.5578 108.09C83.4668 108.776 84.2083 109.549 84.6829 110.025C85.9608 109.275 86.2904 109.048 87.7507 108.849C87.7534 110.103 88.0287 111.014 86.7376 111.554C86.7272 112.085 87.419 112.352 87.4517 113.029L87.255 113.214C86.7039 113.36 84.6609 113.203 83.9725 113.169C83.0791 113.711 82.1376 114.326 81.1575 114.669L81.1312 116.62C80.5871 116.623 79.48 116.707 79.1087 116.376L79.0871 115.972C79.2756 115.591 79.315 115.497 79.4125 115.085C79.3552 114.492 78.8545 114.019 78.4594 113.551C78.118 114.251 77.793 115.138 77.1957 115.576C76.1711 115.186 78.1174 111.402 77.6141 110.526C77.2383 110.513 75.1955 111.878 74.6456 112.044C74.1977 112.179 73.7503 112.207 73.2857 112.245L73.396 114.382C72.7066 114.438 71.9456 114.555 71.2912 114.366C70.9436 113.576 72.007 111.302 72.141 110.24C72.3238 108.789 72.9831 105.465 72.1654 104.213C71.2367 103.006 68.9524 103.476 67.7628 103.103C65.1814 102.293 65.5232 101.868 63.3463 103.466L63.6189 101.107C64.4677 101.171 65.1302 101.402 65.7964 100.797C65.6304 99.6783 63.7436 99.0952 63.3147 98.174L63.44 97.9955C66.3654 97.501 68.9279 97.976 71.7176 98.658C71.908 98.7046 72.1337 98.3917 72.2575 98.2551C72.7459 97.7158 73.7709 97.8915 74.381 97.4855C75.7592 96.4963 75.589 93.8027 75.9008 92.2656C76.2204 90.6899 76.5694 89.278 76.9462 87.7735Z" fill="black"/>
<path d="M79.5951 103.454C79.7978 103.474 79.7969 103.508 79.9554 103.647C80.1228 104.318 80.0567 105.298 80.0428 106.013C78.3434 108.311 78.6541 110.856 75.5392 107.069C75.0576 106.325 74.5193 105.607 73.9966 104.891C75.0087 105.235 76.1313 105.746 77.0638 106.029C77.5187 105.909 77.633 105.667 77.9266 105.196C78.4243 104.397 78.8874 104.051 79.5951 103.454Z" fill="#ECEAEB"/>
<path d="M80.538 108.935C81.3206 109.192 82.6917 111.037 82.3907 112.051C82.0238 112.364 82.1784 112.311 81.7709 112.373C81.4272 112.193 81.3941 112.145 81.1569 111.836C80.9974 111.487 80.9568 111.433 80.7046 111.143C79.9642 111.034 80.2293 111.759 79.3804 111.97C78.1772 110.89 79.8458 109.617 80.538 108.935Z" fill="#ECEAEB"/>
<path d="M75.7789 99.9536C76.2717 99.9999 77.3559 100.265 77.8821 100.378C76.6869 101.481 76.0997 101.808 75.2933 103.302C74.7898 103.432 74.1004 103.488 73.6992 103.142C73.6598 102.45 75.2464 100.691 75.7789 99.9536Z" fill="#ECEAEB"/>
<path d="M66.8138 99.9959C67.8533 99.9782 68.9503 100.007 69.9946 100.019C70.1162 100.78 70.1292 101.194 70.1472 101.951C69.0007 101.819 67.7896 102.078 66.9581 101.405C66.6546 100.999 66.7703 100.521 66.8138 99.9959Z" fill="#ECEAEB"/>
<path d="M73.5758 108.761C74.9149 108.93 76.4007 109.36 75.2387 110.974C74.6695 111.135 73.976 111.274 73.3906 111.407C73.3972 110.358 73.3888 109.791 73.5758 108.761Z" fill="#ECEAEB"/>
<path d="M76.8992 94.3528C77.299 94.4159 77.4988 94.4332 77.8798 94.5987C78.3417 95.1788 77.786 96.871 77.7084 97.972L77.4132 98.0346C76.3844 97.6967 76.7372 95.2389 76.8992 94.3528Z" fill="#ECEAEB"/>
<path d="M73.58 99.1207C74.1885 99.1367 74.4302 99.1065 74.8345 99.4795C74.9283 99.9426 74.5852 100.676 74.4107 101.152C74.2241 101.256 74.0868 101.296 73.888 101.369C73.1756 100.97 73.3712 99.7893 73.58 99.1207Z" fill="#ECEAEB"/>
<path d="M71.4628 99.8716L71.8701 99.9669C72.342 100.356 72.7593 101.993 71.8228 102.204C71.3384 102.128 71.2397 102.197 70.9182 101.914C70.8099 101.434 71.2765 100.473 71.4628 99.8716Z" fill="#F7F4EC"/>
<path d="M79.4783 100.893C79.9287 101.156 80.1389 101.229 80.2357 101.725C79.982 102.094 79.1629 102.4 78.676 102.669L78.4232 102.835L78.282 102.763C78.5472 102.2 79.1128 101.427 79.4783 100.893Z" fill="#ECEAEB"/>
<path d="M84.9832 111.098C85.5199 111.163 85.8439 111.124 85.955 111.703C85.8047 112.112 85.581 112.233 85.2388 112.493C84.6292 112.401 84.5385 112.358 84.3613 111.813C84.6064 111.27 84.4834 111.448 84.9832 111.098Z" fill="#ECEAEB"/>
<path d="M65.7266 85.5533C67.6659 86.0808 69.5769 86.5197 71.5791 86.723C72.3819 86.8044 75.1795 86.8625 75.6136 87.3261C75.3411 87.6642 74.9991 87.7077 74.5395 87.8878C74.5686 92.9534 74.4685 92.0388 73.1227 96.5711C72.0858 97.4393 66.8113 95.7733 65.575 95.5597C64.9337 95.4488 64.0441 95.4842 63.3813 95.4977C63.5608 95.1767 64.1323 94.1234 64.1852 93.842C64.6145 91.5582 65.5906 87.7639 65.7266 85.5533Z" fill="black"/>
<path d="M68.5465 87.7611C70.8232 87.7509 71.7006 88.307 73.2435 89.8812C73.1714 91.07 72.762 93.3313 72.0088 94.3162C71.7379 94.6706 71.3412 94.6 70.9004 94.6259C69.994 94.6082 68.5416 94.6387 67.677 94.4782C64.3279 93.8564 66.8482 88.9085 68.5465 87.7611Z" fill="#ECEAEB"/>
<path d="M69.3828 89.4056C71.4784 89.4604 71.674 91.5207 70.9757 93.0758C70.7824 93.5059 70.3239 93.5581 69.9151 93.6882C69.2979 93.661 68.611 93.6456 68.1305 93.2698C67.5589 92.5051 67.8469 91.576 67.9722 90.5912C68.5333 89.9741 68.6722 89.8356 69.3828 89.4056Z" fill="black"/>
<path d="M61.2779 104.47C65.8705 104.676 67.01 103.796 71.1695 106.021C71.2235 108.455 70.1975 111.528 69.085 113.658C68.9853 113.81 68.8018 114.039 68.6869 114.191C67.0745 115.094 62.1114 113.502 60.0728 113.264C60.0656 109.866 61.1818 108.103 61.2779 104.47Z" fill="black"/>
<path d="M66.4592 106.659C67.3077 106.681 68.1568 106.675 69.0049 106.641C69.0065 106.832 69.007 107.023 69.0066 107.214C69.0014 109.308 69.2981 112.387 66.3664 112.371C65.977 112.369 65.5908 112.362 65.2015 112.351C64.1881 112.289 63.1743 112.237 62.1602 112.192C62.1794 110.359 62.243 108.714 62.5082 106.898C63.7509 106.703 65.1884 106.697 66.4592 106.659Z" fill="#ECEAEB"/>
<path d="M66.0809 107.768C66.5593 107.769 67.3478 107.863 67.8471 107.907C67.8537 109.141 67.7708 109.718 67.5576 110.924C66.7384 111.052 66.3077 111.06 65.4977 111.066C62.0878 110.631 63.2159 108.09 66.0809 107.768Z" fill="black"/>
<path d="M83.5951 88.8432C86.4616 89.0152 89.2869 89.0194 92.156 89.043C92.1882 91.3212 91.6406 96.965 90.4356 98.7639C89.2464 98.9965 86.0187 99.0052 84.7199 98.9889C84.0357 98.9803 83.1726 98.6315 82.7036 98.0529C81.7058 96.8218 82.1578 93.6132 82.5402 92.1719C82.8785 90.8972 83.3783 90.3915 83.5951 88.8432Z" fill="black"/>
<path d="M85.9684 90.1047C86.8862 90.2926 88.3312 91.1825 89.9587 91.5594C90.2093 94.6205 89.8571 96.0376 87.2397 97.8121C83.4259 98.4251 82.1 93.6914 84.5943 91.3387C85.0874 90.8735 85.4175 90.5376 85.9684 90.1047Z" fill="#ECEAEB"/>
<path d="M86.3286 91.9453C87.3574 91.8229 88.728 92.7779 88.5428 93.9486C88.3413 95.2218 87.8536 95.6934 86.9084 96.4757C85.371 96.553 84.1132 94.4754 84.7397 93.1074C85.08 92.3643 85.6481 92.2205 86.3286 91.9453Z" fill="black"/>
<path d="M59.7512 73.4314C63.1117 73.3087 65.4463 74.1548 68.7166 74.7357C73.9158 75.6592 78.0595 76.6309 83.3365 77.1123C83.3936 77.7004 83.5472 78.4761 83.2963 78.9626L82.9349 78.949C79.2776 78.8425 75.8994 78.7935 72.2505 78.2827C68.7282 77.7897 65.2459 76.8679 61.7001 76.7759C60.7945 76.7523 59.9565 76.6975 59.0531 76.5907C59.0328 75.5102 58.8886 74.2164 59.7512 73.4314Z" fill="#D3CCBE"/>
<path d="M63.5673 54.1134C63.5277 53.2868 63.3859 51.9998 64.1183 51.454C65.668 50.9967 79.3408 54.316 82.0394 54.823L81.2865 54.956C81.1575 55.2827 81.1872 55.3651 81.2091 55.7269C80.8915 55.7096 80.5534 55.6549 80.2349 55.6144C74.6979 54.9092 69.1295 54.6359 63.5673 54.1134Z" fill="url(#paint1_linear_1_634)"/>
<path d="M62.2859 59.0282C65.3642 58.839 73.3563 60.4473 76.3665 61.5265C76.5039 62.1745 76.6316 62.377 77.2249 62.7324C71.9911 62.2749 67.527 62.5418 62.3177 61.191C62.2852 60.5012 62.2939 59.7255 62.2859 59.0282Z" fill="url(#paint2_linear_1_634)"/>
<path d="M65.7508 44.6447C69.7743 44.7008 72.2429 45.5146 76.0018 45.8985C75.7076 47.0263 75.6457 47.9059 75.6031 49.0587C71.4755 48.3003 70.0023 47.7646 65.4636 47.6537C65.5315 46.7941 65.448 45.3725 65.7508 44.6447Z" fill="#D3CCBE"/>
<path d="M89.2435 32.464C92.7576 32.0636 92.0647 34.5429 92.0018 36.9312C91.262 36.9633 90.6963 36.9447 89.9653 36.9121C88.752 36.818 87.5371 36.7451 86.3213 36.693C88.3231 34.7437 87.2678 34.2914 89.2435 32.464Z" fill="url(#paint3_linear_1_634)"/>
<path d="M89.1594 33.2457C90.7445 33.3582 90.6114 35.0426 90.0517 36.0759C88.156 36.29 88.7173 34.383 89.1594 33.2457Z" fill="#A3C694"/>
<path d="M108.091 34.9287C109.078 34.7745 109.823 34.7802 110.856 34.5562C111.022 35.8439 110.966 37.9129 111.003 39.3098C111.074 39.6736 111.157 39.8644 110.987 40.1816C110.375 40.3262 109.624 40.7195 109.202 40.7152C108.568 37.9084 108.985 39.1686 106.946 37.0055C106.802 36.9924 106.518 36.892 106.365 36.8439C106.506 36.5643 106.772 36.1388 106.936 35.8599C107.428 35.6292 107.704 35.3093 108.091 34.9287Z" fill="#C9DAA1"/>
<path d="M106.936 35.8599L107.497 36.151C108.086 36.8589 108.683 37.0489 109.342 37.5858C109.372 38.5881 110.13 39.0759 111.003 39.3097C111.074 39.6735 111.157 39.8644 110.987 40.1816C110.375 40.3262 109.624 40.7195 109.202 40.7151C108.568 37.9084 108.985 39.1685 106.946 37.0055C106.802 36.9924 106.518 36.892 106.365 36.8439C106.506 36.5643 106.772 36.1388 106.936 35.8599Z" fill="#3B5F34"/>
<path d="M110.856 34.5562C111.022 35.8439 110.966 37.9129 111.003 39.3098C110.13 39.0759 109.372 38.5881 109.342 37.5858C109.995 37.062 110.014 36.3519 110.099 35.561C110.409 35.6303 110.398 35.6349 110.709 35.5953C110.824 35.2183 110.826 34.945 110.856 34.5562Z" fill="#4E841A"/>
<path d="M108.091 34.9287C109.078 34.7745 109.823 34.7802 110.856 34.5562C110.826 34.945 110.824 35.2183 110.709 35.5953C110.398 35.6349 110.408 35.6303 110.099 35.561C109.098 35.5812 108.305 35.5156 107.497 36.151L106.936 35.8599C107.428 35.6292 107.704 35.3093 108.091 34.9287Z" fill="#515440"/>
<path d="M85.6411 101.14C86.6048 101.11 89.5502 100.736 89.84 101.714C89.493 102.622 88.1542 103.418 87.3252 104.004C88.4796 104.51 89.5301 105.217 88.4619 106.722C87.9704 107.415 87.1097 107.703 86.2603 107.759C85.5871 107.757 85.1696 107.711 84.4986 107.627C84.1502 107.31 84.2084 107.458 84.1848 107.072C84.8376 106.548 86.3675 106.853 87.0041 106.273C87.132 105.394 86.0408 105.8 85.6054 105.131C85.705 104.388 87.2683 103.141 87.8908 102.578C87.2653 102.52 86.4049 102.505 85.881 102.208C85.5375 101.746 85.6468 101.832 85.6411 101.14Z" fill="black"/>
<path d="M83.2408 31.2196C83.4916 31.1317 83.7553 30.7067 83.9529 30.4594L84.1301 30.5471L84.243 30.9534C84.316 31.0332 84.4563 31.2078 84.5406 31.2463C84.8999 31.3661 85.2853 31.4103 85.4182 31.7573C85.8077 32.7743 85.5709 34.5645 85.4925 35.6604C84.449 35.8144 83.9488 36.2535 83.4904 36.2182L83.2027 35.677L82.1851 35.7619C81.6707 35.7307 81.7919 35.8051 81.4367 35.5713C81.199 34.6477 82.0668 32.7972 82.3756 31.8783C82.5358 31.4015 82.7881 31.4038 83.2408 31.2196Z" fill="#C9DAA1"/>
<path d="M84.5404 31.2463C84.8997 31.3662 85.2852 31.4103 85.4181 31.7574C85.8076 32.7744 85.5708 34.5645 85.4923 35.6604C84.4489 35.8144 83.9487 36.2536 83.4902 36.2183L83.2025 35.677C83.1681 35.2894 83.1325 35.4363 83.3211 35.1161C83.7116 35.1023 83.8443 35.0914 84.2249 35.0059C84.8544 34.1906 84.2804 32.4919 84.5404 31.2463Z" fill="#243B26"/>
<path d="M83.2408 31.2196L83.5638 31.5249C83.2335 34.0988 83.1152 33.6351 82.1851 35.7619C81.6707 35.7307 81.7919 35.8051 81.4367 35.5714C81.199 34.6478 82.0668 32.7973 82.3756 31.8783C82.5358 31.4016 82.7881 31.4038 83.2408 31.2196Z" fill="#243B26"/>
<path d="M83.2407 31.2196C83.4916 31.1317 83.7553 30.7067 83.9528 30.4594L84.13 30.5471L84.243 30.9534C84.0514 31.104 83.7079 31.3516 83.5637 31.5249L83.2407 31.2196Z" fill="#837A74"/>
<path d="M66.8213 66.7945L68.1095 66.9077C69.257 66.9374 70.0535 66.9744 71.1887 67.1177L71.105 68.8738C72.1273 68.9089 74.8731 69.0549 75.8395 69.3332L75.7192 69.3464C74.8637 69.4322 72.8693 69.0908 72.4365 69.399C73.0031 69.8482 73.4045 69.5935 74.2846 70.0446C72.1036 69.9967 68.83 70.1739 66.8693 69.697C66.7513 69.3605 66.7114 69.1434 66.6406 68.7997C66.6624 68.2057 66.7635 67.4024 66.8213 66.7945Z" fill="url(#paint4_linear_1_634)"/>
<path d="M66.8213 66.7945L68.1095 66.9077C67.8883 67.4833 67.6422 68.2913 67.2294 68.7163C66.8471 68.8836 66.9839 68.8898 66.6406 68.7997C66.6624 68.2057 66.7635 67.4024 66.8213 66.7945Z" fill="#D3CCBE"/>
<path d="M60.9417 68.9122C61.1252 67.9357 60.9717 66.4715 61.7344 65.909C62.3299 65.7922 63.44 66.0881 64.0804 66.219C65.1047 66.3715 65.9022 66.6561 66.8212 66.7945C66.7634 67.4024 66.6623 68.2057 66.6405 68.7997C66.7112 69.1433 66.7512 69.3605 66.8691 69.697C66.0376 69.6184 65.498 69.2262 64.6229 68.9638C63.5704 68.8617 62.0353 68.9086 60.9417 68.9122Z" fill="#D3CCBE"/>
<path d="M64.0803 66.2191C65.1046 66.3715 65.9021 66.6561 66.8211 66.7945C66.7633 67.4024 66.6622 68.2057 66.6404 68.7997C66.7111 69.1434 66.7511 69.3605 66.8691 69.697C66.0375 69.6184 65.498 69.2262 64.6228 68.9638C65.0913 68.9282 65.1425 68.9106 65.5005 68.6073C66.5681 66.7799 65.1059 66.7906 64.1771 66.2736L64.0803 66.2191Z" fill="#ECEAEB"/>
<path d="M77.5163 30.4172C77.972 30.3526 78.4213 30.2258 78.8189 30.4027C78.9434 32.0885 78.7893 33.9924 78.8646 35.7478C77.2462 35.694 76.3053 35.6822 74.9496 34.6877C74.7903 34.6046 74.6924 34.4939 74.5569 34.3708C74.6404 33.6819 75.9544 33.0695 76.3387 32.4851C76.6235 32.0518 76.9946 31.0242 77.2049 30.5081L77.5163 30.4172Z" fill="#243B26"/>
<path d="M75.291 34.5001C75.8662 33.7621 77.0768 32.6065 77.7777 31.7807L77.9803 31.8144C77.8363 32.9306 77.8933 33.9465 77.769 34.9121C77.0768 34.8355 75.8916 34.7607 75.291 34.5001Z" fill="#A3C694"/>
<path d="M69.2856 30.564C69.7224 30.043 70.2961 29.2823 71.0227 29.2567C73.5768 29.1672 73.9822 33.2989 71.3512 33.4702C70.9776 33.212 71.0594 33.1952 70.8558 32.7089C69.9801 33.1116 70.157 33.4278 70.1035 34.3491L69.8628 34.4924C69.296 34.5261 68.4809 34.6126 68.0583 34.2498C68.2232 33.948 68.4034 33.9675 68.802 33.8122C69.3856 33.2951 69.1956 31.5824 69.2856 30.564Z" fill="black"/>
<path d="M70.0084 32.1518C69.8756 27.133 75.0997 32.6487 70.9826 32.5732L70.8563 32.5707C70.6904 32.1928 70.6722 31.8015 70.4127 31.6386L70.0084 32.1518Z" fill="#C9DAA1"/>
<path d="M70.0085 32.1518L70.4128 31.6387C70.6724 31.8015 70.6906 32.1929 70.8565 32.5707L70.8558 32.709C69.9801 33.1116 70.157 33.4278 70.1035 34.3491C69.9956 33.6957 70.0157 32.8292 70.0085 32.1518Z" fill="#E6DFCB"/>
<path d="M102.807 64.9888C103.843 64.8526 104.27 64.8092 105.324 65.0499C106.072 65.3562 106.366 65.457 106.691 66.2548C106.882 66.7246 107.082 67.4732 106.388 67.6731C104.989 68.076 101.985 67.535 100.965 66.4521L100.907 66.3915C100.873 66.3521 100.84 66.3127 100.806 66.2734C100.713 65.8582 100.322 65.717 99.9583 65.6317C99.9496 65.6435 100.73 65.0032 100.805 64.9398C101.244 64.9996 101.471 64.9972 101.836 65.2647C102.068 65.1347 102.53 65.0522 102.807 64.9888Z" fill="#D3CCBE"/>
<path d="M104.121 65.4691C104.63 65.5226 105.044 65.5818 105.364 65.9537C105.197 67.3124 103.006 67.151 102.688 66.0703C103.019 65.7249 103.002 65.8094 103.511 65.6516L104.121 65.4691Z" fill="#ECEAEB"/>
<path d="M102.807 64.9888C103.843 64.8526 104.27 64.8092 105.324 65.0499C104.899 65.381 104.653 65.3842 104.121 65.4691L103.511 65.6517C103.209 65.477 103.041 65.2496 102.807 64.9888Z" fill="#B0A9A4"/>
<path d="M74.2844 70.0446C73.4043 69.5935 73.0029 69.8481 72.4363 69.399C72.8691 69.0907 74.8635 69.4322 75.719 69.3464L75.8393 69.3332C78.0765 69.5108 81.0917 69.973 83.39 70.2565C86.1666 70.5989 90.3889 70.9999 93.0606 71.6301C92.5847 71.8421 92.4184 71.8453 91.9068 71.9093C86.8987 71.2573 81.8154 70.9311 76.7954 70.3534C75.9636 70.2578 75.1032 70.2139 74.2844 70.0446Z" fill="url(#paint5_linear_1_634)"/>
<path d="M82.5046 48.8779C82.0141 48.9219 78.3329 48.5695 77.8043 48.4672L77.6692 48.1884C77.7593 47.6494 77.663 47.616 78.0068 47.3579C78.4367 47.2822 81.9715 47.8852 82.36 48.0542C84.5743 48.3514 92.6387 49.1618 94.1963 49.9735L94.2251 50.1262C93.2435 50.3144 84.2732 49.077 82.5046 48.8779Z" fill="#837A74"/>
<path d="M82.5046 48.8779C82.0141 48.9219 78.3329 48.5695 77.8043 48.4672L77.6692 48.1884C77.7593 47.6494 77.663 47.616 78.0068 47.3579C78.4367 47.2822 81.9715 47.8852 82.36 48.0542L82.1852 48.2407C81.7101 48.1258 81.0186 47.9046 80.571 47.9938L80.522 48.1971L80.7174 48.4328C81.1242 48.4544 82.2543 48.588 82.5046 48.8779Z" fill="#AA9F8F"/>
<path d="M76.3665 61.5266C77.6481 61.8245 91.4718 64.2606 91.2058 64.0674C91.1172 64.5182 91.21 64.4053 90.9117 64.6217C87.8694 64.3839 84.3143 63.6888 81.2647 63.3143C80.1923 63.1827 78.2401 62.7853 77.2248 62.7324C76.6315 62.377 76.5038 62.1746 76.3665 61.5266Z" fill="url(#paint6_linear_1_634)"/>
<path d="M102.229 74.3736C101.232 74.4048 97.33 74.1457 96.7776 73.2284C97.0046 71.6593 101.125 72.5601 102.412 72.6206L103.242 72.7881C103.271 73.2815 103.29 73.9973 103.374 74.4654C103.07 74.4216 102.552 74.3978 102.229 74.3736Z" fill="#D3CCBE"/>
<path d="M102.412 72.6206L103.242 72.7881C103.271 73.2815 103.29 73.9973 103.374 74.4655C103.07 74.4216 102.552 74.3978 102.229 74.3736C102.132 74.1122 102.395 73.277 102.412 72.6206Z" fill="#AA9F8F"/>
<path d="M82.0396 54.8229C82.8168 54.9671 84.2473 55.1953 84.9512 55.4133C87.3555 55.6727 89.4244 56.0116 91.8981 56.2077L92.0307 56.4235C91.9002 56.9413 92.008 56.7813 91.6641 57.104C90.8748 57.1601 85.3468 56.4057 84.8459 56.1489C83.6686 56.0738 82.3885 55.8807 81.2094 55.7269C81.1874 55.365 81.1578 55.2826 81.2867 54.956L82.0396 54.8229Z" fill="#605B56"/>
<path d="M82.0396 54.8229C82.8168 54.9671 84.2473 55.1953 84.9512 55.4133L85.011 55.5922C85.6247 55.8051 86.4821 55.8359 86.9147 56.0905C86.1611 56.4881 85.4166 55.7408 84.8459 56.1489C83.6686 56.0738 82.3885 55.8807 81.2094 55.7269C81.1874 55.365 81.1578 55.2826 81.2867 54.956L82.0396 54.8229Z" fill="#837A74"/>
<path d="M100.927 79.3169C102.086 79.2584 103.241 79.0906 104.081 79.9912C104.351 80.9941 103.471 81.6678 102.583 82.0173C102.359 82.1056 102.043 81.8519 101.84 81.7293C101.103 81.1702 100.751 80.3749 100.714 79.4564L100.927 79.3169Z" fill="#ECEAEB"/>
<path d="M100.927 79.3169C101.578 79.4276 101.704 79.3256 102.043 79.7154C102.026 80.0823 102.001 80.4489 101.97 80.815L101.84 81.7293C101.103 81.1702 100.751 80.375 100.714 79.4564L100.927 79.3169Z" fill="#837A74"/>
<path d="M101.97 80.8149C102.045 81.3635 102.029 81.4293 102.376 81.7097C103.327 81.4319 103.379 80.5366 104.081 79.9911C104.351 80.9941 103.471 81.6678 102.583 82.0173C102.359 82.1056 102.043 81.8519 101.84 81.7293L101.97 80.8149Z" fill="#AA9F8F"/>
<path d="M86.0271 114.356L86.3468 114.45C87.2361 115.542 86.3379 119.262 84.0321 116.959C83.5274 116.58 83.2833 115.64 83.3807 115.044C84.1104 114.599 84.4578 115.638 85.2626 115.553C85.6941 115.229 85.8079 114.852 86.0271 114.356Z" fill="black"/>
<path d="M95.915 32.6212C96.3213 32.6361 96.7124 32.6019 97.026 32.8544C97.2452 33.5253 96.0513 35.4223 95.6432 36.3323L96.6336 37.6455L96.5144 37.7613C95.9721 37.9156 94.9131 37.4068 94.7418 36.8722C94.3499 35.6476 95.4368 33.79 95.915 32.6212Z" fill="black" fill-opacity="0.988235"/>
<path d="M102.124 50.7936C102.367 50.2968 102.219 50.4263 102.648 50.2327C103.231 50.237 103.735 50.4256 104.29 50.5973C104.309 51.1442 104.371 51.9794 104.276 52.4938C103.543 52.3974 101.592 53.2388 101.163 52.0913C101.223 51.6137 101.766 51.1612 102.124 50.7936Z" fill="#ECEAEB"/>
<path d="M102.124 50.7936C102.367 50.2968 102.219 50.4263 102.648 50.2327C103.231 50.237 103.735 50.4256 104.29 50.5973C104.309 51.1442 104.371 51.9794 104.276 52.4938C103.738 52.3955 102.678 51.2698 102.124 50.7936Z" fill="#B0A9A4"/>
<path d="M100.82 59.1835L100.473 59.1517C100.151 58.8943 100.232 59.0343 100.168 58.6283C100.409 57.7975 101.029 57.3255 101.696 56.8243C102.078 57.3539 102.61 57.8585 103.091 58.3009C103.351 58.5507 103.288 58.4135 103.303 58.808C102.868 59.4868 101.507 59.6644 100.82 59.1835Z" fill="#ECEAEB"/>
<path d="M100.82 59.1835L100.473 59.1517C100.151 58.8943 100.232 59.0343 100.168 58.6283C100.409 57.7975 101.029 57.3255 101.696 56.8243C102.078 57.3539 102.61 57.8585 103.091 58.3009C102.156 58.1469 102.308 57.8989 101.479 57.5997C100.784 57.8838 101.005 58.6446 100.82 59.1835Z" fill="#D3CCBE"/>
<path d="M93.5611 119.988C93.8101 120.013 93.9607 120.065 94.1969 120.134C94.6289 120.856 94.2813 123.146 94.1851 124.076C94.057 124.047 93.8601 123.967 93.7298 123.92C93.2807 123.201 93.5136 120.937 93.5611 119.988Z" fill="#AA9F8F"/>
<path d="M103.242 72.7881C103.902 72.8853 104.148 72.9432 104.783 73.1509C105.256 73.2496 105.089 73.1503 105.404 73.5344C105.525 74.6564 104.73 74.5571 103.914 74.4174L103.374 74.4655C103.29 73.9973 103.271 73.2815 103.242 72.7881Z" fill="#ECEAEB"/>
<path d="M104.783 73.1509C105.256 73.2496 105.089 73.1503 105.404 73.5344C105.525 74.6564 104.73 74.5571 103.915 74.4173C103.966 74.1284 104.579 73.4089 104.783 73.1509Z" fill="#AA9F8F"/>
<path d="M105.637 50.768C106.88 51.0293 107.39 50.8825 107.847 52.156C107.634 52.4042 107.569 52.5123 107.292 52.676C106.828 52.4749 106.603 52.5468 105.954 52.2143C105.636 51.8705 105.668 51.2586 105.637 50.768Z" fill="#AA9F8F"/>
<path d="M93.5431 79.7511C93.5172 79.2829 93.4214 78.6036 93.6862 78.2474C94.8147 79.1457 94.0419 79.0539 95.3637 79.285C95.6702 79.5856 95.6187 79.446 95.6336 79.807C95.219 80.2706 94.0884 80.2956 93.6205 79.9917L93.5431 79.7511Z" fill="#B0A9A4"/>
<path d="M93.5431 79.7511C93.5172 79.2829 93.4214 78.6036 93.6862 78.2474C94.8147 79.1457 94.0419 79.0539 95.3637 79.285C94.746 79.3212 94.0677 79.3705 93.5431 79.7511Z" fill="#D3CCBE"/>
<path d="M98.8435 64.6488C99.4322 64.6997 100.207 64.8454 100.805 64.9398C100.73 65.0032 99.9495 65.6434 99.9582 65.6316C99.8874 66.1555 99.8784 66.5425 99.4548 66.8662L99.2353 66.7038C98.8886 66.0465 98.8971 65.3876 98.8435 64.6488Z" fill="#D3CCBE"/>
<path d="M107.847 52.156L108.144 52.5873L108.416 52.6309C108.97 52.019 108.564 51.855 109.19 51.4305C109.632 51.4346 109.481 51.3755 109.792 51.6139C109.789 52.1059 108.807 52.9218 108.29 53.727C107.967 53.4269 107.504 53.0422 107.292 52.676C107.569 52.5123 107.634 52.4042 107.847 52.156Z" fill="#D3CCBE"/>
<path d="M107.131 57.9887C107.594 58.2403 107.661 58.4291 107.705 58.9736C107.776 59.851 107.564 59.9807 106.903 60.0971L106.369 59.8871L106.284 59.674C106.445 58.9586 106.693 58.5788 107.131 57.9887Z" fill="#AA9F8F"/>
<path d="M98.1826 78.9933C98.7861 79.378 98.995 80.5752 98.6526 81.1685L98.0769 81.0432C97.5431 80.5594 97.7689 79.4896 98.1826 78.9933Z" fill="#AA9F8F"/>
<path d="M104.466 57.8638C104.901 57.922 105.186 57.9069 105.49 58.2068C105.649 58.5972 105.551 58.8119 105.456 59.2313C105.088 59.2764 105.031 59.2905 104.712 59.1098C104.424 58.7371 104.473 58.3411 104.466 57.8638Z" fill="#837A74"/>
<path d="M106.365 36.8439C106.518 36.892 106.803 36.9924 106.947 37.0054C106.603 37.4632 106.368 37.9244 105.75 37.797C105.844 37.2979 105.978 37.2882 106.365 36.8439Z" fill="#515440"/>
<path d="M93.0608 71.6301C93.4705 71.6826 93.718 71.6431 94.0065 71.8638C93.3097 72.0815 92.6216 72.0145 91.907 71.9093C92.4186 71.8453 92.5849 71.842 93.0608 71.6301Z" fill="#837A74"/>
<path d="M22.4458 78.1577C22.3972 74.5694 21.9505 73.331 21.6275 70.1107C21.3833 65.7646 20.8843 60.3274 21.7151 56.1147C22.4766 52.2542 25.8364 47.9564 30.1701 49.2534C32.2107 49.864 34.4199 50.6725 36.0313 52.0441C39.3669 54.8834 42.1803 58.2393 45.2475 61.3517C46.471 62.6184 50.5206 66.439 51.26 67.6075C51.1531 68.8877 50.0461 74.1578 49.3983 74.7487C45.4568 78.3432 46.2608 80.4753 45.4532 85.1835C44.8768 88.5438 40.8736 89.926 37.9842 91.4511L37.6437 91.9188C37.1548 91.7978 35.4363 92.6002 34.9212 92.9038C31.1197 95.1435 29.9857 99.8567 28.924 103.829C28.7987 104.298 28.9171 104.266 28.619 104.58L28.4051 104.614C25.142 103.931 20.7717 104.363 18.1402 102.063C17.6608 102.337 15.4463 102.294 14.7376 102.315C14.5174 104.738 14.6656 107.165 15.1824 109.545C15.2399 109.81 15.3554 110.174 15.3645 110.431C15.1991 110.561 15.0186 110.675 14.8217 110.752C14.6183 110.832 14.4001 110.865 14.1823 110.851C13.2934 110.795 11.7934 110.364 10.7515 110.28C9.8289 110.206 7.33671 110.116 6.65557 109.833C6.24974 108.584 6.34594 105.72 6.33376 104.313L6.32496 93.8233L6.35416 83.4424C6.34945 81.4473 6.27007 79.375 6.38579 77.3845C6.41899 76.8133 6.68154 76.3501 7.01957 75.8969C8.54924 73.8457 10.4206 72.931 12.8416 72.4949C14.4544 73.1057 16.0281 73.489 17.4794 74.4563C19.2022 75.6048 20.7582 76.9739 22.4458 78.1577Z" fill="#C9DAA1"/>
<path d="M24.6731 82.7999C25.77 81.6885 26.7704 80.5458 28.1501 79.8032C28.9699 80.4282 29.422 80.972 30.1098 81.7396C30.1951 83.2847 30.3517 84.8467 30.1257 86.3827C30.0173 87.1185 28.73 88.5777 29.1021 89.116C30.0833 88.9958 31.0741 87.1621 32.3335 86.3523C33.6954 85.4768 34.391 85.5003 35.5832 84.7204C36.3089 85.1673 37.0187 85.6046 37.7818 85.9877C37.9903 87.875 38.0009 89.5548 37.9841 91.4511L37.6437 91.9188C37.1547 91.7978 35.4363 92.6002 34.9212 92.9038C31.1197 95.1435 29.9857 99.8567 28.924 103.829C28.7987 104.298 28.9171 104.266 28.6189 104.58L28.405 104.614C25.142 103.931 20.7716 104.363 18.1401 102.063C16.0142 99.3491 12.2536 96.5353 10.9372 94.2193C11.316 91.81 10.7128 92.3631 10.2241 90.0341C10.1395 89.6306 10.2987 89.4817 10.5039 89.2068C12.32 88.3764 16.2479 90.1031 17.6894 91.3631L17.9877 90.7944C17.6032 90.2454 17.4632 90.0855 16.9781 89.6196C16.8374 88.1104 16.8509 86.2992 16.8649 84.763C17.755 84.3171 17.8804 84.1672 18.5128 83.4153C22.0487 85.7582 22.4255 85.3403 24.5459 89.7567C24.717 87.4648 24.6664 85.1056 24.6731 82.7999Z" fill="#4E841A"/>
<path d="M19.2663 92.4765C19.8784 93.12 23.2724 97.0196 23.2906 97.6943C22.0863 98.0662 18.7473 93.6776 18.6404 92.4259L19.2663 92.4765Z" fill="#759E3A"/>
<path d="M17.9877 90.7944C18.4079 91.3147 18.923 91.9138 19.2663 92.4765L18.6404 92.4259C18.5125 92.2255 17.8869 91.5762 17.6895 91.3631L17.9877 90.7944Z" fill="#A3C694"/>
<path d="M28.4147 89.6463C28.8187 89.8128 28.9197 90.0666 29.0186 90.44C28.8784 90.9253 28.4845 91.1361 28.0699 91.44C27.902 92.3141 27.8993 92.8974 27.2816 93.4946C27.0369 93.3878 26.8216 93.3634 26.7641 93.128C26.5451 92.232 27.9101 90.4764 28.4147 89.6463Z" fill="#759E3A"/>
<path d="M24.6567 89.3382C25.7245 89.7556 25.5995 92.3838 25.3248 93.2865C24.5859 92.7226 24.6837 90.2968 24.6567 89.3382Z" fill="#759E3A"/>
</g>
<defs>
<linearGradient id="paint0_linear_1_634" x1="134.411" y1="83.0644" x2="51.4108" y2="35.1211" gradientUnits="userSpaceOnUse">
<stop stop-color="#2A3F24"/>
<stop offset="1" stop-color="#205C2D"/>
</linearGradient>
<linearGradient id="paint1_linear_1_634" x1="80.4485" y1="51.9288" x2="63.9802" y2="55.0437" gradientUnits="userSpaceOnUse">
<stop stop-color="#AAA497"/>
<stop offset="1" stop-color="#DDDBD5"/>
</linearGradient>
<linearGradient id="paint2_linear_1_634" x1="76.1373" y1="60.3734" x2="62.4725" y2="61.1139" gradientUnits="userSpaceOnUse">
<stop stop-color="#BAB2A5"/>
<stop offset="1" stop-color="#D6D2C9"/>
</linearGradient>
<linearGradient id="paint3_linear_1_634" x1="88.1279" y1="34.0699" x2="91.8161" y2="36.0647" gradientUnits="userSpaceOnUse">
<stop stop-color="#445544"/>
<stop offset="1" stop-color="#556E52"/>
</linearGradient>
<linearGradient id="paint4_linear_1_634" x1="72.3195" y1="69.8427" x2="67.463" y2="67.7098" gradientUnits="userSpaceOnUse">
<stop stop-color="#B5B1A1"/>
<stop offset="1" stop-color="#D9D3C8"/>
</linearGradient>
<linearGradient id="paint5_linear_1_634" x1="82.8444" y1="69.1572" x2="82.1681" y2="71.9422" gradientUnits="userSpaceOnUse">
<stop stop-color="#6B7359"/>
<stop offset="1" stop-color="#9F8091"/>
</linearGradient>
<linearGradient id="paint6_linear_1_634" x1="83.8304" y1="64.3634" x2="83.7944" y2="61.7773" gradientUnits="userSpaceOnUse">
<stop stop-color="#6D4543"/>
<stop offset="1" stop-color="#879379"/>
</linearGradient>
<clipPath id="clip0_1_634">
<rect width="144" height="144" fill="white"/>
</clipPath>
</defs>
</svg>
